<svg width="414" height="396" viewBox="0 0 414 396" fill="none" xmlns="http://www.w3.org/2000/svg">
<g opacity="0.5" clip-path="url(#clip0_241_5547)">
<path d="M136.372 204.828C148.569 189.822 160.087 175.659 170.168 165.49C213.591 121.696 232.286 139.172 240.324 161.542C251.887 193.724 247.421 246.475 240.018 333.877C239.407 341.091 238.773 348.56 238.133 356.27C237.986 358.002 237.805 360.091 237.595 362.48C235.009 391.972 228.149 470.314 240.703 484.142C241.439 484.95 242.18 485.354 242.916 485.354C243.431 485.354 243.946 485.158 244.455 484.754C249.855 480.541 254.536 454.015 259.952 423.3C266.846 384.216 275.433 335.574 288.439 317.879C294.575 309.545 305.866 303.739 316.785 298.129C319.83 296.571 322.982 294.943 325.897 293.327C332.214 289.818 341.468 283.504 348.848 269.145C354.763 257.637 360.344 244.547 365.268 233.004C368.924 224.439 372.377 216.336 375.456 210.068L377.596 205.717C391.163 178.083 401.883 156.256 413.316 143.282C431.383 122.781 445.583 115.971 469.633 116.294C471.036 116.317 472.797 116.398 474.829 116.514C488.345 117.206 513.509 118.499 519.831 102.628C521.218 99.1416 521.648 94.9747 521.099 90.2652C517.364 58.0144 477.936 58.9263 456.756 59.4227C449.376 59.5958 442.34 60.4269 436.131 61.1541C421.608 62.8624 410.141 64.2129 405.296 55.8097C400.779 47.9721 402.896 35.4828 404.599 25.452C405.72 18.8495 406.688 13.1473 405.63 9.9038C403.1 2.17008 396.347 2.64334 388.004 11.1504C368.336 31.2119 363.734 89.5957 359.285 146.075C358.34 158.091 357.361 170.523 356.257 182.146C349.811 250.041 341.87 276.348 310.111 288.756C289.894 296.651 276.259 312.627 267.197 339.014C266.456 341.184 265.692 343.654 264.962 346.043C261.956 355.832 258.843 365.955 255.209 361.926C249.697 355.82 252.589 313.042 254.145 290.06C254.406 286.194 254.632 282.846 254.785 280.214C254.977 276.867 255.181 273.52 255.379 270.161C257.151 240.495 258.985 209.815 255.894 179.895C252.974 151.627 246.759 131.773 237.414 120.888C224.645 106.021 206.126 107.268 180.797 124.709C155.791 141.931 132.959 169.495 110.879 196.148C103.986 204.47 96.8652 213.07 89.7619 221.254C62.8317 252.281 33.4619 271.615 0 280.33V281.496H0.03396C33.5921 272.746 63.0354 253.377 90.0506 222.246C97.1539 214.062 104.28 205.451 111.174 197.129C133.225 170.5 156.029 142.97 180.984 125.794C206.154 108.468 224.521 107.187 237.137 121.881C246.335 132.593 252.459 152.181 255.345 180.126C258.413 209.861 256.585 240.438 254.819 270.011C254.621 273.37 254.417 276.728 254.225 280.076C254.072 282.708 253.845 286.044 253.585 289.899C251.904 314.797 249.085 356.455 254.943 362.942C259.047 367.49 262.301 356.894 265.448 346.655C266.212 344.162 266.937 341.819 267.673 339.672C276.638 313.55 290.16 297.725 310.225 289.887C342.305 277.363 350.32 250.826 356.818 182.366C357.921 170.719 358.901 158.276 359.852 146.248C364.278 90.0689 368.851 31.9737 388.265 12.1777C396.33 3.94768 402.805 3.32437 405.165 10.5387C406.071 13.3089 405.143 18.7572 404.073 25.0711C402.313 35.4366 400.122 48.33 404.933 56.687C409.954 65.4019 420.945 64.0975 436.171 62.3084C442.374 61.5812 449.398 60.7501 456.768 60.5769C477.789 60.0921 516.922 59.1803 520.556 90.5307C521.06 94.8823 520.669 98.7145 519.401 101.9C513.254 117.345 488.277 116.063 474.851 115.371C472.814 115.267 471.059 115.175 469.644 115.152C469.106 115.152 468.569 115.152 468.042 115.152C444.859 115.152 430.805 122.147 413.05 142.289C401.549 155.344 390.806 177.218 377.205 204.909L375.066 209.26C371.97 215.551 368.511 223.666 364.849 232.254C359.936 243.774 354.361 256.84 348.464 268.314C341.179 282.488 332.016 288.745 325.756 292.219C322.841 293.835 319.694 295.451 316.654 297.009C305.685 302.642 294.343 308.471 288.128 316.921C274.963 334.824 266.343 383.662 259.42 422.907C254.049 453.357 249.408 479.652 244.252 483.669C243.159 484.523 242.084 484.338 240.969 483.115C228.772 469.69 235.586 391.938 238.15 362.677C238.36 360.287 238.541 358.198 238.688 356.455C239.333 348.744 239.967 341.288 240.578 334.062C248.004 246.359 252.487 193.424 240.782 160.85C232.62 138.122 213.693 120.3 169.919 164.44C159.821 174.62 148.292 188.807 136.083 203.824C99.0953 249.337 53.0682 305.943 0 313.573V314.728H0.02264C53.238 307.098 99.333 250.388 136.372 204.828Z" fill="white"/>
<path d="M108.236 167.579C116.353 159.395 124.741 150.934 133.927 142C201.309 76.4828 227.057 81.3308 241.959 92.8622C260.728 107.395 269.62 146.167 268.38 208.118C267.973 228.606 266.416 247.525 265.171 262.727C263.224 286.436 261.939 302.1 266.094 306.013C266.456 306.359 266.835 306.509 267.237 306.509C268.708 306.509 270.514 304.373 273.135 301.292C276.74 297.032 281.681 291.203 289.311 286.413C296.708 281.773 302.227 279.637 307.57 277.583C312.426 275.713 317.011 273.947 322.795 270.449C343.358 258.029 346.986 196.817 350.495 137.637C351.91 113.789 353.371 89.1223 355.912 67.8488C359.025 41.7966 362.365 20.6962 368.545 2.35461C368.777 1.67359 369.009 1.0041 369.247 0.334614L369.36 0.0114136H368.67C368.472 0.577014 368.279 1.13107 368.087 1.70821C361.855 20.1999 358.493 41.4156 355.369 67.5833C352.822 88.926 351.356 113.628 349.941 137.51C346.454 196.332 342.849 257.152 322.643 269.364C316.886 272.838 312.313 274.604 307.468 276.474C302.114 278.541 296.573 280.676 289.147 285.339C281.455 290.164 276.485 296.028 272.852 300.322C269.671 304.073 267.758 306.336 266.331 304.997C262.573 301.453 263.897 285.305 265.731 262.958C266.982 247.721 268.539 228.768 268.946 208.21C270.197 145.717 261.186 106.564 242.163 91.8348C227.158 80.2112 201.264 75.3055 133.689 141.007C124.497 149.942 116.104 158.403 107.987 166.586C70.0821 204.77 42.699 232.381 0 240.703V241.857H0.0283C42.8462 233.523 70.2746 205.867 108.236 167.591V167.579Z" fill="white"/>
<path d="M64.1335 318.733C81.1644 305.078 98.1897 286.494 116.188 261.919C118.498 258.768 121.033 255.247 123.756 251.484C151.207 213.439 197.16 149.78 219.461 166.309C245.452 185.574 238.377 253.654 225.54 377.232L225.115 381.307C217.452 455.077 215.097 504.63 217.916 532.818C219.591 549.578 223.253 560.706 228.223 564.145C229.309 564.896 230.43 565.265 231.562 565.265C234.482 565.265 237.477 562.807 240.125 558.109C252.6 535.992 257.705 499.806 263.111 461.483L263.456 459.025C271.108 404.808 280.408 360.206 287.737 342.626C295.503 323.996 306.913 317.151 317.939 311.726C320.656 310.387 323.26 309.164 325.761 307.975C343.33 299.675 356.025 293.685 368.472 268.983C374.76 256.505 380.318 244.05 385.695 232.011C404.328 190.284 420.419 154.247 454.962 144.47C466.803 141.123 477.959 141.042 488.752 140.961C503.282 140.857 517.007 140.753 530.993 132.835C538.804 128.414 543.717 121.788 546.015 112.589C548.578 102.316 547.696 88.6605 543.768 77.7871C540.728 69.3724 536.16 62.6314 529.391 56.5483C518.524 46.7946 506.7 42.2236 495.273 37.8027L450.508 20.4884C444.061 17.9951 437.586 13.5627 432.271 8.01055C430.064 5.70197 428.394 3.01249 427.296 0.0228882H426.6L426.707 0.357631C427.862 3.64735 429.645 6.56769 432.016 9.0494C437.376 14.6592 443.908 19.1263 450.406 21.6427L495.171 38.9569C506.57 43.3663 518.354 47.9257 529.165 57.6333C535.844 63.624 540.338 70.2612 543.315 78.5028C547.118 89.0299 547.979 102.212 545.511 112.092C543.292 120.992 538.492 127.421 530.846 131.75C516.933 139.622 503.248 139.726 488.752 139.83C477.942 139.911 466.769 139.992 454.889 143.351C420.142 153.185 403.988 189.36 385.282 231.249C379.911 243.277 374.358 255.709 368.081 268.163C355.748 292.646 343.121 298.614 325.637 306.855C323.135 308.033 320.531 309.268 317.809 310.607C306.693 316.078 295.186 322.992 287.307 341.888C279.932 359.583 270.582 404.346 262.913 458.713L262.567 461.172C257.19 499.321 252.108 535.358 239.758 557.243C236.231 563.488 232.094 565.611 228.404 563.06C223.632 559.759 220.1 548.932 218.465 532.599C215.663 504.573 218.018 455.169 225.664 381.549L226.089 377.474C238.993 253.262 246.102 184.836 219.648 165.224C197.07 148.487 150.975 212.365 123.433 250.526C120.716 254.289 118.181 257.81 115.872 260.961C75.7534 315.732 38.9351 342.638 0 345.605V346.759H0.01132C21.4118 345.131 42.982 335.701 64.1335 318.733Z" fill="white"/>
<path d="M565.96 168.71C552.608 172.658 530.127 172.139 501.663 171.492C496.484 171.377 491.13 171.25 485.645 171.157C464.833 170.811 445.233 179.526 431.858 195.132C420.646 208.222 410.474 228.075 400.643 247.271C391.117 265.867 381.269 285.097 370.589 297.863C359.495 311.115 346.749 316.367 334.421 321.446C317.9 328.256 302.289 334.685 291.49 359.11C280.13 384.793 274.374 427.294 268.273 472.299C265.929 489.602 263.501 507.493 260.739 524.288C255.243 557.682 243.946 603.461 232.994 626.362C226.236 640.479 219.325 647.45 213.523 645.984C209.443 644.946 205.956 639.74 203.443 630.921C194.596 599.859 203.715 500.337 212.533 404.081C213.076 398.159 214.112 389.26 215.318 378.94C221 330.207 231.585 239.491 219.84 207.402C216.518 198.318 211.916 193.043 206.154 191.727C189.265 187.848 164.434 219.176 148.303 247.179C146.758 249.868 145.207 252.581 143.645 255.316C124.056 289.668 101.857 328.591 61.3261 343.954C33.1223 354.643 10.8502 370.826 0 379.587V380.845L0.10188 380.753C10.8785 372.038 33.1676 355.809 61.428 345.097C102.106 329.676 124.367 290.638 144.007 256.194C145.57 253.458 147.12 250.734 148.666 248.056C164.712 220.203 189.372 189.026 206.086 192.87C211.684 194.151 216.155 199.276 219.382 208.095C230.968 239.757 220.429 330.126 214.763 378.675C213.557 389.006 212.516 397.928 211.973 403.873C203.137 500.325 194.002 600.079 202.951 631.498C205.554 640.64 209.188 646.042 213.45 647.127C213.982 647.266 214.52 647.323 215.063 647.323C220.683 647.323 227.124 640.271 233.396 627.158C244.41 604.142 255.758 558.166 261.277 524.646C264.045 507.816 266.473 489.914 268.822 472.599C274.901 427.732 280.645 385.358 291.914 359.883C302.589 335.736 318.109 329.341 334.54 322.577C346.913 317.475 359.71 312.211 370.883 298.868C381.625 286.044 391.497 266.755 401.045 248.114C410.854 228.964 420.996 209.157 432.147 196.136C445.436 180.623 464.952 171.942 485.645 172.312C491.135 172.404 496.484 172.531 501.663 172.647C530.127 173.293 552.62 173.801 566.006 169.865V168.699H565.966L565.96 168.71Z" fill="white"/>
<path d="M565.96 200.569C547.265 206.236 528.938 207.321 509.524 208.464C502.07 208.903 494.361 209.364 486.466 210.092C465.626 212.019 448.476 221.034 435.486 236.882C423.725 251.242 415.093 267.021 406.75 282.292C397.332 299.526 388.44 315.801 376.848 325.335C367.362 333.138 356.399 337.144 345.792 341.022C326.118 348.202 305.776 355.635 295.027 387.886C287.788 409.61 281.998 445.116 274.674 490.064C271.035 512.387 266.914 537.689 262.075 564.469C255.94 598.416 246.08 637.847 235.694 669.97C219.11 721.244 205 743.106 192.559 736.781C168.481 724.545 182.043 586.654 187.142 534.734C187.782 528.224 188.291 523.076 188.574 519.648C190.9 491.968 195.01 459.233 199.368 424.569C207.513 359.791 215.929 292.796 213.11 253.608C211.916 237.044 207.75 225.167 201.366 220.168C190.708 211.823 175.335 223.297 158.078 252.477C149.441 267.079 142.87 281.946 136.514 296.328C126.467 319.056 116.981 340.526 101.195 355.566C90.7468 365.516 76.7326 368.54 63.1826 371.461C54.302 373.377 45.9139 375.189 38.4201 378.802C21.259 387.078 7.02406 403.931 0 413.35V414.7L0.15848 414.527C7.12028 405.166 21.3722 388.221 38.5559 379.933C46.0101 376.343 54.3813 374.531 63.2448 372.615C76.8402 369.683 90.8996 366.647 101.433 356.617C117.32 341.484 126.846 319.933 136.932 297.113C143.272 282.765 149.826 267.933 158.435 253.377C175.528 224.474 190.702 213.07 201.162 221.253C207.343 226.09 211.39 237.644 212.55 253.781C215.352 292.75 206.947 359.618 198.819 424.292C194.461 458.967 190.346 491.726 188.014 519.463C187.725 522.88 187.221 528.016 186.582 534.515C181.448 586.723 167.813 725.399 192.417 737.9C193.9 738.651 195.395 739.031 196.906 739.031C202.379 739.031 208.062 734.08 214.146 724.037C220.972 712.783 228.177 695.295 236.163 670.605C246.572 638.424 256.46 598.89 262.607 564.873C267.446 538.07 271.572 512.768 275.212 490.433C282.525 445.566 288.303 410.129 295.497 388.544C306.11 356.697 325.433 349.645 345.894 342.176C356.529 338.298 367.521 334.281 377.064 326.432C388.746 316.817 397.677 300.472 407.129 283.169C415.455 267.933 424.059 252.188 435.775 237.887C448.68 222.142 465.744 213.173 486.488 211.257C494.378 210.53 502.087 210.068 509.541 209.63C528.95 208.476 547.282 207.391 566 201.735V200.569H565.96Z" fill="white"/>
<path d="M565.972 240.703C524.925 248.691 511.709 250.007 500.044 251.184C496.461 251.542 493.077 251.888 489.098 252.396C474.931 254.231 465.586 255.79 452.523 264.158C436.51 274.42 427.936 290.961 412.376 321.007C410.152 325.301 407.792 329.86 405.25 334.708C389.385 364.951 370.141 367.836 351.531 370.63C330.295 373.815 310.236 376.828 299.533 422.607C293.454 448.602 289.237 477.343 284.772 507.77C277.436 557.739 269.122 614.38 250.121 677.266C225.455 758.908 204.009 792.509 182.62 783.033C154.178 770.428 164.236 662.802 169.642 604.984C170.145 599.559 170.626 594.446 171.017 590.002C172.511 572.907 175.873 547.328 179.767 517.697C188.376 452.157 199.09 370.595 199.532 310.445C199.724 283.689 195.366 262.519 188.155 255.201C184.029 251.011 177.05 249.291 167.219 264.909C159.091 277.813 152.831 297.229 146.198 317.786C134.516 354.008 122.431 391.453 98.6255 397.94C89.5242 400.422 81.1021 400.664 72.9631 400.907C50.7079 401.564 29.6867 402.176 0 448.452V449.894L0.1698 449.629C29.7999 403.319 50.7702 402.707 72.9687 402.049C81.1304 401.807 89.5695 401.564 98.6991 399.071C122.765 392.515 134.917 354.839 146.673 318.41C153.278 297.933 159.516 278.598 167.57 265.809C175.166 253.747 182.195 250.434 187.906 256.228C194.919 263.35 199.158 284.116 198.966 310.422C198.53 370.433 187.821 451.914 179.218 517.397C175.324 547.051 171.956 572.664 170.457 589.794C170.066 594.238 169.591 599.351 169.081 604.765C163.642 662.975 153.516 771.317 182.495 784.152C184.782 785.168 187.086 785.676 189.401 785.676C199.062 785.676 208.962 776.88 218.923 759.405C229.004 741.709 239.367 715.045 250.596 677.866C269.637 614.842 277.963 558.132 285.309 508.093C289.769 477.713 293.98 449.017 300.042 423.103C310.604 377.925 330.504 374.935 351.571 371.784C370.277 368.979 389.623 366.07 405.635 335.562C408.182 330.714 410.542 326.155 412.767 321.861C428.27 291.942 436.81 275.459 452.692 265.278C465.693 256.944 475.01 255.397 489.132 253.562C493.105 253.042 496.49 252.708 500.067 252.35C511.732 251.184 524.954 249.857 565.994 241.869V240.703H565.966H565.972Z" fill="white"/>
<path d="M151.462 701.321C153.822 662.052 156.765 613.18 166.393 554.807C166.676 553.088 167.015 551.056 167.4 548.747C171.175 526.112 180.016 473.084 185.042 423.427C191.314 361.43 189.729 324.493 180.333 313.619C164.366 295.139 149.384 346.713 140.436 377.521C138.478 384.273 136.785 390.091 135.421 394.039C123.377 428.921 110.245 437.555 83.3944 428.24C67.3257 422.665 53.9738 423.911 41.3746 432.13C26.5114 441.838 12.9727 461.345 0 491.749V493.492L0.21508 492.995C30.547 421.591 60.5507 421.487 83.2982 429.371C97.4935 434.288 107.902 433.884 116.047 428.102C123.654 422.699 129.772 412.392 135.885 394.708C137.261 390.726 138.959 384.885 140.923 378.109C149.764 347.659 164.564 296.709 180.05 314.624C194.398 331.222 189.961 409.864 166.862 548.378C166.478 550.698 166.138 552.73 165.855 554.45C156.21 612.937 153.267 661.867 150.901 701.182C147.992 749.524 145.892 784.441 133.406 807.55L133.129 808H133.995C146.453 784.58 148.558 749.616 151.467 701.321H151.462Z" fill="white"/>
<path d="M141.783 701.298C144.438 660.529 149.741 622.726 155.35 582.695C162.187 533.938 169.251 483.519 171.724 424.789C172.296 411.203 172.687 396.797 170.706 383.038C170.157 379.229 168.476 370.26 164.734 369.429C160.619 368.517 158.01 377.855 156.403 384.977C149.107 417.355 139.859 439.956 128.912 452.168C118.385 463.919 105.027 457.501 92.1052 451.303C88.3413 449.502 84.7868 447.794 81.3285 446.547C47.0742 434.185 33.4336 461.426 17.6422 492.949C10.6578 506.893 1.5282 529.171 0 532.934V534.804L0.22074 534.203C0.32262 533.95 10.4597 508.913 18.0441 493.769C33.7279 462.465 47.2667 435.42 81.238 447.678C84.6793 448.925 88.2281 450.622 91.9863 452.422C105.01 458.667 118.475 465.131 129.195 453.173C140.249 440.833 149.582 418.048 156.929 385.451C158.463 378.652 160.931 369.718 164.683 370.572C168.085 371.334 169.653 379.772 170.174 383.361C172.126 396.924 171.736 411.214 171.17 424.685C168.702 483.311 161.644 533.672 154.812 582.372C149.198 622.437 143.889 660.275 141.228 701.136C137.589 756.981 129.252 788.781 113.347 807.504L112.94 808H114.049C129.846 789.035 138.161 757.05 141.794 701.298H141.783Z" fill="white"/>
<path d="M69.7595 0.530971L70.45 0H68.8709C50.5155 14.3824 12.3501 10.0077 0.06792 5.78297L0 5.74834V6.92571C5.943 8.9688 17.829 11.0234 30.6319 11.0234C44.8555 11.0234 60.2054 8.47246 69.7652 0.530971H69.7595Z" fill="white"/>
<path d="M90.9562 0.519429L91.5392 0H90.1638C56.883 31.9622 10.6748 21.135 0.06792 16.4601L0 16.4255V17.6144C4.93552 19.7729 17.3253 23.2127 32.5224 23.2127C50.657 23.2127 72.7819 18.3185 90.9562 0.530971V0.519429Z" fill="white"/>
<path d="M418.648 83.6857C409.45 87.3102 401.345 89.5033 398.006 89.2378C393.483 88.8915 392.747 82.8431 392.142 73.655C391.915 70.1806 391.225 68.0105 390.087 67.2141C387.767 65.5865 384.252 70.3883 381.948 74.9824C377.267 84.3206 372.66 104.832 370.481 126.002C369.462 135.883 364.583 185.551 368.279 192.581C368.585 193.158 368.947 193.458 369.349 193.458C369.513 193.458 369.689 193.412 369.87 193.308C372.904 191.554 376.107 184.212 380.539 174.032C385.984 161.542 393.438 144.447 404.86 127.814C418.693 107.66 432.543 101.15 437.852 99.2801C439.409 98.7376 441.033 98.3105 442.606 97.9065C447.293 96.6945 451.34 95.6441 452.625 91.8119C453.026 90.6114 453.134 89.1801 452.936 87.5757C451.6 76.6677 434.671 77.3602 418.648 83.6857ZM452.155 91.1655C451.017 94.5706 446.897 95.6326 442.533 96.7638C440.954 97.1678 439.324 97.5949 437.75 98.1489C432.401 100.03 418.45 106.587 404.52 126.879C393.047 143.593 385.571 160.746 380.109 173.27C375.739 183.301 372.581 190.538 369.706 192.2C369.281 192.442 368.953 192.304 368.659 191.75C366.14 186.96 368.036 155.401 371.03 126.244C373.187 105.282 377.732 85.0131 382.339 75.8135C384.705 71.0925 387.953 66.9486 389.901 68.3106C390.817 68.957 391.378 70.8039 391.576 73.805C392.097 81.7581 392.64 89.9881 397.977 90.3921C401.356 90.6576 409.512 88.4645 418.75 84.8169C436.839 77.6834 451.295 78.9878 452.381 87.8527C452.54 89.1455 452.466 90.2305 452.149 91.1655H452.155Z" fill="white"/>
<path d="M565.989 345.605C546.988 347.048 519.09 365.539 499.58 403.573C493.671 415.104 487.983 428.344 481.966 442.38C465.943 479.733 449.376 518.367 425.179 533.303C380.443 560.914 369.1 585.188 353.88 634.003C345.419 661.152 340.534 687.885 336.221 711.479C331.965 734.784 328.286 754.903 322.196 771.098C318.517 780.874 315.007 784.81 311.781 782.813C304.593 778.346 300.455 746.811 299.544 717.55C299.08 702.568 295.865 569.178 326.084 500.337C337.223 474.965 351.667 461.264 369.015 459.602C374.494 459.083 379.548 458.736 384.444 458.39C420.363 455.92 440.15 454.569 467.437 390.529C492.092 332.665 531.089 319.749 565.989 314.739V313.585H565.966C530.942 318.606 491.797 331.592 467.007 389.779C439.884 453.438 420.181 454.789 384.422 457.247C379.526 457.582 374.466 457.928 368.987 458.459C351.48 460.133 336.906 473.973 325.665 499.575C313.858 526.47 305.759 565.854 301.599 616.631C297.727 663.864 298.616 705.88 298.984 717.631C299.906 747.296 304.168 779.305 311.617 783.933C312.223 784.314 312.834 784.499 313.451 784.499C316.388 784.499 319.479 780.251 322.648 771.825C328.789 755.503 332.48 735.303 336.753 711.906C341.055 688.37 345.928 661.694 354.356 634.649C369.496 586.089 380.788 561.929 425.338 534.434C449.687 519.406 466.31 480.645 482.385 443.165C488.39 429.163 494.067 415.924 499.959 404.439C519.35 366.624 547.09 348.236 565.983 346.794V345.639H565.972L565.989 345.605Z" fill="white"/>
<path d="M565.966 280.341C536.296 288.063 514.132 294.124 502.37 298.579C481.949 306.313 467.267 319.16 453.275 341.53C448.402 349.321 444.118 358.81 439.98 367.975C434.071 381.064 427.964 394.592 420.057 403.342C408.42 416.212 395.583 416.928 383.176 417.632C378.394 417.898 373.441 418.175 368.59 419.133C348.22 423.15 330.985 440.325 317.356 470.198C306.183 494.681 297.325 527.901 291.037 568.913C279.955 641.183 279.91 716.061 279.898 740.67V743.36C279.859 767.635 280.13 788.781 280.736 808.011H281.302V807.977C280.696 788.758 280.419 767.623 280.459 743.371V740.682C280.476 716.119 280.515 641.367 291.575 569.271C305.617 477.736 331.546 427.617 368.647 420.298C373.481 419.34 378.416 419.063 383.193 418.798C395.668 418.105 408.573 417.378 420.329 404.369C428.321 395.527 434.462 381.93 440.399 368.771C444.525 359.641 448.787 350.187 453.626 342.453C467.544 320.199 482.153 307.421 502.478 299.722C514.222 295.278 536.37 289.229 566.006 281.507V280.341H565.972H565.966Z" fill="white"/>
<path d="M565.898 379.702C564.851 380.545 563.776 381.411 562.661 382.299C552.58 390.333 540.038 400.341 524.388 421.695C514.132 435.685 505.727 454.592 496.824 474.596C488.956 492.28 480.828 510.564 470.737 527.047C459.864 544.823 447.955 556.839 435.35 569.559C411.193 593.938 386.21 619.147 364.47 688.254C354.639 719.512 346.585 748.173 339.889 807.885L339.877 808H340.455C347.122 748.566 355.148 720.02 364.946 688.878C386.601 620.036 411.51 594.907 435.599 570.598C448.232 557.843 460.169 545.804 471.088 527.959C481.208 511.418 489.358 493.099 497.237 475.381C506.112 455.423 514.5 436.574 524.693 422.665C540.292 401.38 552.807 391.395 562.859 383.384C563.934 382.53 564.976 381.699 565.994 380.868V379.621L565.893 379.714L565.898 379.702Z" fill="white"/>
<path d="M289.747 111.527C295.52 154.974 301.186 175.925 308.119 179.457C309.183 179.999 310.213 180.276 311.21 180.276C318.098 180.276 323.237 167.141 326.859 140.384C329.169 123.312 330.957 102.385 333.023 78.1567C335.004 54.9671 337.246 28.684 340.438 0.196229L340.489 0H339.883C336.691 28.4993 334.449 54.7709 332.468 77.9605C330.403 102.166 328.62 123.07 326.316 140.084C322.275 169.969 316.371 182.481 308.261 178.349C301.644 174.978 295.933 153.647 290.301 111.227C285.253 73.2048 282.559 39.9267 281.302 0H280.736V0.0346286C281.998 40.0768 284.692 73.4241 289.758 111.527H289.747Z" fill="white"/>
<path d="M113.24 103.805C157.778 71.6464 199.849 41.2771 235.269 40.977C253.296 40.827 265.126 55.1747 273.599 87.5063C279.044 108.272 282.666 130.907 286.17 152.804C291.247 184.512 296.041 214.455 305.47 228.629C308.447 233.108 311.691 235.44 314.82 235.44C315.675 235.44 316.519 235.266 317.351 234.92C320.718 233.5 323.543 229.287 325.314 223.066C331.619 200.915 336.911 135.975 341.581 78.676C344.354 44.6361 346.749 15.2364 348.928 0.173014V0.0114136H348.362C346.183 15.1903 343.794 44.5322 341.026 78.4913C336.368 135.698 331.082 200.534 324.827 222.488C323.141 228.421 320.447 232.427 317.237 233.789C313.524 235.359 309.466 233.2 305.804 227.706C296.516 213.751 291.971 185.344 286.702 152.446C283.187 130.503 279.559 107.822 274.091 86.9637C265.55 54.3783 253.659 39.8227 235.547 39.8227C235.45 39.8227 235.354 39.8227 235.258 39.8227C199.747 40.1228 157.631 70.5267 113.042 102.72C75.4931 129.834 36.6542 157.872 0 168.71V169.876H0.03962C36.7617 159.026 75.6402 130.954 113.24 103.805Z" fill="white"/>
<path d="M95.8578 144.574C98.7896 142.324 103.074 138.792 108.497 134.301C137.481 110.35 197.8 60.5194 231.686 60.1962C231.8 60.1962 231.919 60.1962 232.032 60.1962C249.029 60.1962 259.873 72.3277 266.145 98.3569C272.818 126.025 277.029 152.043 280.747 175.001C283.453 191.727 285.796 206.179 288.598 218.345C294.399 243.555 304.259 259.137 313.547 259.137C315.364 259.137 317.164 258.537 318.901 257.302C330.272 249.199 335.434 221.531 339.696 182.481C340.607 174.124 341.722 159.984 343.126 142.093C346.505 99.1418 351.611 34.2479 358.346 0.242598L358.431 -0.0228882H357.786C351.045 34.144 345.939 98.9687 342.566 141.897C341.213 159.061 340.047 173.882 339.142 182.216C334.925 220.884 329.831 248.276 318.715 256.194C308.374 263.558 295.922 247.433 289.113 217.837C286.328 205.729 283.991 191.312 281.291 174.621C277.566 151.627 273.35 125.563 266.66 97.8259C260.326 71.5544 248.859 58.8688 231.692 59.0304C197.698 59.3536 137.312 109.242 108.293 133.216C102.87 137.695 98.5915 141.227 95.6653 143.478C61.8808 169.415 35.1939 189.88 0 200.557V201.723H0.03962C35.3184 191.023 62.0336 170.523 95.8578 144.574Z" fill="white"/>
</g>
<defs>
<clipPath id="clip0_241_5547">
<rect width="414" height="591" fill="white"/>
</clipPath>
</defs>
</svg>
