<svg width="600" height="600" viewBox="0 0 600 600" fill="none" xmlns="http://www.w3.org/2000/svg">
<path d="M129.01 429.87C128.04 430.98 128.59 432.22 127.07 433.19C127.07 432.77 127.35 432.77 127.35 432.36C126.93 432.36 126.66 432.5 126.52 432.77C126.11 433.46 127.49 433.05 127.07 434.02C123.2 436.1 120.71 442.46 115.86 441.35C115.31 441.35 115.72 441.9 115.31 442.46C114.76 442.04 114.34 442.04 114.2 442.74C114.06 441.77 114.06 442.74 114.2 442.74C114.2 443.15 114.75 443.15 115.31 443.57C111.57 445.78 106.18 450.49 102.86 449.8C100.51 452.43 96.5 453.95 92.21 454.64C91.79 455.19 90.13 456.72 89.44 455.61C88.47 457.13 83.77 456.58 80.72 456.86C81.41 456.72 82.1 455.2 83.07 455.61C83.21 454.36 82.65 454.64 81.69 454.64C81.69 455.19 81.83 455.19 81.83 455.75C78.37 456.86 75.88 454.78 72.28 454.09V453.67C72.28 453.577 72.3267 453.483 72.42 453.39C72.84 453.94 72.84 453.39 73.53 453.94C73.53 453.25 72.42 452.83 72.42 453.39C69.38 453.39 68.13 449.38 64.81 449.38C64.81 447.17 62.6 446.61 62.04 446.06C62.04 444.81 63.15 446.48 63.7 446.06L61.49 443.85C61.49 442.88 61.91 444.27 62.6 443.85C61.49 442.88 60.94 442.47 61.49 440.67C61.49 440.81 61.49 440.95 61.63 441.09C61.77 441.51 61.91 441.78 61.91 441.92C61.49 439.71 63.29 439.01 63.85 437.22C65.37 438.19 64.96 436.11 65.37 435.14C66.06 435.14 64.95 436.11 65.65 436.11C67.17 435 65.93 431.27 68.14 431.27C68.14 430.58 67.86 430.58 67.86 430.02C68.41 431.27 69.11 429.47 69.52 429.47C70.49 427.81 71.04 426.84 72.29 425.87C71.88 426.98 70.63 427.12 70.63 428.91C69.52 428.49 70.63 429.46 70.63 428.91C71.32 428.22 71.88 427.53 72.43 426.97C72.85 428.63 70.22 429.46 70.63 430.57H70.49V430.71L70.63 430.57C71.6 431.68 71.32 429.88 72.29 430.02C71.6 430.99 72.43 431.82 71.88 432.93H71.6V432.38C71.18 432.38 71.18 432.93 71.6 432.93C71.6 433.023 71.5533 433.07 71.46 433.07C71.32 433.21 71.18 433.21 71.04 433.21C71.04 433.63 71.18 433.9 71.59 434.04C71.59 434.45 71.87 434.45 71.87 434.59C72.28 434.04 73.39 432.93 72.84 432.38C72.84 431.27 73.39 432.93 73.39 432.1C73.53 432.1 73.53 432.38 73.53 432.93C73.39 432.93 73.39 433.07 73.39 433.48C73.39 433.48 73.39 433.34 73.53 433.2V432.92C73.95 432.78 74.22 432.51 74.22 432.09C74.64 430.98 74.91 430.98 74.5 429.88C77.13 429.88 76.02 427.8 78.1 427.8C77.55 427.11 77.55 426.69 78.1 426.42H78.52C78.1 427.53 79.21 426.42 78.52 426.42C78.52 425.45 79.35 425.31 79.35 424.76C79.9 424.76 78.8 426.01 80.6 425.59V426.01C79.35 426.43 78.52 427.26 78.11 428.22C77.14 428.91 76.86 428.91 77.56 429.47C77.28 429.47 77.01 429.88 76.87 430.58C77.29 430.58 77.56 430.16 77.56 429.47C78.11 429.47 77.56 428.64 78.11 428.22C79.08 427.8 79.91 427.11 80.6 426.01C80.74 425.87 81.01 425.73 81.01 424.76C81.98 425.31 81.7 424.76 82.81 424.76C81.84 424.9 82.26 426.42 80.73 426.42V427.8L80.59 428.22C80.17 427.53 80.17 428.22 80.59 428.22C80.4967 428.313 80.45 428.407 80.45 428.5C80.31 428.64 80.31 428.78 80.31 428.92C80.31 429.47 80.59 428.92 80.73 428.92C80.73 429.34 80.87 429.47 81.01 429.47C81.01 430.02 80.73 430.02 80.73 430.99C81.42 430.57 81.42 430.02 81.84 429.88C81.84 429.6 81.56 429.47 81.01 429.47L80.73 428.92C81.97 428.64 82.25 425.32 83.91 426.01C82.53 426.98 83.91 428.09 83.08 428.92C84.05 428.92 83.77 427.81 84.88 428.23C83.91 428.64 83.91 429.48 84.33 430.03C82.81 431 82.25 432.94 80.73 434.46C81.42 435.15 81.56 435.98 81.42 436.95C79.62 436.26 79.21 439.58 78.1 440.69C82.8 440.69 87.09 437.09 90.55 436.26C98.44 431.97 105.91 427.54 112.41 421.87C112.83 419.52 116.42 417.44 115.32 414.12C110.75 411.21 105.91 409.69 101.62 407.06C94.01 405.81 88.75 403.74 83.22 399.73C80.31 399.04 79.35 396.13 76.44 395.03C75.47 392.68 74.36 391.02 72.84 389.36C72.98 387.56 72.42 386.87 72.84 385.35C71.59 384.8 72.29 383.69 71.87 383.27C72.28 382.02 72.84 384.38 72.84 382.58V382.86C72.84 383 72.98 383.14 72.98 383.28C73.95 381.76 72.84 380.51 72.29 380.1C72.29 381.07 72.84 381.48 72.84 382.59C71.59 382.17 72.01 380.24 71.59 379.82C73.67 378.3 74.63 376.22 76.16 374.15C77.27 372.07 79.62 371.52 81.7 370.41C87.23 367.09 92.22 363.49 98.72 361.97C107.16 359.2 115.05 356.85 122.8 358.93C123.21 361.14 127.5 360.04 128.2 362.67L128.48 362.95C128.62 363.09 128.9 363.09 129.45 363.09C130 363.78 130.14 365.17 131.66 365.58C131.38 366.55 131.52 367.24 132.21 367.66C131.24 368.91 131.93 369.32 131.93 371.12C129.16 372.92 127.5 370.84 125.98 370.43C121.41 369.32 117.95 369.74 113.53 371.81C114.08 372.78 114.22 371.81 115.19 372.22C105.23 375.96 92.36 378.58 86 386.75C103.02 393.39 131.11 400.03 130.69 423.69C130.14 424.8 130.69 425.63 130 426.04C129.58 427.01 130.69 426.59 130.55 427.56C129.44 428.25 129.58 428.94 128.47 429.91H129.02L129.01 429.87ZM63.84 433.88V448.96L64.4 432.36C64.82 431.67 64.82 430.56 64.95 430.56C64.95 430.98 64.95 432.36 64.4 432.36L63.84 433.88ZM65.37 429.45C65.92 429.45 65.65 430.56 64.95 430.56C64.95 429.87 65.09 429.45 65.37 429.45ZM64.95 434.99L65.64 433.46L66.06 432.77C65.37 432.36 66.61 431.94 66.06 430.97C67.17 430.55 66.06 432.08 66.06 432.77L64.95 434.99ZM67.03 430.56C66.62 430.56 66.89 429.45 67.86 429.45C67.72 429.86 67.17 430 67.03 430.56ZM67.86 429.45C67.72 428.2 68.83 428.76 68.41 427.79C69.1 427.79 68.41 429.45 67.86 429.45ZM68.83 432.08V432.77C69.24 432.77 69.38 432.49 69.38 432.08C69.52 431.66 70.63 431.66 69.93 431.25C69.51 431.67 69.38 431.94 69.38 432.08H68.83ZM69.52 433.19C69.11 433.19 68.83 433.47 68.83 433.88C69.24 433.88 69.52 433.6 69.52 433.19ZM71.32 382.96L71.59 434.02L71.87 453.25L72.42 425.58C72.42 425.673 72.3733 425.767 72.28 425.86C72.28 425.44 72.28 425.31 72.42 425.31V425.59L71.32 382.96ZM72.42 429.87C72.28 428.62 72.97 427.79 74.22 427.1C73.25 428.21 72.84 428.9 72.42 429.87ZM72.42 430.56C72.84 430.01 72.97 430.01 72.97 429.45C73.52 429.45 72.97 430.97 72.42 430.56ZM72.84 378.4C71.87 377.43 73.53 376.74 73.95 376.05C74.64 377.02 72.84 377.43 72.84 378.4ZM74.5 429.45H73.53C73.39 428.48 74.22 428.9 74.22 428.2C74.77 428.61 73.94 428.89 74.5 429.45ZM73.53 383.65L74.22 432.08L74.78 432.91C73.26 434.43 76.3 432.36 74.78 432.77V432.91L73.53 383.65ZM74.5 424.89L74.78 428.62L75.05 374.94V431.25L75.33 426.96L75.61 428.9L76.16 374.11L77.54 424.33L78.65 372.86H78.1C78.1 373.28 78.24 373.55 78.52 373.83C78.52 373.14 78.52 372.86 78.66 372.86L74.5 424.89ZM78.51 429.45C78.09 429.45 78.51 429.86 78.51 429.45C78.65 429.45 79.89 429.45 79.2 428.9C79.2 429.45 78.65 428.9 78.51 428.9V429.45ZM80.73 425.3V425.44C80.73 425.533 80.6833 425.58 80.59 425.58C80.59 425.17 80.59 425.03 80.73 425.3ZM80.73 425.3L81.42 429.45L83.22 421.29C84.33 421.71 83.08 422.81 82.11 423.23C82.11 421.98 83.22 421.98 83.22 421.29L80.73 425.3ZM82.52 430.56C83.07 430.56 83.21 429.45 82.8 429.45V429.73C82.8 429.87 82.66 429.87 82.52 429.87V430.56ZM83.91 424.33C83.91 424.75 83.77 424.33 83.22 424.75C83.22 424.33 83.77 424.33 83.91 424.33ZM83.77 423.64L83.91 455.05L84.32 427.52C84.32 426.97 84.87 427.1 84.87 426.69C85.42 426.69 84.87 427.94 84.32 427.52L83.77 423.64ZM84.88 425.3L85.01 422.4L85.43 420.87C84.32 420.45 85.98 419.76 86.54 419.76C86.54 420.45 85.57 420.45 85.43 420.87L84.88 425.3ZM85.98 421.98C85.01 421.84 85.98 420.87 86.53 421.29C86.53 421.71 85.98 421.57 85.98 421.98ZM85.98 427.79L86.54 423.64L88.34 454.63C88.34 455.18 87.92 454.08 87.23 454.63C87.23 455.18 87.65 455.18 87.65 455.74C88.2 455.74 88.76 455.05 88.34 454.63L85.98 427.79ZM87.64 422.67L87.92 367.05V368.16L89.17 366.5C89.0767 366.5 89.03 366.547 89.03 366.64C89.31 366.5 89.45 366.5 89.45 366.5H89.17L87.64 422.67ZM89.03 454.36L90.55 365.8L98.71 363.04V362.63H98.16V363.04H98.71L89.03 454.36ZM98.71 364.84V364.42H98.16V364.84H98.71ZM99.4 362.21C99.4 362.21 99.4 362.35 99.26 362.62C99.54 363.17 99.4 362.07 99.4 362.21ZM99.54 363.73C99.96 363.31 100.23 363.87 100.23 363.45C99.81 363.45 99.54 363.59 99.54 363.73ZM102.03 363.45C101.62 363.03 100.78 363.17 100.92 364.14C101.34 364.14 101.75 363.86 102.03 363.45ZM102.03 449.52C102.03 448.97 102.58 449.38 102.03 449.52C101.89 449.52 102.03 449.94 102.03 449.52ZM103.28 363.31V362.62H102.86V363.31H103.28ZM103 361.93L103.97 362.62L105.08 362.35C105.08 362.77 103.97 362.07 104.39 363.04C104.8 363.04 106.05 362.76 105.08 362.35L103 361.93ZM105.49 448.13C105.91 447.71 106.18 448.13 106.18 447.71C105.76 447.71 105.49 447.85 105.49 448.13ZM107.29 362.35C107.29 361.66 107.29 361.38 107.15 361.38C107.15 362.07 105.9 361.93 105.9 362.63C106.87 362.22 106.73 362.77 107.28 362.35H107.29ZM107.84 361.38C108.26 361.24 108.53 361.1 108.53 361.24C108.12 361.24 107.84 361.24 107.84 361.38ZM108.81 361.93H108.26C108.26 362.07 107.84 361.93 107.84 362.34C108.53 362.34 108.81 362.2 108.81 361.93ZM109.09 362.07V446.06L111.3 444.4C110.47 444.4 109.92 444.81 109.64 445.78C110.61 445.36 111.3 445.5 111.3 444.4L109.09 362.07ZM110.47 361.93H111.3L111.86 444.12C111.86 443.01 112.97 444.54 111.86 444.12C111.17 444.12 112.28 445.23 111.86 444.12L110.47 361.93ZM115.87 361.24C115.87 359.72 114.07 360.82 113.52 361.24C114.77 361.24 115.18 360.82 115.87 361.24ZM114.76 358.61C114.34 358.61 114.07 358.75 114.07 359.16C114.48 359.16 114.76 359.02 114.76 358.61Z" fill="black"/>
<path d="M114.2 442.74C114.34 442.04 114.76 442.04 115.31 442.46C115.72 441.9 115.31 441.35 115.86 441.35C120.71 442.46 123.2 436.1 127.07 434.02C127.49 433.05 126.11 433.46 126.52 432.77C126.66 432.5 126.93 432.36 127.35 432.36C127.35 432.77 127.07 432.77 127.07 433.19C128.59 432.22 128.04 430.98 129.01 429.87L129.02 429.91H128.47C129.58 428.94 129.44 428.25 130.55 427.56C130.69 426.59 129.58 427.01 130 426.04C130.69 425.63 130.14 424.8 130.69 423.69C131.11 400.03 103.02 393.39 86 386.75C92.36 378.58 105.23 375.96 115.19 372.22C114.22 371.81 114.08 372.78 113.53 371.81C117.95 369.74 121.41 369.32 125.98 370.43C127.5 370.84 129.16 372.92 131.93 371.12C131.93 369.32 131.24 368.91 132.21 367.66C131.52 367.24 131.38 366.55 131.66 365.58C130.14 365.17 130 363.78 129.45 363.09C128.9 363.09 128.62 363.09 128.48 362.95L128.2 362.67C127.5 360.04 123.21 361.14 122.8 358.93C115.05 356.85 107.16 359.2 98.72 361.97C92.22 363.49 87.23 367.09 81.7 370.41C79.62 371.52 77.27 372.07 76.16 374.15C74.63 376.22 73.67 378.3 71.59 379.82C72.01 380.24 71.59 382.17 72.84 382.59C72.84 381.48 72.29 381.07 72.29 380.1C72.84 380.51 73.95 381.76 72.98 383.28C72.98 383.14 72.84 383 72.84 382.86V382.58C72.84 384.38 72.28 382.02 71.87 383.27C72.29 383.69 71.59 384.8 72.84 385.35C72.42 386.87 72.98 387.56 72.84 389.36C74.36 391.02 75.47 392.68 76.44 395.03C79.35 396.13 80.31 399.04 83.22 399.73C88.75 403.74 94.01 405.81 101.62 407.06C105.91 409.69 110.75 411.21 115.32 414.12C116.42 417.44 112.83 419.52 112.41 421.87C105.91 427.54 98.44 431.97 90.55 436.26C87.09 437.09 82.8 440.69 78.1 440.69C79.21 439.58 79.62 436.26 81.42 436.95C81.56 435.98 81.42 435.15 80.73 434.46C82.25 432.94 82.81 431 84.33 430.03C83.91 429.48 83.91 428.64 84.88 428.23C83.77 427.81 84.05 428.92 83.08 428.92C83.91 428.09 82.53 426.98 83.91 426.01C82.25 425.32 81.97 428.64 80.73 428.92M114.2 442.74C114.06 441.77 114.06 442.74 114.2 442.74ZM114.2 442.74C114.2 443.15 114.75 443.15 115.31 443.57C111.57 445.78 106.18 450.49 102.86 449.8C100.51 452.43 96.5 453.95 92.21 454.64C91.79 455.19 90.13 456.72 89.44 455.61C88.47 457.13 83.77 456.58 80.72 456.86C81.41 456.72 82.1 455.2 83.07 455.61C83.21 454.36 82.65 454.64 81.69 454.64C81.69 455.19 81.83 455.19 81.83 455.75C78.37 456.86 75.88 454.78 72.28 454.09V453.67C72.28 453.577 72.3267 453.483 72.42 453.39M72.42 453.39C72.84 453.94 72.84 453.39 73.53 453.94C73.53 453.25 72.42 452.83 72.42 453.39ZM72.42 453.39C69.38 453.39 68.13 449.38 64.81 449.38C64.81 447.17 62.6 446.61 62.04 446.06C62.04 444.81 63.15 446.48 63.7 446.06L61.49 443.85C61.49 442.88 61.91 444.27 62.6 443.85C61.49 442.88 60.94 442.47 61.49 440.67C61.49 440.81 61.49 440.95 61.63 441.09C61.77 441.51 61.91 441.78 61.91 441.92C61.49 439.71 63.29 439.01 63.85 437.22C65.37 438.19 64.96 436.11 65.37 435.14C66.06 435.14 64.95 436.11 65.65 436.11C67.17 435 65.93 431.27 68.14 431.27C68.14 430.58 67.86 430.58 67.86 430.02C68.41 431.27 69.11 429.47 69.52 429.47C70.49 427.81 71.04 426.84 72.29 425.87C71.88 426.98 70.63 427.12 70.63 428.91M70.63 428.91C69.52 428.49 70.63 429.46 70.63 428.91ZM70.63 428.91C71.32 428.22 71.88 427.53 72.43 426.97C72.85 428.63 70.22 429.46 70.63 430.57M70.63 430.57H70.49V430.71L70.63 430.57ZM70.63 430.57C71.6 431.68 71.32 429.88 72.29 430.02C71.6 430.99 72.43 431.82 71.88 432.93H71.6M71.6 432.93V432.38C71.18 432.38 71.18 432.93 71.6 432.93ZM71.6 432.93C71.6 433.023 71.5533 433.07 71.46 433.07C71.32 433.21 71.18 433.21 71.04 433.21C71.04 433.63 71.18 433.9 71.59 434.04C71.59 434.45 71.87 434.45 71.87 434.59C72.28 434.04 73.39 432.93 72.84 432.38C72.84 431.27 73.39 432.93 73.39 432.1C73.53 432.1 73.53 432.38 73.53 432.93C73.39 432.93 73.39 433.07 73.39 433.48C73.39 433.48 73.39 433.34 73.53 433.2V432.92C73.95 432.78 74.22 432.51 74.22 432.09C74.64 430.98 74.91 430.98 74.5 429.88C77.13 429.88 76.02 427.8 78.1 427.8C77.55 427.11 77.55 426.69 78.1 426.42H78.52M78.52 426.42C78.1 427.53 79.21 426.42 78.52 426.42ZM78.52 426.42C78.52 425.45 79.35 425.31 79.35 424.76C79.9 424.76 78.8 426.01 80.6 425.59V426.01M80.6 426.01C79.35 426.43 78.52 427.26 78.11 428.22M80.6 426.01C79.91 427.11 79.08 427.8 78.11 428.22M80.6 426.01C80.74 425.87 81.01 425.73 81.01 424.76C81.98 425.31 81.7 424.76 82.81 424.76C81.84 424.9 82.26 426.42 80.73 426.42V427.8L80.59 428.22M78.11 428.22C77.14 428.91 76.86 428.91 77.56 429.47M78.11 428.22C77.56 428.64 78.11 429.47 77.56 429.47M77.56 429.47C77.28 429.47 77.01 429.88 76.87 430.58C77.29 430.58 77.56 430.16 77.56 429.47ZM80.59 428.22C80.17 427.53 80.17 428.22 80.59 428.22ZM80.59 428.22C80.4967 428.313 80.45 428.407 80.45 428.5C80.31 428.64 80.31 428.78 80.31 428.92C80.31 429.47 80.59 428.92 80.73 428.92M80.73 428.92C80.73 429.34 80.87 429.47 81.01 429.47M80.73 428.92L81.01 429.47M81.01 429.47C81.01 430.02 80.73 430.02 80.73 430.99C81.42 430.57 81.42 430.02 81.84 429.88C81.84 429.6 81.56 429.47 81.01 429.47ZM64.4 432.36L63.84 448.96V433.88L64.4 432.36ZM64.4 432.36C64.82 431.67 64.82 430.56 64.95 430.56M64.4 432.36C64.95 432.36 64.95 430.98 64.95 430.56M64.95 430.56C65.65 430.56 65.92 429.45 65.37 429.45C65.09 429.45 64.95 429.87 64.95 430.56ZM66.06 432.77L65.64 433.46L64.95 434.99L66.06 432.77ZM66.06 432.77C65.37 432.36 66.61 431.94 66.06 430.97C67.17 430.55 66.06 432.08 66.06 432.77ZM67.86 429.45C66.89 429.45 66.62 430.56 67.03 430.56C67.17 430 67.72 429.86 67.86 429.45ZM67.86 429.45C67.72 428.2 68.83 428.76 68.41 427.79C69.1 427.79 68.41 429.45 67.86 429.45ZM69.38 432.08C69.38 432.49 69.24 432.77 68.83 432.77V432.08H69.38ZM69.38 432.08C69.52 431.66 70.63 431.66 69.93 431.25C69.51 431.67 69.38 431.94 69.38 432.08ZM72.42 425.3V430.56M72.42 430.56C72.84 430.01 72.97 430.01 72.97 429.45C73.52 429.45 72.97 430.97 72.42 430.56ZM74.78 432.91L74.22 432.08L73.53 383.65L74.78 432.91ZM74.78 432.91C73.26 434.43 76.3 432.36 74.78 432.77V432.91ZM78.51 429.45C78.09 429.45 78.51 429.86 78.51 429.45ZM78.51 429.45C78.65 429.45 79.89 429.45 79.2 428.9C79.2 429.45 78.65 428.9 78.51 428.9V429.45ZM79.89 433.46L80.73 425.3M80.73 425.3V425.44C80.73 425.533 80.6833 425.58 80.59 425.58C80.59 425.17 80.59 425.03 80.73 425.3ZM80.73 425.3L81.42 429.45L83.22 421.29M80.73 425.3L83.22 421.29M83.22 421.29C84.33 421.71 83.08 422.81 82.11 423.23M83.22 421.29C83.22 421.98 82.11 421.98 82.11 423.23M82.11 423.23L83.08 428.21H82.53M82.8 424.75L83.91 424.33M83.91 424.33C83.91 424.75 83.77 424.33 83.22 424.75C83.22 424.33 83.77 424.33 83.91 424.33ZM84.32 427.52L83.91 455.05L83.77 423.64L84.32 427.52ZM84.32 427.52C84.32 426.97 84.87 427.1 84.87 426.69C85.42 426.69 84.87 427.94 84.32 427.52ZM85.43 420.87L85.01 422.4L84.88 425.3L85.43 420.87ZM85.43 420.87C84.32 420.45 85.98 419.76 86.54 419.76C86.54 420.45 85.57 420.45 85.43 420.87ZM85.43 428.21L85.98 421.98M85.98 421.98C85.01 421.84 85.98 420.87 86.53 421.29C86.53 421.71 85.98 421.57 85.98 421.98ZM88.34 454.63L86.54 423.64L85.98 427.79L88.34 454.63ZM88.34 454.63C88.34 455.18 87.92 454.08 87.23 454.63C87.23 455.18 87.65 455.18 87.65 455.74C88.2 455.74 88.76 455.05 88.34 454.63ZM89.17 366.5L87.92 368.16V367.05L87.64 422.67L89.17 366.5ZM89.17 366.5C89.0767 366.5 89.03 366.547 89.03 366.64C89.31 366.5 89.45 366.5 89.45 366.5H89.17ZM98.71 363.04L90.55 365.8L89.03 454.36L98.71 363.04ZM98.71 363.04V362.63H98.16V363.04H98.71ZM102.03 449.52C102.03 448.97 102.58 449.38 102.03 449.52ZM102.03 449.52C101.89 449.52 102.03 449.94 102.03 449.52ZM105.08 362.35L103.97 362.62L103 361.93L105.08 362.35ZM105.08 362.35C105.08 362.77 103.97 362.07 104.39 363.04C104.8 363.04 106.05 362.76 105.08 362.35ZM105.08 448.13H105.49M105.49 448.13C105.91 447.71 106.18 448.13 106.18 447.71C105.76 447.71 105.49 447.85 105.49 448.13ZM111.3 444.4L109.09 446.06V362.07L111.3 444.4ZM111.3 444.4C110.47 444.4 109.92 444.81 109.64 445.78C110.61 445.36 111.3 445.5 111.3 444.4ZM111.86 444.12L111.3 361.93H110.47L111.86 444.12ZM111.86 444.12C111.86 443.01 112.97 444.54 111.86 444.12ZM111.86 444.12C111.17 444.12 112.28 445.23 111.86 444.12ZM69.52 433.19C69.11 433.19 68.83 433.47 68.83 433.88C69.24 433.88 69.52 433.6 69.52 433.19ZM71.32 382.96L71.59 434.02L71.87 453.25L72.42 425.58C72.42 425.673 72.3733 425.767 72.28 425.86C72.28 425.44 72.28 425.31 72.42 425.31V425.59L71.32 382.96ZM72.42 429.87C72.28 428.62 72.97 427.79 74.22 427.1C73.25 428.21 72.84 428.9 72.42 429.87ZM72.84 378.4C71.87 377.43 73.53 376.74 73.95 376.05C74.64 377.02 72.84 377.43 72.84 378.4ZM74.5 429.45H73.53C73.39 428.48 74.22 428.9 74.22 428.2C74.77 428.61 73.94 428.89 74.5 429.45ZM74.5 424.89L74.78 428.62L75.05 374.94V431.25L75.33 426.96L75.61 428.9L76.16 374.11L77.54 424.33L78.65 372.86H78.1C78.1 373.28 78.24 373.55 78.52 373.83C78.52 373.14 78.52 372.86 78.66 372.86L74.5 424.89ZM82.52 430.56C83.07 430.56 83.21 429.45 82.8 429.45V429.73C82.8 429.87 82.66 429.87 82.52 429.87V430.56ZM98.71 364.84V364.42H98.16V364.84H98.71ZM99.4 362.21C99.4 362.21 99.4 362.35 99.26 362.62C99.54 363.17 99.4 362.07 99.4 362.21ZM99.54 363.73C99.96 363.31 100.23 363.87 100.23 363.45C99.81 363.45 99.54 363.59 99.54 363.73ZM102.03 363.45C101.62 363.03 100.78 363.17 100.92 364.14C101.34 364.14 101.75 363.86 102.03 363.45ZM103.28 363.31V362.62H102.86V363.31H103.28ZM107.29 362.35C107.29 361.66 107.29 361.38 107.15 361.38C107.15 362.07 105.9 361.93 105.9 362.63C106.87 362.22 106.73 362.77 107.28 362.35H107.29ZM107.84 361.38C108.26 361.24 108.53 361.1 108.53 361.24C108.12 361.24 107.84 361.24 107.84 361.38ZM108.81 361.93H108.26C108.26 362.07 107.84 361.93 107.84 362.34C108.53 362.34 108.81 362.2 108.81 361.93ZM115.87 361.24C115.87 359.72 114.07 360.82 113.52 361.24C114.77 361.24 115.18 360.82 115.87 361.24ZM114.76 358.61C114.34 358.61 114.07 358.75 114.07 359.16C114.48 359.16 114.76 359.02 114.76 358.61Z" stroke="black" stroke-width="1.12" stroke-miterlimit="10"/>
<path d="M192.52 384.21C192.24 384.21 192.1 384.35 192.1 384.76C191.13 384.21 191.41 385.31 190.85 385.31C190.85 383.79 191.4 384.2 191.4 381.44C191.95 381.44 192.09 381.86 192.51 381.86C192.51 379.65 190.3 379.65 191.4 377.16C192.09 377.85 192.09 378.96 192.65 379.65C193.76 378.54 193.06 376.05 192.51 375.64C193.76 374.67 193.76 377.16 194.72 377.85C195.14 377.85 195.14 377.16 195.55 377.16C195.55 376.05 194.58 376.05 194.17 374.95C194.17 374.54 194.58 374.67 195 374.54C195 373.43 193.75 374.12 194.17 372.88C195.28 372.74 196.11 375.23 196.66 376.75C196.66 375.64 197.77 374.26 197.77 373.84C199.29 373.42 198.46 377.99 199.98 378.41V379.79C201.09 380.9 200.39 382.28 201.5 382.97C201.91 383.66 201.08 383.52 201.08 384.22C201.36 384.5 201.91 384.64 202.74 384.64C201.63 389.21 204.4 393.91 201.22 397.51C201.22 397.79 201.63 397.93 202.33 397.93C201.78 405.68 198.73 412.18 197.76 418.41C196.51 421.87 194.3 424.36 193.33 428.23C189.59 433.21 187.38 439.3 182.26 442.76C181.84 443.73 181.71 443.73 181.29 444.7C181.15 444.7 180.6 444.98 180.04 444.98C178.93 449.55 171.46 448.44 170.35 451.62C169.93 451.62 169.66 451.48 169.66 451.2C166.2 453.97 158.87 453.97 154.3 452.31C152.64 452.86 151.39 452.17 150.29 452.31C150.29 451.9 149.46 452.17 149.88 451.62C149.19 451.62 149.19 452.31 148.5 451.9C142.55 448.99 139.51 443.32 137.29 436.82C130.23 419.8 134.38 399.18 139.92 383.69C140.06 379.82 142.13 377.88 142.13 373.45C143.65 371.79 143.93 369.3 146.7 369.99C147.39 370.41 147.25 370.96 147.67 371.51C148.64 370.54 148.78 370.54 150.3 370.96C151.41 373.59 154.73 373.45 155.42 375.66C155.42 377.87 155.42 378.43 156.53 379.12C155.28 386.45 154.18 394.62 151.96 401.4C151.41 406.8 150.99 412.61 150.99 418C152.1 424.5 152.51 430.87 156.52 435.71V436.82C157.63 437.93 158.87 439.17 160.12 440.14C165.52 438.34 168.01 434.19 172.43 431.28C177.27 422.98 182.39 415.23 185.71 405.82C185.02 403.61 186.96 401.39 187.92 399.73C187.92 399.18 186.95 399.59 187.37 399.04C188.62 399.04 188.2 396.96 189.17 396.27C189.03 395.85 188.06 395.85 188.48 394.61C188.9 395.86 189.86 394.47 189.86 395.86C190.69 395.17 191.38 393.92 191.94 392.4C190.83 391.98 190.28 394.06 190.83 394.48C190.83 395.03 189.17 394.62 189.03 394.48C189.03 393.79 189.17 392.96 190.14 393.37C190.14 392.12 188.76 392.82 189.17 391.29C190.14 390.87 189.59 391.98 190.14 392.4C191.11 392.4 190.83 391.57 190.83 390.6C190.28 389.91 190.14 391.57 189.17 391.02C190.83 389.91 189.86 388.11 191.38 387.15C191.93 388.4 190.83 388.95 191.24 390.06C192.49 388.4 191.93 386.05 192.07 384.8C192.62 385.91 192.62 384.38 192.49 384.25L192.52 384.21ZM151.01 422.67C150.87 422.26 150.87 422.67 151.01 422.67C151.43 422.67 151.43 423.22 151.01 422.67ZM182.7 417.97C182.29 418.38 183.39 419.35 183.39 418.38C182.97 418.38 183.11 417.97 182.7 417.97ZM189.62 396.94C189.62 396.8 190.03 396.8 189.62 396.94C188.65 396.94 190.03 398.05 189.62 396.94ZM190.31 401.36C189.89 401.36 189.62 401.91 189.62 402.05C190.03 402.05 190.31 401.77 190.31 401.36ZM190.17 403.02V402.47H189.62V403.02H190.17ZM190.31 382.13C189.89 382.13 190.17 380.75 190.31 380.33C191.28 380.74 190.31 381.44 190.31 382.13ZM190.86 395.14C190.17 395.83 190.31 397.22 190.17 397.91C190.86 397.49 191.97 395.14 190.86 395.14ZM190.17 398.32C190.31 398.32 190.86 399.01 190.86 398.32C190.86 397.9 190.17 397.9 190.17 398.32ZM191 386.97C190.03 386.56 190.86 386 190.86 385.59C191.41 386.01 191 386.42 191 386.97ZM195.01 422.4C195.01 421.85 195.84 420.88 194.73 420.88C195.28 421.99 193.76 421.29 193.76 421.85C194.45 421.85 194.04 422.82 195.01 422.4ZM194.74 422.67L194.46 422.95C194.05 423.64 195.71 423.09 195.29 422.67C195.15 422.53 194.87 422.53 194.74 422.67ZM196.67 373.83H197.22V374.52H196.67V373.83ZM200.41 402.47C201.1 403.02 201.24 401.36 200.69 401.36C200.69 401.77 200.55 401.91 200.41 401.91V402.46V402.47ZM201.24 387.8C201.24 388.77 201.38 389.32 201.79 389.32C202.34 388.35 202.34 388.21 201.24 387.8ZM202.35 393.75C201.66 393.75 201.24 394.03 201.24 394.44C201.93 394.44 202.35 394.16 202.35 393.75Z" fill="black"/>
<path d="M151.01 422.67C150.87 422.26 150.87 422.67 151.01 422.67ZM151.01 422.67C151.43 422.67 151.43 423.22 151.01 422.67ZM189.62 396.94C189.62 396.8 190.03 396.8 189.62 396.94ZM189.62 396.94C188.65 396.94 190.03 398.05 189.62 396.94ZM189.62 399.57L190.31 401.36M190.31 401.36C189.89 401.36 189.62 401.91 189.62 402.05C190.03 402.05 190.31 401.77 190.31 401.36ZM190.31 387.53L191 386.97M191 386.97C190.03 386.56 190.86 386 190.86 385.59C191.41 386.01 191 386.42 191 386.97ZM193.08 381.16L195.01 422.4M195.01 422.4C195.01 421.85 195.84 420.88 194.73 420.88C195.28 421.99 193.76 421.29 193.76 421.85C194.45 421.85 194.04 422.82 195.01 422.4ZM192.52 384.21C192.24 384.21 192.1 384.35 192.1 384.76C191.13 384.21 191.41 385.31 190.85 385.31C190.85 383.79 191.4 384.2 191.4 381.44C191.95 381.44 192.09 381.86 192.51 381.86C192.51 379.65 190.3 379.65 191.4 377.16C192.09 377.85 192.09 378.96 192.65 379.65C193.76 378.54 193.06 376.05 192.51 375.64C193.76 374.67 193.76 377.16 194.72 377.85C195.14 377.85 195.14 377.16 195.55 377.16C195.55 376.05 194.58 376.05 194.17 374.95C194.17 374.54 194.58 374.67 195 374.54C195 373.43 193.75 374.12 194.17 372.88C195.28 372.74 196.11 375.23 196.66 376.75C196.66 375.64 197.77 374.26 197.77 373.84C199.29 373.42 198.46 377.99 199.98 378.41V379.79C201.09 380.9 200.39 382.28 201.5 382.97C201.91 383.66 201.08 383.52 201.08 384.22C201.36 384.5 201.91 384.64 202.74 384.64C201.63 389.21 204.4 393.91 201.22 397.51C201.22 397.79 201.63 397.93 202.33 397.93C201.78 405.68 198.73 412.18 197.76 418.41C196.51 421.87 194.3 424.36 193.33 428.23C189.59 433.21 187.38 439.3 182.26 442.76C181.84 443.73 181.71 443.73 181.29 444.7C181.15 444.7 180.6 444.98 180.04 444.98C178.93 449.55 171.46 448.44 170.35 451.62C169.93 451.62 169.66 451.48 169.66 451.2C166.2 453.97 158.87 453.97 154.3 452.31C152.64 452.86 151.39 452.17 150.29 452.31C150.29 451.9 149.46 452.17 149.88 451.62C149.19 451.62 149.19 452.31 148.5 451.9C142.55 448.99 139.51 443.32 137.29 436.82C130.23 419.8 134.38 399.18 139.92 383.69C140.06 379.82 142.13 377.88 142.13 373.45C143.65 371.79 143.93 369.3 146.7 369.99C147.39 370.41 147.25 370.96 147.67 371.51C148.64 370.54 148.78 370.54 150.3 370.96C151.41 373.59 154.73 373.45 155.42 375.66C155.42 377.87 155.42 378.43 156.53 379.12C155.28 386.45 154.18 394.62 151.96 401.4C151.41 406.8 150.99 412.61 150.99 418C152.1 424.5 152.51 430.87 156.52 435.71V436.82C157.63 437.93 158.87 439.17 160.12 440.14C165.52 438.34 168.01 434.19 172.43 431.28C177.27 422.98 182.39 415.23 185.71 405.82C185.02 403.61 186.96 401.39 187.92 399.73C187.92 399.18 186.95 399.59 187.37 399.04C188.62 399.04 188.2 396.96 189.17 396.27C189.03 395.85 188.06 395.85 188.48 394.61C188.9 395.86 189.86 394.47 189.86 395.86C190.69 395.17 191.38 393.92 191.94 392.4C190.83 391.98 190.28 394.06 190.83 394.48C190.83 395.03 189.17 394.62 189.03 394.48C189.03 393.79 189.17 392.96 190.14 393.37C190.14 392.12 188.76 392.82 189.17 391.29C190.14 390.87 189.59 391.98 190.14 392.4C191.11 392.4 190.83 391.57 190.83 390.6C190.28 389.91 190.14 391.57 189.17 391.02C190.83 389.91 189.86 388.11 191.38 387.15C191.93 388.4 190.83 388.95 191.24 390.06C192.49 388.4 191.93 386.05 192.07 384.8C192.62 385.91 192.62 384.38 192.49 384.25L192.52 384.21ZM182.7 417.97C182.29 418.38 183.39 419.35 183.39 418.38C182.97 418.38 183.11 417.97 182.7 417.97ZM190.17 403.02V402.47H189.62V403.02H190.17ZM190.31 382.13C189.89 382.13 190.17 380.75 190.31 380.33C191.28 380.74 190.31 381.44 190.31 382.13ZM190.86 395.14C190.17 395.83 190.31 397.22 190.17 397.91C190.86 397.49 191.97 395.14 190.86 395.14ZM190.17 398.32C190.31 398.32 190.86 399.01 190.86 398.32C190.86 397.9 190.17 397.9 190.17 398.32ZM194.74 422.67L194.46 422.95C194.05 423.64 195.71 423.09 195.29 422.67C195.15 422.53 194.87 422.53 194.74 422.67ZM196.67 373.83H197.22V374.52H196.67V373.83ZM200.41 402.47C201.1 403.02 201.24 401.36 200.69 401.36C200.69 401.77 200.55 401.91 200.41 401.91V402.46V402.47ZM201.24 387.8C201.24 388.77 201.38 389.32 201.79 389.32C202.34 388.35 202.34 388.21 201.24 387.8ZM202.35 393.75C201.66 393.75 201.24 394.03 201.24 394.44C201.93 394.44 202.35 394.16 202.35 393.75Z" stroke="black" stroke-width="1.12" stroke-miterlimit="10"/>
<path d="M264.33 429.87C263.36 430.98 263.92 432.22 262.39 433.19C262.39 432.77 262.67 432.77 262.67 432.36C262.26 432.36 261.98 432.5 261.84 432.77C261.42 433.46 262.81 433.05 262.39 434.02C258.52 436.1 256.03 442.46 251.18 441.35C250.63 441.35 251.04 441.9 250.63 442.46C250.08 442.04 249.66 442.04 249.52 442.74C249.38 441.77 249.38 442.74 249.52 442.74C249.52 443.15 250.07 443.15 250.63 443.57C246.89 445.78 241.5 450.49 238.18 449.8C235.83 452.43 231.82 453.95 227.53 454.64C227.11 455.19 225.45 456.72 224.76 455.61C223.79 457.13 219.09 456.58 216.04 456.86C216.73 456.72 217.42 455.2 218.39 455.61C218.53 454.36 217.98 454.64 217.01 454.64C217.01 455.19 217.15 455.19 217.15 455.75C213.69 456.86 211.2 454.78 207.6 454.09V453.67C207.6 453.577 207.647 453.483 207.74 453.39C208.15 453.94 208.15 453.39 208.85 453.94C208.85 453.25 207.74 452.83 207.74 453.39C204.7 453.39 203.45 449.38 200.13 449.38C200.13 447.17 197.92 446.61 197.36 446.06C197.36 444.81 198.47 446.48 199.02 446.06L196.81 443.85C196.81 442.88 197.23 444.27 197.92 443.85C196.81 442.88 196.26 442.47 196.81 440.67C196.81 440.81 196.81 440.95 196.95 441.09C197.09 441.51 197.23 441.78 197.23 441.92C196.81 439.71 198.61 439.01 199.17 437.22C200.69 438.19 200.28 436.11 200.69 435.14C201.38 435.14 200.28 436.11 200.97 436.11C202.49 435 201.25 431.27 203.46 431.27C203.46 430.58 203.18 430.58 203.18 430.02C203.73 431.27 204.43 429.47 204.84 429.47C205.81 427.81 206.36 426.84 207.61 425.87C207.19 426.98 205.95 427.12 205.95 428.91C204.84 428.49 205.95 429.46 205.95 428.91C206.64 428.22 207.2 427.53 207.75 426.97C208.16 428.63 205.54 429.46 205.95 430.57H205.81V430.71L205.95 430.57C206.92 431.68 206.64 429.88 207.61 430.02C206.92 430.99 207.75 431.82 207.19 432.93H206.91V432.38C206.49 432.38 206.49 432.93 206.91 432.93C206.91 433.023 206.863 433.07 206.77 433.07C206.63 433.21 206.49 433.21 206.35 433.21C206.35 433.63 206.49 433.9 206.9 434.04C206.9 434.45 207.18 434.45 207.18 434.59C207.6 434.04 208.7 432.93 208.15 432.38C208.15 431.27 208.7 432.93 208.7 432.1C208.84 432.1 208.84 432.38 208.84 432.93C208.7 432.93 208.7 433.07 208.7 433.48C208.7 433.48 208.7 433.34 208.84 433.2V432.92C209.26 432.78 209.53 432.51 209.53 432.09C209.95 430.98 210.22 430.98 209.81 429.88C212.44 429.88 211.33 427.8 213.41 427.8C212.86 427.11 212.86 426.69 213.41 426.42H213.82C213.41 427.53 214.51 426.42 213.82 426.42C213.82 425.45 214.65 425.31 214.65 424.76C215.2 424.76 214.1 426.01 215.9 425.59V426.01C214.65 426.43 213.82 427.26 213.41 428.22C212.44 428.91 212.16 428.91 212.86 429.47C212.58 429.47 212.31 429.88 212.17 430.58C212.58 430.58 212.86 430.16 212.86 429.47C213.41 429.47 212.86 428.64 213.41 428.22C214.38 427.8 215.21 427.11 215.9 426.01C216.04 425.87 216.32 425.73 216.32 424.76C217.29 425.31 217.01 424.76 218.12 424.76C217.15 424.9 217.57 426.42 216.04 426.42V427.8L215.9 428.22C215.48 427.53 215.48 428.22 215.9 428.22C215.807 428.313 215.76 428.407 215.76 428.5C215.62 428.64 215.62 428.78 215.62 428.92C215.62 429.47 215.9 428.92 216.04 428.92C216.04 429.34 216.18 429.47 216.32 429.47C216.32 430.02 216.04 430.02 216.04 430.99C216.73 430.57 216.73 430.02 217.15 429.88C217.15 429.6 216.87 429.47 216.32 429.47L216.04 428.92C217.29 428.64 217.56 425.32 219.22 426.01C217.84 426.98 219.22 428.09 218.39 428.92C219.36 428.92 219.08 427.81 220.19 428.23C219.22 428.64 219.22 429.48 219.64 430.03C218.12 431 217.56 432.94 216.04 434.46C216.73 435.15 216.87 435.98 216.73 436.95C214.93 436.26 214.52 439.58 213.41 440.69C218.11 440.69 222.4 437.09 225.86 436.26C233.75 431.97 241.22 427.54 247.72 421.87C248.14 419.52 251.73 417.44 250.63 414.12C246.06 411.21 241.22 409.69 236.93 407.06C229.32 405.81 224.06 403.74 218.53 399.73C215.62 399.04 214.66 396.13 211.75 395.03C210.78 392.68 209.67 391.02 208.15 389.36C208.29 387.56 207.74 386.87 208.15 385.35C206.9 384.8 207.6 383.69 207.18 383.27C207.6 382.02 208.15 384.38 208.15 382.58V382.86C208.15 383 208.29 383.14 208.29 383.28C209.26 381.76 208.15 380.51 207.6 380.1C207.6 381.07 208.15 381.48 208.15 382.59C206.9 382.17 207.32 380.24 206.9 379.82C208.98 378.3 209.94 376.22 211.47 374.15C212.58 372.07 214.93 371.52 217 370.41C222.54 367.09 227.52 363.49 234.02 361.97C242.46 359.2 250.35 356.85 258.1 358.93C258.52 361.14 262.8 360.04 263.5 362.67L263.78 362.95C263.92 363.09 264.19 363.09 264.75 363.09C265.3 363.78 265.44 365.17 266.96 365.58C266.68 366.55 266.82 367.24 267.51 367.66C266.54 368.91 267.23 369.32 267.23 371.12C264.46 372.92 262.8 370.84 261.28 370.43C256.71 369.32 253.26 369.74 248.83 371.81C249.38 372.78 249.52 371.81 250.49 372.22C240.53 375.96 227.66 378.58 221.29 386.75C238.31 393.39 266.4 400.03 265.98 423.69C265.43 424.8 265.98 425.63 265.29 426.04C264.87 427.01 265.98 426.59 265.84 427.56C264.73 428.25 264.87 428.94 263.76 429.91H264.31L264.33 429.87ZM199.16 433.88V448.96L199.72 432.36C200.14 431.67 200.14 430.56 200.27 430.56C200.27 430.98 200.27 432.36 199.72 432.36L199.16 433.88ZM200.68 429.45C201.23 429.45 200.96 430.56 200.27 430.56C200.27 429.87 200.41 429.45 200.68 429.45ZM200.27 434.99L200.96 433.46L201.38 432.77C200.69 432.36 201.93 431.94 201.38 430.97C202.49 430.55 201.38 432.08 201.38 432.77L200.27 434.99ZM202.34 430.56C201.93 430.56 202.2 429.45 203.17 429.45C203.03 429.86 202.48 430 202.34 430.56ZM203.18 429.45C203.04 428.2 204.15 428.76 203.73 427.79C204.42 427.79 203.73 429.45 203.18 429.45ZM204.14 432.08V432.77C204.56 432.77 204.69 432.49 204.69 432.08C204.83 431.66 205.94 431.66 205.24 431.25C204.83 431.67 204.69 431.94 204.69 432.08H204.14ZM204.84 433.19C204.42 433.19 204.15 433.47 204.15 433.88C204.57 433.88 204.84 433.6 204.84 433.19ZM206.63 382.96L206.91 434.02L207.19 453.25L207.74 425.58C207.74 425.673 207.693 425.767 207.6 425.86C207.6 425.44 207.6 425.31 207.74 425.31V425.59L206.63 382.96ZM207.74 429.87C207.6 428.62 208.29 427.79 209.54 427.1C208.57 428.21 208.16 428.9 207.74 429.87ZM207.74 430.56C208.15 430.01 208.29 430.01 208.29 429.45C208.84 429.45 208.29 430.97 207.74 430.56ZM208.16 378.4C207.19 377.43 208.85 376.74 209.27 376.05C209.96 377.02 208.16 377.43 208.16 378.4ZM209.82 429.45H208.85C208.71 428.48 209.54 428.9 209.54 428.2C210.09 428.61 209.26 428.89 209.82 429.45ZM208.85 383.65L209.54 432.08L210.09 432.91C208.57 434.43 211.61 432.36 210.09 432.77V432.91L208.85 383.65ZM209.82 424.89L210.09 428.62L210.37 374.94V431.25L210.65 426.96L210.92 428.9L211.48 374.11L212.86 424.33L213.97 372.86H213.42C213.42 373.28 213.56 373.55 213.83 373.83C213.83 373.14 213.83 372.86 213.97 372.86L209.82 424.89ZM213.83 429.45C213.42 429.45 213.83 429.86 213.83 429.45C213.97 429.45 215.21 429.45 214.52 428.9C214.52 429.45 213.97 428.9 213.83 428.9V429.45ZM216.04 425.3V425.44C216.04 425.533 215.993 425.58 215.9 425.58C215.9 425.17 215.9 425.03 216.04 425.3ZM216.04 425.3L216.73 429.45L218.53 421.29C219.64 421.71 218.39 422.81 217.42 423.23C217.42 421.98 218.53 421.98 218.53 421.29L216.04 425.3ZM217.84 430.56C218.39 430.56 218.53 429.45 218.12 429.45V429.73C218.12 429.87 217.98 429.87 217.84 429.87V430.56ZM219.23 424.33C219.23 424.75 219.09 424.33 218.54 424.75C218.54 424.33 219.09 424.33 219.23 424.33ZM219.09 423.64L219.23 455.05L219.64 427.52C219.64 426.97 220.19 427.1 220.19 426.69C220.74 426.69 220.19 427.94 219.64 427.52L219.09 423.64ZM220.19 425.3L220.33 422.4L220.75 420.87C219.64 420.45 221.3 419.76 221.86 419.76C221.86 420.45 220.89 420.45 220.75 420.87L220.19 425.3ZM221.3 421.98C220.33 421.84 221.3 420.87 221.85 421.29C221.85 421.71 221.3 421.57 221.3 421.98ZM221.3 427.79L221.85 423.64L223.65 454.63C223.65 455.18 223.23 454.08 222.54 454.63C222.54 455.18 222.95 455.18 222.95 455.74C223.5 455.74 224.06 455.05 223.64 454.63L221.3 427.79ZM222.96 422.67L223.24 367.05V368.16L224.48 366.5C224.387 366.5 224.34 366.547 224.34 366.64C224.62 366.5 224.76 366.5 224.76 366.5H224.48L222.96 422.67ZM224.34 454.36L225.87 365.8L234.03 363.04V362.63H233.48V363.04H234.03L224.34 454.36ZM234.03 364.84V364.42H233.48V364.84H234.03ZM234.72 362.21C234.72 362.21 234.72 362.35 234.58 362.62C234.86 363.17 234.72 362.07 234.72 362.21ZM234.86 363.73C235.28 363.31 235.55 363.87 235.55 363.45C235.13 363.45 234.86 363.59 234.86 363.73ZM237.35 363.45C236.93 363.03 236.1 363.17 236.24 364.14C236.66 364.14 237.07 363.86 237.35 363.45ZM237.35 449.52C237.35 448.97 237.9 449.38 237.35 449.52C237.21 449.52 237.35 449.94 237.35 449.52ZM238.6 363.31V362.62H238.18V363.31H238.6ZM238.32 361.93L239.29 362.62L240.39 362.35C240.39 362.77 239.28 362.07 239.7 363.04C240.12 363.04 241.36 362.76 240.39 362.35L238.32 361.93ZM240.81 448.13C241.23 447.71 241.5 448.13 241.5 447.71C241.08 447.71 240.81 447.85 240.81 448.13ZM242.61 362.35C242.61 361.66 242.61 361.38 242.47 361.38C242.47 362.07 241.22 361.93 241.22 362.63C242.19 362.22 242.05 362.77 242.6 362.35H242.61ZM243.16 361.38C243.57 361.24 243.85 361.1 243.85 361.24C243.43 361.24 243.16 361.24 243.16 361.38ZM244.13 361.93H243.58C243.58 362.07 243.17 361.93 243.17 362.34C243.86 362.34 244.14 362.2 244.14 361.93H244.13ZM244.41 362.07V446.06L246.62 444.4C245.79 444.4 245.24 444.81 244.96 445.78C245.93 445.36 246.62 445.5 246.62 444.4L244.41 362.07ZM245.79 361.93H246.62L247.18 444.12C247.18 443.01 248.29 444.54 247.18 444.12C246.49 444.12 247.6 445.23 247.18 444.12L245.79 361.93ZM251.19 361.24C251.19 359.72 249.39 360.82 248.84 361.24C250.09 361.24 250.5 360.82 251.19 361.24ZM250.08 358.61C249.66 358.61 249.39 358.75 249.39 359.16C249.81 359.16 250.08 359.02 250.08 358.61Z" fill="black"/>
<path d="M249.52 442.74C249.66 442.04 250.08 442.04 250.63 442.46C251.04 441.9 250.63 441.35 251.18 441.35C256.03 442.46 258.52 436.1 262.39 434.02C262.81 433.05 261.42 433.46 261.84 432.77C261.98 432.5 262.26 432.36 262.67 432.36C262.67 432.77 262.39 432.77 262.39 433.19C263.92 432.22 263.36 430.98 264.33 429.87L264.31 429.91H263.76C264.87 428.94 264.73 428.25 265.84 427.56C265.98 426.59 264.87 427.01 265.29 426.04C265.98 425.63 265.43 424.8 265.98 423.69C266.4 400.03 238.31 393.39 221.29 386.75C227.66 378.58 240.53 375.96 250.49 372.22C249.52 371.81 249.38 372.78 248.83 371.81C253.26 369.74 256.71 369.32 261.28 370.43C262.8 370.84 264.46 372.92 267.23 371.12C267.23 369.32 266.54 368.91 267.51 367.66C266.82 367.24 266.68 366.55 266.96 365.58C265.44 365.17 265.3 363.78 264.75 363.09C264.19 363.09 263.92 363.09 263.78 362.95L263.5 362.67C262.8 360.04 258.52 361.14 258.1 358.93C250.35 356.85 242.46 359.2 234.02 361.97C227.52 363.49 222.54 367.09 217 370.41C214.93 371.52 212.58 372.07 211.47 374.15C209.94 376.22 208.98 378.3 206.9 379.82C207.32 380.24 206.9 382.17 208.15 382.59C208.15 381.48 207.6 381.07 207.6 380.1C208.15 380.51 209.26 381.76 208.29 383.28C208.29 383.14 208.15 383 208.15 382.86V382.58C208.15 384.38 207.6 382.02 207.18 383.27C207.6 383.69 206.9 384.8 208.15 385.35C207.74 386.87 208.29 387.56 208.15 389.36C209.67 391.02 210.78 392.68 211.75 395.03C214.66 396.13 215.62 399.04 218.53 399.73C224.06 403.74 229.32 405.81 236.93 407.06C241.22 409.69 246.06 411.21 250.63 414.12C251.73 417.44 248.14 419.52 247.72 421.87C241.22 427.54 233.75 431.97 225.86 436.26C222.4 437.09 218.11 440.69 213.41 440.69C214.52 439.58 214.93 436.26 216.73 436.95C216.87 435.98 216.73 435.15 216.04 434.46C217.56 432.94 218.12 431 219.64 430.03C219.22 429.48 219.22 428.64 220.19 428.23C219.08 427.81 219.36 428.92 218.39 428.92C219.22 428.09 217.84 426.98 219.22 426.01C217.56 425.32 217.29 428.64 216.04 428.92M249.52 442.74C249.38 441.77 249.38 442.74 249.52 442.74ZM249.52 442.74C249.52 443.15 250.07 443.15 250.63 443.57C246.89 445.78 241.5 450.49 238.18 449.8C235.83 452.43 231.82 453.95 227.53 454.64C227.11 455.19 225.45 456.72 224.76 455.61C223.79 457.13 219.09 456.58 216.04 456.86C216.73 456.72 217.42 455.2 218.39 455.61C218.53 454.36 217.98 454.64 217.01 454.64C217.01 455.19 217.15 455.19 217.15 455.75C213.69 456.86 211.2 454.78 207.6 454.09V453.67C207.6 453.577 207.647 453.483 207.74 453.39M207.74 453.39C208.15 453.94 208.15 453.39 208.85 453.94C208.85 453.25 207.74 452.83 207.74 453.39ZM207.74 453.39C204.7 453.39 203.45 449.38 200.13 449.38C200.13 447.17 197.92 446.61 197.36 446.06C197.36 444.81 198.47 446.48 199.02 446.06L196.81 443.85C196.81 442.88 197.23 444.27 197.92 443.85C196.81 442.88 196.26 442.47 196.81 440.67C196.81 440.81 196.81 440.95 196.95 441.09C197.09 441.51 197.23 441.78 197.23 441.92C196.81 439.71 198.61 439.01 199.17 437.22C200.69 438.19 200.28 436.11 200.69 435.14C201.38 435.14 200.28 436.11 200.97 436.11C202.49 435 201.25 431.27 203.46 431.27C203.46 430.58 203.18 430.58 203.18 430.02C203.73 431.27 204.43 429.47 204.84 429.47C205.81 427.81 206.36 426.84 207.61 425.87C207.19 426.98 205.95 427.12 205.95 428.91M205.95 428.91C204.84 428.49 205.95 429.46 205.95 428.91ZM205.95 428.91C206.64 428.22 207.2 427.53 207.75 426.97C208.16 428.63 205.54 429.46 205.95 430.57M205.95 430.57H205.81V430.71L205.95 430.57ZM205.95 430.57C206.92 431.68 206.64 429.88 207.61 430.02C206.92 430.99 207.75 431.82 207.19 432.93H206.91M206.91 432.93V432.38C206.49 432.38 206.49 432.93 206.91 432.93ZM206.91 432.93C206.91 433.023 206.863 433.07 206.77 433.07C206.63 433.21 206.49 433.21 206.35 433.21C206.35 433.63 206.49 433.9 206.9 434.04C206.9 434.45 207.18 434.45 207.18 434.59C207.6 434.04 208.7 432.93 208.15 432.38C208.15 431.27 208.7 432.93 208.7 432.1C208.84 432.1 208.84 432.38 208.84 432.93C208.7 432.93 208.7 433.07 208.7 433.48C208.7 433.48 208.7 433.34 208.84 433.2V432.92C209.26 432.78 209.53 432.51 209.53 432.09C209.95 430.98 210.22 430.98 209.81 429.88C212.44 429.88 211.33 427.8 213.41 427.8C212.86 427.11 212.86 426.69 213.41 426.42H213.82M213.82 426.42C213.41 427.53 214.51 426.42 213.82 426.42ZM213.82 426.42C213.82 425.45 214.65 425.31 214.65 424.76C215.2 424.76 214.1 426.01 215.9 425.59V426.01M215.9 426.01C214.65 426.43 213.82 427.26 213.41 428.22M215.9 426.01C215.21 427.11 214.38 427.8 213.41 428.22M215.9 426.01C216.04 425.87 216.32 425.73 216.32 424.76C217.29 425.31 217.01 424.76 218.12 424.76C217.15 424.9 217.57 426.42 216.04 426.42V427.8L215.9 428.22M213.41 428.22C212.44 428.91 212.16 428.91 212.86 429.47M213.41 428.22C212.86 428.64 213.41 429.47 212.86 429.47M212.86 429.47C212.58 429.47 212.31 429.88 212.17 430.58C212.58 430.58 212.86 430.16 212.86 429.47ZM215.9 428.22C215.48 427.53 215.48 428.22 215.9 428.22ZM215.9 428.22C215.807 428.313 215.76 428.407 215.76 428.5C215.62 428.64 215.62 428.78 215.62 428.92C215.62 429.47 215.9 428.92 216.04 428.92M216.04 428.92C216.04 429.34 216.18 429.47 216.32 429.47M216.04 428.92L216.32 429.47M216.32 429.47C216.32 430.02 216.04 430.02 216.04 430.99C216.73 430.57 216.73 430.02 217.15 429.88C217.15 429.6 216.87 429.47 216.32 429.47ZM199.72 432.36L199.16 448.96V433.88L199.72 432.36ZM199.72 432.36C200.14 431.67 200.14 430.56 200.27 430.56M199.72 432.36C200.27 432.36 200.27 430.98 200.27 430.56M200.27 430.56C200.96 430.56 201.23 429.45 200.68 429.45C200.41 429.45 200.27 429.87 200.27 430.56ZM201.38 432.77L200.96 433.46L200.27 434.99L201.38 432.77ZM201.38 432.77C200.69 432.36 201.93 431.94 201.38 430.97C202.49 430.55 201.38 432.08 201.38 432.77ZM204.69 432.08C204.69 432.49 204.56 432.77 204.14 432.77V432.08H204.69ZM204.69 432.08C204.83 431.66 205.94 431.66 205.24 431.25C204.83 431.67 204.69 431.94 204.69 432.08ZM207.74 425.3V430.56M207.74 430.56C208.15 430.01 208.29 430.01 208.29 429.45C208.84 429.45 208.29 430.97 207.74 430.56ZM210.09 432.91L209.54 432.08L208.85 383.65L210.09 432.91ZM210.09 432.91C208.57 434.43 211.61 432.36 210.09 432.77V432.91ZM213.97 372.86L212.86 424.33L211.48 374.11L210.92 428.9L210.65 426.96L210.37 431.25V374.94L210.09 428.62L209.82 424.89L213.97 372.86ZM213.97 372.86H213.42C213.42 373.28 213.56 373.55 213.83 373.83C213.83 373.14 213.83 372.86 213.97 372.86ZM213.83 429.45C213.42 429.45 213.83 429.86 213.83 429.45ZM213.83 429.45C213.97 429.45 215.21 429.45 214.52 428.9C214.52 429.45 213.97 428.9 213.83 428.9V429.45ZM215.21 433.46L216.04 425.3M216.04 425.3V425.44C216.04 425.533 215.993 425.58 215.9 425.58C215.9 425.17 215.9 425.03 216.04 425.3ZM216.04 425.3L216.73 429.45L218.53 421.29M216.04 425.3L218.53 421.29M218.53 421.29C219.64 421.71 218.39 422.81 217.42 423.23C217.42 421.98 218.53 421.98 218.53 421.29ZM217.43 423.23L218.39 428.21H217.84M218.12 424.75L219.23 424.33M219.23 424.33C219.23 424.75 219.09 424.33 218.54 424.75C218.54 424.33 219.09 424.33 219.23 424.33ZM219.64 427.52L219.23 455.05L219.09 423.64L219.64 427.52ZM219.64 427.52C219.64 426.97 220.19 427.1 220.19 426.69C220.74 426.69 220.19 427.94 219.64 427.52ZM220.75 420.87L220.33 422.4L220.19 425.3L220.75 420.87ZM220.75 420.87C219.64 420.45 221.3 419.76 221.86 419.76C221.86 420.45 220.89 420.45 220.75 420.87ZM220.75 428.21L221.3 421.98M221.3 421.98C220.33 421.84 221.3 420.87 221.85 421.29C221.85 421.71 221.3 421.57 221.3 421.98ZM224.48 366.5L223.24 368.16V367.05L222.96 422.67L224.48 366.5ZM224.48 366.5C224.387 366.5 224.34 366.547 224.34 366.64C224.62 366.5 224.76 366.5 224.76 366.5H224.48ZM234.03 363.04L225.87 365.8L224.34 454.36L234.03 363.04ZM234.03 363.04V362.63H233.48V363.04H234.03ZM237.35 449.52C237.35 448.97 237.9 449.38 237.35 449.52ZM237.35 449.52C237.21 449.52 237.35 449.94 237.35 449.52ZM240.39 362.35L239.29 362.62L238.32 361.93L240.39 362.35ZM240.39 362.35C240.39 362.77 239.28 362.07 239.7 363.04C240.12 363.04 241.36 362.76 240.39 362.35ZM240.39 448.13H240.81M240.81 448.13C241.23 447.71 241.5 448.13 241.5 447.71C241.08 447.71 240.81 447.85 240.81 448.13ZM246.62 444.4L244.41 446.06V362.07L246.62 444.4ZM246.62 444.4C245.79 444.4 245.24 444.81 244.96 445.78C245.93 445.36 246.62 445.5 246.62 444.4ZM247.18 444.12L246.62 361.93H245.79L247.18 444.12ZM247.18 444.12C247.18 443.01 248.29 444.54 247.18 444.12ZM247.18 444.12C246.49 444.12 247.6 445.23 247.18 444.12ZM202.34 430.56C201.93 430.56 202.2 429.45 203.17 429.45C203.03 429.86 202.48 430 202.34 430.56ZM203.18 429.45C203.04 428.2 204.15 428.76 203.73 427.79C204.42 427.79 203.73 429.45 203.18 429.45ZM204.84 433.19C204.42 433.19 204.15 433.47 204.15 433.88C204.57 433.88 204.84 433.6 204.84 433.19ZM206.63 382.96L206.91 434.02L207.19 453.25L207.74 425.58C207.74 425.673 207.693 425.767 207.6 425.86C207.6 425.44 207.6 425.31 207.74 425.31V425.59L206.63 382.96ZM207.74 429.87C207.6 428.62 208.29 427.79 209.54 427.1C208.57 428.21 208.16 428.9 207.74 429.87ZM208.16 378.4C207.19 377.43 208.85 376.74 209.27 376.05C209.96 377.02 208.16 377.43 208.16 378.4ZM209.82 429.45H208.85C208.71 428.48 209.54 428.9 209.54 428.2C210.09 428.61 209.26 428.89 209.82 429.45ZM217.84 430.56C218.39 430.56 218.53 429.45 218.12 429.45V429.73C218.12 429.87 217.98 429.87 217.84 429.87V430.56ZM221.3 427.79L221.85 423.64L223.65 454.63C223.65 455.18 223.23 454.08 222.54 454.63C222.54 455.18 222.95 455.18 222.95 455.74C223.5 455.74 224.06 455.05 223.64 454.63L221.3 427.79ZM234.03 364.84V364.42H233.48V364.84H234.03ZM234.72 362.21C234.72 362.21 234.72 362.35 234.58 362.62C234.86 363.17 234.72 362.07 234.72 362.21ZM234.86 363.73C235.28 363.31 235.55 363.87 235.55 363.45C235.13 363.45 234.86 363.59 234.86 363.73ZM237.35 363.45C236.93 363.03 236.1 363.17 236.24 364.14C236.66 364.14 237.07 363.86 237.35 363.45ZM238.6 363.31V362.62H238.18V363.31H238.6ZM242.61 362.35C242.61 361.66 242.61 361.38 242.47 361.38C242.47 362.07 241.22 361.93 241.22 362.63C242.19 362.22 242.05 362.77 242.6 362.35H242.61ZM243.16 361.38C243.57 361.24 243.85 361.1 243.85 361.24C243.43 361.24 243.16 361.24 243.16 361.38ZM244.13 361.93H243.58C243.58 362.07 243.17 361.93 243.17 362.34C243.86 362.34 244.14 362.2 244.14 361.93H244.13ZM251.19 361.24C251.19 359.72 249.39 360.82 248.84 361.24C250.09 361.24 250.5 360.82 251.19 361.24ZM250.08 358.61C249.66 358.61 249.39 358.75 249.39 359.16C249.81 359.16 250.08 359.02 250.08 358.61Z" stroke="black" stroke-width="1.12" stroke-miterlimit="10"/>
<path d="M307.5 464.18C307.04 463.813 306.947 463.307 307.22 462.66C305.7 462.66 305.42 463.77 303.9 464.18C304.04 463.07 303.9 463.07 302.93 463.07C302.93 462.65 302.93 461.82 302.24 461.82C306.11 444.52 310.27 426.81 314.14 408.13C311.23 409.24 307.78 409.1 304.45 410.07C302.93 410.49 301.13 411.73 299.47 412.28C297.95 412.83 295.32 412.28 295.46 413.8C293.8 416.01 294.63 419.2 292.97 421.83C292.97 421.97 293.8 421.97 294.22 422.38C292.56 422.8 292.56 424.32 291.87 425.29C292.98 428.2 290.76 430.82 290.62 434.01H289.65C289.51 435.12 290.48 435.12 290.06 436.22C289.51 436.22 289.51 436.08 288.95 436.08C288.95 437.19 289.23 437.88 289.64 438.16C287.29 440.51 288.39 444.66 286.32 446.46C285.63 445.35 287.43 443.97 286.32 441.89H286.73L287.01 442.17C287.15 442.31 287.29 442.45 287.43 442.45C287.43 441.803 287.2 441.62 286.74 441.9V440.65C284.94 442.45 285.49 447.71 284.25 449.37C284.25 450.2 282.31 448.4 282.73 450.06C283.15 449.64 284.25 450.47 284.11 451.58C283.14 452.13 282.73 450.47 281.76 450.06C281.07 450.47 280.51 450.61 280.93 451.58C279.68 450.89 278.58 451.86 278.02 452.27C278.44 451.58 277.47 451.86 277.47 451.16C276.36 451.85 275.81 452.82 274.7 452.96C274.84 451.99 274.28 451.85 274.28 451.16C273.31 450.74 273.45 451.58 272.9 451.58C273.04 450.47 271.93 450.75 272.35 449.78C273.6 448.95 271.1 447.15 272.63 444.94C271.66 444.53 272.49 445.91 271.52 445.49C273.04 433.87 276.5 423.77 278.02 413.39C277.05 412.28 275.25 412.42 274.01 411.45C272.21 408.27 267.92 405.78 267.23 401.9H268.34C268.34 397.61 276.92 398.99 281.07 398.3C284.11 389.17 283.01 376.85 288.96 370.63C290.21 370.91 291.59 370.77 292.97 370.35C296.57 371.46 301.13 371.18 304.45 374.09C302.93 379.07 303.9 384.19 301.54 389.31C301.68 391.52 301.68 393.6 301.13 395.12C305.7 396.09 310.54 394.01 315.94 394.01C318.85 383.49 318.98 370.07 318.02 359.56C318.71 358.87 318.85 358.04 319.4 357.48C321.61 356.93 322.86 358.03 324.38 357.48C331.16 359 334.34 365.51 333.79 372.84C333.1 375.61 333.51 376.99 331.99 379.07C331.99 379.62 332.41 379.62 332.41 379.07C333.1 379.07 332.41 380.18 331.86 379.76C331.17 379.76 332 380.73 331.44 380.87C332.96 380.87 331.86 382.12 332.55 383.64C332.41 383.5 331.58 383.5 331.17 383.64C331.17 384.38 331.4 385.163 331.86 385.99C331.17 386.41 330.75 386.68 330.61 386.68C331.3 388.2 330.33 389.86 331.99 390.55C331.44 391.8 332.13 394.42 330.61 394.56C330.19 395.67 331.58 395.11 331.16 395.81C330.61 396.23 329.91 396.23 329.5 397.19C329.5 398.71 329.08 403.69 326.73 405.21C327.84 406.46 326.73 408.67 326.59 410.33C327.56 409.91 327.28 409.64 328.39 410.05C327.84 410.6 327.84 412.13 326.31 411.71C326.583 412.45 326.537 413.143 326.17 413.79C326.17 414.21 326.59 414.07 326.72 414.48C326.58 414.9 325.47 414.76 325.47 415.73C325.47 416.28 326.72 415.59 326.3 416.7H325.47C325.06 421.27 322.84 428.05 322.84 432.34C321.04 436.77 321.18 443.82 318.83 447.7C318.69 448.67 319.8 448.39 319.38 449.36C318.97 449.36 319.1 448.94 318.69 448.94C318.83 449.77 318.69 450.46 318.27 451.15C317.16 450.46 318.27 448.94 318.69 447.69C317.17 448.66 316.61 450.46 317.58 451.56C315.37 451.97 315.78 455.16 314.67 457.37C313.7 457.92 314.12 456.82 313.42 456.82C312.87 457.37 312.73 457.93 313.14 458.48C312.17 459.03 312.59 458.06 312.03 458.06C311.34 460.83 307.74 461.1 307.74 464.15H307.46L307.5 464.18ZM272.91 443.57L273.05 441.35L278.03 452.28L282.32 450.9V451.59H281.77V450.9H282.32L272.91 443.57ZM286.75 436.79C286.843 436.883 286.937 436.883 287.03 436.79C287.17 436.79 287.31 436.65 287.31 436.24C286.89 436.24 286.76 436.38 286.76 436.79H286.75ZM292.97 425.58C293.39 425.58 293.52 426 293.52 426.69H292.97V425.58ZM292.97 426.69L294.63 420.18L295.46 413.82L307.5 464.18L318.85 443.84C318.85 444.26 318.3 444.26 318.85 444.67C318.85 444.26 319.4 444.26 318.85 443.84L292.97 426.69ZM321.06 433.46L321.61 429.45V431.8L325.21 421.29L327.98 402.06" fill="black"/>
<path d="M307.5 464.18C307.04 463.813 306.947 463.307 307.22 462.66C305.7 462.66 305.42 463.77 303.9 464.18C304.04 463.07 303.9 463.07 302.93 463.07C302.93 462.65 302.93 461.82 302.24 461.82C306.11 444.52 310.27 426.81 314.14 408.13C311.23 409.24 307.78 409.1 304.45 410.07C302.93 410.49 301.13 411.73 299.47 412.28C297.95 412.83 295.32 412.28 295.46 413.8C293.8 416.01 294.63 419.2 292.97 421.83C292.97 421.97 293.8 421.97 294.22 422.38C292.56 422.8 292.56 424.32 291.87 425.29C292.98 428.2 290.76 430.82 290.62 434.01H289.65C289.51 435.12 290.48 435.12 290.06 436.22C289.51 436.22 289.51 436.08 288.95 436.08C288.95 437.19 289.23 437.88 289.64 438.16C287.29 440.51 288.39 444.66 286.32 446.46C285.63 445.35 287.43 443.97 286.32 441.89H286.73L287.01 442.17C287.15 442.31 287.29 442.45 287.43 442.45C287.43 441.803 287.2 441.62 286.74 441.9V440.65C284.94 442.45 285.49 447.71 284.25 449.37C284.25 450.2 282.31 448.4 282.73 450.06C283.15 449.64 284.25 450.47 284.11 451.58C283.14 452.13 282.73 450.47 281.76 450.06C281.07 450.47 280.51 450.61 280.93 451.58C279.68 450.89 278.58 451.86 278.02 452.27C278.44 451.58 277.47 451.86 277.47 451.16C276.36 451.85 275.81 452.82 274.7 452.96C274.84 451.99 274.28 451.85 274.28 451.16C273.31 450.74 273.45 451.58 272.9 451.58C273.04 450.47 271.93 450.75 272.35 449.78C273.6 448.95 271.1 447.15 272.63 444.94C271.66 444.53 272.49 445.91 271.52 445.49C273.04 433.87 276.5 423.77 278.02 413.39C277.05 412.28 275.25 412.42 274.01 411.45C272.21 408.27 267.92 405.78 267.23 401.9H268.34C268.34 397.61 276.92 398.99 281.07 398.3C284.11 389.17 283.01 376.85 288.96 370.63C290.21 370.91 291.59 370.77 292.97 370.35C296.57 371.46 301.13 371.18 304.45 374.09C302.93 379.07 303.9 384.19 301.54 389.31C301.68 391.52 301.68 393.6 301.13 395.12C305.7 396.09 310.54 394.01 315.94 394.01C318.85 383.49 318.98 370.07 318.02 359.56C318.71 358.87 318.85 358.04 319.4 357.48C321.61 356.93 322.86 358.03 324.38 357.48C331.16 359 334.34 365.51 333.79 372.84C333.1 375.61 333.51 376.99 331.99 379.07C331.99 379.62 332.41 379.62 332.41 379.07C333.1 379.07 332.41 380.18 331.86 379.76C331.17 379.76 332 380.73 331.44 380.87C332.96 380.87 331.86 382.12 332.55 383.64C332.41 383.5 331.58 383.5 331.17 383.64C331.17 384.38 331.4 385.163 331.86 385.99C331.17 386.41 330.75 386.68 330.61 386.68C331.3 388.2 330.33 389.86 331.99 390.55C331.44 391.8 332.13 394.42 330.61 394.56C330.19 395.67 331.58 395.11 331.16 395.81C330.61 396.23 329.91 396.23 329.5 397.19C329.5 398.71 329.08 403.69 326.73 405.21C327.84 406.46 326.73 408.67 326.59 410.33C327.56 409.91 327.28 409.64 328.39 410.05C327.84 410.6 327.84 412.13 326.31 411.71C326.583 412.45 326.537 413.143 326.17 413.79C326.17 414.21 326.59 414.07 326.72 414.48C326.58 414.9 325.47 414.76 325.47 415.73C325.47 416.28 326.72 415.59 326.3 416.7H325.47C325.06 421.27 322.84 428.05 322.84 432.34C321.04 436.77 321.18 443.82 318.83 447.7C318.69 448.67 319.8 448.39 319.38 449.36C318.97 449.36 319.1 448.94 318.69 448.94C318.83 449.77 318.69 450.46 318.27 451.15C317.16 450.46 318.27 448.94 318.69 447.69C317.17 448.66 316.61 450.46 317.58 451.56C315.37 451.97 315.78 455.16 314.67 457.37C313.7 457.92 314.12 456.82 313.42 456.82C312.87 457.37 312.73 457.93 313.14 458.48C312.17 459.03 312.59 458.06 312.03 458.06C311.34 460.83 307.74 461.1 307.74 464.15H307.46L307.5 464.18ZM307.5 464.18L295.46 413.82L294.63 420.18L292.97 426.69M307.5 464.18L318.85 443.84M282.32 450.9L278.03 452.28L273.05 441.35L272.91 443.57L282.32 450.9ZM282.32 450.9V451.59H281.77V450.9H282.32ZM292.97 426.69H293.52C293.52 426 293.39 425.58 292.97 425.58V426.69ZM292.97 426.69L318.85 443.84M318.85 443.84C318.85 444.26 318.3 444.26 318.85 444.67C318.85 444.26 319.4 444.26 318.85 443.84ZM321.06 433.46L321.61 429.45V431.8L325.21 421.29L327.98 402.06M286.75 436.79C286.843 436.883 286.937 436.883 287.03 436.79C287.17 436.79 287.31 436.65 287.31 436.24C286.89 436.24 286.76 436.38 286.76 436.79H286.75Z" stroke="black" stroke-width="1.12" stroke-miterlimit="10"/>
<path d="M356.76 408.14C354.41 411.88 353.99 415.75 353.99 419.07C353.3 418.38 351.91 418.52 352.88 419.48C352.787 419.48 352.693 419.527 352.6 419.62V419.76C352.74 419.76 352.88 419.62 352.88 419.48C353.02 419.48 353.16 419.34 353.16 419.07C354.13 420.18 353.3 423.22 352.05 424.33C352.46 424.33 352.6 424.33 352.6 424.19C353.29 427.1 351.77 431.25 351.77 433.88C350.8 433.88 351.91 434.02 351.49 434.99C351.07 435.13 351.49 435.13 351.49 434.99C351.63 434.99 351.77 435.27 351.77 435.68C351.77 436.23 351.08 435.13 351.08 436.23H350.94C350.66 436.23 350.53 436.09 350.53 435.68C349.28 437.48 350.39 438.31 350.39 440.11H350.53C351.08 440.11 350.39 438.31 351.08 439C350.94 440.11 351.5 441.49 351.08 443.15C350.94 443.15 350.39 443.15 350.39 443.57C349.42 443.57 350.94 441.36 349.84 441.36C349.84 443.57 348.73 448.28 348.04 450.91C347.07 451.33 347.49 450.49 347.49 449.8C345.69 451.32 344.31 450.91 343.62 452.98C343.48 452.98 343.48 452.7 343.48 452.29C343.07 452.29 343.07 452.98 341.96 452.84C341.96 452.42 341.82 452.42 341.82 452.29V452.15C340.85 452.15 341.27 453.4 340.57 452.98C339.46 452.01 338.49 452.29 336.83 451.87C337.8 440.25 337.38 429.04 340.29 419.08C341.4 409.67 342.5 400.95 343.06 391.55C343.06 382.14 346.24 373.42 345.55 365.26L346.8 361.94C354.55 362.63 360.08 363.32 365.48 365.95C364.79 366.64 365.48 368.72 364.23 368.72C365.34 371.76 363.68 376.47 362.02 379.79C361.05 379.65 362.71 378.96 362.3 377.99C360.78 377.99 360.78 379.65 362.02 380.07C361.05 381.04 361.33 382.84 360.22 383.25C360.08 384.36 360.77 382.97 360.77 383.53C360.77 384.5 360.22 384.22 359.66 384.36C360.08 385.61 358.97 386.44 360.21 386.44C359.24 387.13 360.76 388.65 359.1 389.9C359.1 391.42 360.07 391.56 360.07 392.67C356.2 393.5 360.76 397.1 357.44 398.62C357.72 401.25 355.92 404.29 356.33 405.81C355.36 406.78 355.5 407.75 356.74 408.16L356.76 408.14ZM341.95 452.84C341.95 453.12 341.95 453.26 341.81 453.26V452.84H341.95ZM347.49 448.13C347.9 448.13 348.04 447.99 348.04 447.71C347.63 447.71 347.49 447.85 347.49 448.13ZM350.53 432.91C350.53 432.77 350.94 432.77 350.53 432.91C349.84 433.33 350.94 434.43 350.53 432.91ZM350.39 440.11C350.39 439.7 350.53 439.7 350.53 440.11H350.39ZM351.5 428.21C350.95 427.79 351.78 427.93 351.78 427.52C351.09 426.55 351.36 426.55 351.78 425.58C351.78 425.17 352.2 425.17 351.78 425.58C351.09 425.17 352.2 424.2 351.78 423.23C350.4 423.92 351.78 425.86 350.53 427.1C350.94 427.1 351.08 427.24 351.08 427.52H350.8C350.66 427.52 350.52 427.66 350.52 427.8C351.07 427.8 351.07 429.46 351.49 428.22C351.49 427.8 351.91 427.8 351.49 428.22L351.5 428.21ZM350.53 429.87V432.08L350.95 434.57C351.043 434.57 351.09 434.523 351.09 434.43L350.95 434.57L350.53 429.87ZM351.22 437.89C351.22 438.58 351.08 438.72 350.94 438.58C351.08 437.47 350.94 437.47 351.08 436.92C351.22 437.33 351.22 437.61 351.22 437.89ZM351.78 419.77H352.2V419.08H351.78V419.77ZM351.78 420.74V433.88L353.16 418.11C353.3 417.97 353.3 417.14 352.88 417C352.88 416.58 353.02 416.03 352.6 416.03C352.6 416.72 351.63 416.17 352.05 417.14C352.6 417.14 352.46 417 352.88 417C352.88 417.42 352.6 418.11 353.16 418.11L351.78 420.74ZM352.61 414.92C351.64 414.5 353.03 413.4 352.61 414.92C352.33 415.06 352.2 415.33 352.2 415.75C353.17 415.75 352.75 415.33 353.17 414.92C353.31 414.92 353.31 415.61 353.72 415.61C353.3 414.64 354 414.5 354 413.81C353.03 413.81 353.17 414.5 353.17 414.92H352.62H352.61ZM353.16 413.26C353.58 413.26 353.71 413.12 353.71 412.84C353.29 412.84 353.16 412.98 353.16 413.26ZM353.3 411.74C353.3 412.43 353.44 412.71 353.72 412.71C353.72 412.16 354.41 411.74 353.3 411.74ZM354.4 407.04L356.34 405.79L356.76 400.81" fill="black"/>
<path d="M352.88 419.48C351.91 418.52 353.3 418.38 353.99 419.07C353.99 415.75 354.41 411.88 356.76 408.14L356.74 408.16C355.5 407.75 355.36 406.78 356.33 405.81C355.92 404.29 357.72 401.25 357.44 398.62C360.76 397.1 356.2 393.5 360.07 392.67C360.07 391.56 359.1 391.42 359.1 389.9C360.76 388.65 359.24 387.13 360.21 386.44C358.97 386.44 360.08 385.61 359.66 384.36C360.22 384.22 360.77 384.5 360.77 383.53C360.77 382.97 360.08 384.36 360.22 383.25C361.33 382.84 361.05 381.04 362.02 380.07C360.78 379.65 360.78 377.99 362.3 377.99C362.71 378.96 361.05 379.65 362.02 379.79C363.68 376.47 365.34 371.76 364.23 368.72C365.48 368.72 364.79 366.64 365.48 365.95C360.08 363.32 354.55 362.63 346.8 361.94L345.55 365.26C346.24 373.42 343.06 382.14 343.06 391.55C342.5 400.95 341.4 409.67 340.29 419.08C337.38 429.04 337.8 440.25 336.83 451.87C338.49 452.29 339.46 452.01 340.57 452.98C341.27 453.4 340.85 452.15 341.82 452.15V452.29C341.82 452.42 341.96 452.42 341.96 452.84C343.07 452.98 343.07 452.29 343.48 452.29C343.48 452.7 343.48 452.98 343.62 452.98C344.31 450.91 345.69 451.32 347.49 449.8C347.49 450.49 347.07 451.33 348.04 450.91C348.73 448.28 349.84 443.57 349.84 441.36C350.94 441.36 349.42 443.57 350.39 443.57C350.39 443.15 350.94 443.15 351.08 443.15C351.5 441.49 350.94 440.11 351.08 439C350.39 438.31 351.08 440.11 350.53 440.11M352.88 419.48C352.787 419.48 352.693 419.527 352.6 419.62V419.76C352.74 419.76 352.88 419.62 352.88 419.48ZM352.88 419.48C353.02 419.48 353.16 419.34 353.16 419.07C354.13 420.18 353.3 423.22 352.05 424.33C352.46 424.33 352.6 424.33 352.6 424.19C353.29 427.1 351.77 431.25 351.77 433.88C350.8 433.88 351.91 434.02 351.49 434.99M351.49 434.99C351.07 435.13 351.49 435.13 351.49 434.99ZM351.49 434.99C351.63 434.99 351.77 435.27 351.77 435.68C351.77 436.23 351.08 435.13 351.08 436.23H350.94C350.66 436.23 350.53 436.09 350.53 435.68C349.28 437.48 350.39 438.31 350.39 440.11M350.39 440.11H350.53M350.39 440.11C350.39 439.7 350.53 439.7 350.53 440.11M346.79 446.61L347.49 448.13M347.49 448.13C347.9 448.13 348.04 447.99 348.04 447.71C347.63 447.71 347.49 447.85 347.49 448.13ZM350.53 432.91C350.53 432.77 350.94 432.77 350.53 432.91ZM350.53 432.91C349.84 433.33 350.94 434.43 350.53 432.91ZM351.78 425.58C351.36 426.55 351.09 426.55 351.78 427.52C351.78 427.93 350.95 427.79 351.5 428.21L351.49 428.22M351.78 425.58C351.78 425.17 352.2 425.17 351.78 425.58ZM351.78 425.58C351.09 425.17 352.2 424.2 351.78 423.23C350.4 423.92 351.78 425.86 350.53 427.1C350.94 427.1 351.08 427.24 351.08 427.52H350.8C350.66 427.52 350.52 427.66 350.52 427.8C351.07 427.8 351.07 429.46 351.49 428.22M351.49 428.22C351.49 427.8 351.91 427.8 351.49 428.22ZM350.95 434.57L350.53 432.08V429.87L350.95 434.57ZM350.95 434.57C351.043 434.57 351.09 434.523 351.09 434.43L350.95 434.57ZM353.16 418.11L351.78 433.88V420.74L353.16 418.11ZM353.16 418.11C353.3 417.97 353.3 417.14 352.88 417M353.16 418.11C352.6 418.11 352.88 417.42 352.88 417M352.88 417C352.88 416.58 353.02 416.03 352.6 416.03C352.6 416.72 351.63 416.17 352.05 417.14C352.6 417.14 352.46 417 352.88 417ZM352.61 414.92C351.64 414.5 353.03 413.4 352.61 414.92ZM352.61 414.92C352.33 415.06 352.2 415.33 352.2 415.75C353.17 415.75 352.75 415.33 353.17 414.92M352.61 414.92H352.62H353.17M353.17 414.92C353.31 414.92 353.31 415.61 353.72 415.61C353.3 414.64 354 414.5 354 413.81C353.03 413.81 353.17 414.5 353.17 414.92ZM354.4 407.04L356.34 405.79L356.76 400.81M341.95 452.84C341.95 453.12 341.95 453.26 341.81 453.26V452.84H341.95ZM351.22 437.89C351.22 438.58 351.08 438.72 350.94 438.58C351.08 437.47 350.94 437.47 351.08 436.92C351.22 437.33 351.22 437.61 351.22 437.89ZM351.78 419.77H352.2V419.08H351.78V419.77ZM353.16 413.26C353.58 413.26 353.71 413.12 353.71 412.84C353.29 412.84 353.16 412.98 353.16 413.26ZM353.3 411.74C353.3 412.43 353.44 412.71 353.72 412.71C353.72 412.16 354.41 411.74 353.3 411.74Z" stroke="black" stroke-width="1.12" stroke-miterlimit="10"/>
<path d="M452.84 448.03C452.93 449.07 453 450.13 453.05 451.22C453.1 452.31 453.12 453.42 453.12 454.55C452.66 454.55 452.38 454.38 452.29 454.05C452.2 453.72 451.92 453.55 451.46 453.55C450.63 453.55 449.75 453.67 448.83 453.9C447.91 454.14 447.31 454.3 447.03 454.4H444.81C444.35 454.21 444 454 443.77 453.76C443.54 453.52 443.24 453.41 442.87 453.41H442.18C441.53 453.41 440.98 453.53 440.52 453.76C440.06 454 439.55 454.21 439 454.4L436.09 454.54V449.15C435.26 449.34 434.66 449.6 434.29 449.93C433.92 450.26 433.32 450.57 432.49 450.85C431.29 451.13 430.11 451.44 428.96 451.77C427.8 452.1 426.63 452.36 425.43 452.55C424.23 452.74 423.03 452.9 421.83 453.05C420.63 453.19 419.34 453.26 417.95 453.26C415.27 453.26 412.64 452.98 410.06 452.41C408.77 451.94 407.45 451.49 406.11 451.06C404.77 450.63 403.46 450.05 402.16 449.29C401.05 448.72 399.99 448.01 398.98 447.16C397.96 446.31 397.04 445.51 396.21 444.75C395.19 443.81 394.34 442.86 393.65 441.92C392.96 440.98 392.24 439.98 391.5 438.94C390.95 437.9 390.39 436.86 389.84 435.82C389.29 434.78 388.78 433.74 388.32 432.7C387.95 431.57 387.65 430.48 387.42 429.44C387.19 428.4 386.94 427.31 386.66 426.18C386.2 424.1 385.88 422.07 385.69 420.09C385.5 418.11 385.32 416.07 385.14 414C385.14 412.39 385.32 410.88 385.69 409.46V402.23C385.87 400.62 386.08 399.07 386.31 397.55C386.54 396.04 386.89 394.48 387.35 392.87C387.63 391.26 388.02 389.61 388.53 387.91C389.04 386.21 389.66 384.56 390.4 382.95C390.68 382.19 391 381.39 391.37 380.54C391.74 379.69 392.2 378.89 392.75 378.13C393.12 377.28 393.58 376.48 394.13 375.72C394.68 374.96 395.33 374.21 396.07 373.45C397.27 371.84 398.65 370.43 400.22 369.2C401.05 368.44 401.93 367.83 402.85 367.36C403.77 366.89 404.74 366.37 405.76 365.8C406.68 365.42 407.61 365.07 408.53 364.74C409.45 364.41 410.42 364.15 411.44 363.96C413.38 363.68 415.32 363.53 417.26 363.53C421.14 363.53 424.6 364 427.64 364.95C429.3 365.42 430.87 365.97 432.35 366.58C433.83 367.2 435.3 367.83 436.78 368.49C438.26 369.15 439.69 369.86 441.07 370.62C442.45 371.38 443.88 372.13 445.36 372.89C445.45 372.99 445.5 373.32 445.5 373.88C445.5 374.54 445.31 375.09 444.95 375.51C444.58 375.94 444.16 376.38 443.7 376.86C443.24 377.33 442.71 377.81 442.11 378.28C441.51 378.75 441.07 379.23 440.79 379.7C440.6 380.08 440.4 380.36 440.17 380.55C439.94 380.74 439.78 380.93 439.69 381.12C439.6 381.22 439.55 381.5 439.55 381.97C439.55 382.25 439.73 382.73 440.1 383.39C440.47 383.77 440.84 384.15 441.21 384.52C441.58 384.9 441.85 385.23 442.04 385.51C442.22 385.7 442.32 385.98 442.32 386.36C442.23 386.36 441.81 386.12 441.07 385.65C440.33 385.46 439.52 385.11 438.65 384.59C437.77 384.07 436.87 383.53 435.95 382.96C435.03 382.49 434.13 382.04 433.25 381.61C432.37 381.18 431.56 380.88 430.83 380.69C430.37 380.6 429.98 380.53 429.65 380.48C429.33 380.43 429.07 380.41 428.89 380.41L427.92 380.55L426.26 381.12C427 381.4 427.69 381.69 428.34 381.97C428.98 382.25 429.63 382.54 430.28 382.82L433.46 384.24C434.1 384.52 434.84 384.88 435.68 385.3C436.51 385.73 437.27 386.17 437.96 386.65C438.65 387.12 439.23 387.6 439.69 388.07C440.15 388.54 440.38 388.97 440.38 389.35C437.15 387.27 433.96 385.57 430.83 384.25C430 383.97 429.19 383.64 428.41 383.26C427.62 382.88 426.86 382.6 426.13 382.41L421.28 381.13C420.73 380.94 420.12 380.85 419.48 380.85H416.3C415.84 380.85 415.42 380.9 415.05 380.99C414.13 381.09 413.3 381.32 412.56 381.7L410.62 383.12C409.79 383.78 409.19 384.4 408.82 384.96C408.45 385.34 408.15 385.79 407.92 386.31C407.69 386.83 407.44 387.33 407.16 387.8C406.14 389.69 405.31 391.96 404.67 394.6C404.21 395.92 403.84 397.32 403.56 398.78C403.28 400.25 403.05 401.73 402.87 403.24C402.68 404.66 402.57 406.1 402.52 407.56C402.47 409.03 402.4 410.56 402.31 412.17C402.31 415.2 402.45 417.98 402.73 420.53C403.19 423.36 403.88 425.82 404.81 427.9C405.27 428.94 405.76 429.84 406.26 430.59C406.77 431.35 407.39 432.1 408.13 432.86C408.77 433.43 409.51 433.97 410.35 434.49C411.18 435.01 412.01 435.36 412.84 435.55C414.04 435.93 415.65 436.12 417.69 436.12H419.63C420.64 436.03 421.75 435.86 422.95 435.62C424.15 435.39 425.39 435.03 426.69 434.56C428.44 434.09 429.92 433.52 431.12 432.86C432.32 432.2 433.75 431.35 435.41 430.31L436.24 430.17V418.26H423.5C423.41 418.07 423.36 417.65 423.36 416.98C423.36 416.22 423.41 415.75 423.5 415.56V408.19C423.5 407.34 423.45 406.77 423.36 406.49C423.27 406.3 423.15 406.14 423.01 405.99C422.87 405.84 422.8 405.68 422.8 405.49C422.8 405.4 422.89 405.26 423.08 405.06C423.26 404.87 423.45 404.78 423.63 404.78H424.32C424.6 404.78 424.78 404.73 424.87 404.64C425.05 404.45 425.17 404.12 425.22 403.65C425.27 403.18 425.38 402.8 425.57 402.52C425.11 402.52 424.67 402.43 424.25 402.24C423.83 402.05 423.35 401.86 422.8 401.67C423.44 401.67 424.05 401.58 424.6 401.39C425.15 401.2 425.75 401.06 426.4 400.96H431.94C432.95 400.96 433.97 401.03 434.99 401.17C436 401.31 437.02 401.43 438.04 401.52L441.78 401.66H442.68C443 401.66 443.3 401.61 443.58 401.52C444.32 401.43 444.99 401.33 445.59 401.24C446.19 401.15 446.77 401.1 447.32 401.1C447.04 401.1 446.9 401.67 446.9 402.8C446.9 403.75 446.95 404.67 447.04 405.56C447.13 406.46 447.18 407.05 447.18 407.33V409.17L448.01 408.89C448.19 408.7 448.33 408.49 448.43 408.25C448.52 408.02 448.66 407.9 448.85 407.9C448.94 407.9 449.13 408.04 449.4 408.33C449.58 408.9 449.68 409.28 449.68 409.46L449.54 411.16C449.54 411.35 449.56 411.49 449.61 411.59C449.66 411.69 449.68 411.78 449.68 411.87C449.86 412.34 450.16 412.65 450.58 412.79C451 412.93 451.39 413.14 451.76 413.43C451.76 412.39 451.85 411.47 452.04 410.67C452.22 409.87 452.46 408.95 452.73 407.91L453.28 415.14V423.79C453.28 425.68 453.23 427.57 453.14 429.46C453.05 431.35 452.95 433.38 452.86 435.55C452.86 436.12 452.91 436.4 453 436.4C453.37 436.59 453.6 436.78 453.69 436.97C453.78 437.16 453.87 437.35 453.97 437.54C454.15 437.82 454.32 438.08 454.45 438.32C454.59 438.56 454.8 438.67 455.07 438.67L452.85 440.23V448.03H452.84Z" fill="#DB2F2D"/>
<path d="M485.94 373.06C486.22 373.25 486.45 373.63 486.63 374.19L486.77 375.32L487.46 377.73C487.55 378.01 487.67 378.35 487.81 378.72C487.95 379.1 488.16 379.43 488.43 379.71L489.12 381.41C489.49 381.79 489.9 381.98 490.37 381.98C490.55 381.98 490.74 381.96 490.92 381.91C491.1 381.86 491.29 381.84 491.47 381.84C491.65 381.75 492.14 381.51 492.92 381.13C493.7 380.75 494.33 380.56 494.79 380.56C495.07 380.56 495.21 380.61 495.21 380.7C495.21 380.89 495.14 381.05 495 381.2C494.86 381.34 494.56 381.6 494.1 381.98C493.64 382.74 492.99 383.35 492.16 383.82C491.79 384.2 491.42 384.58 491.05 384.95C490.68 385.33 490.26 385.71 489.8 386.08C488.05 387.59 486.8 389.25 486.06 391.04C485.6 391.99 485.37 392.88 485.37 393.73V394.3C485.37 394.68 485.46 395.34 485.65 396.28C486.02 395.52 486.43 394.79 486.9 394.08C487.36 393.37 487.82 392.69 488.28 392.02C488.74 391.45 489.18 390.91 489.6 390.39C490.02 389.87 490.41 389.33 490.78 388.76C491.98 387.53 493.16 386.42 494.31 385.43C495.46 384.44 496.46 384.04 497.29 384.23C495.81 384.99 494.47 386 493.27 387.28C492.07 388.56 490.92 390 489.81 391.6C487.69 394.91 486.02 398.45 484.83 402.23C484.37 403.74 484.04 405.28 483.86 406.84C483.67 408.4 483.49 409.98 483.31 411.59C483.22 412.06 483.17 412.58 483.17 413.15V414.71C483.17 416.98 483.35 418.92 483.72 420.52C483.81 421.56 484.09 422.6 484.55 423.64C484.83 424.49 485.08 425.29 485.31 426.05C485.54 426.81 485.89 427.52 486.35 428.18C486.72 428.84 487.09 429.38 487.46 429.81C487.83 430.24 488.2 430.64 488.57 431.02C488.94 431.4 489.28 431.75 489.61 432.08C489.93 432.41 490.32 432.67 490.79 432.86C491.71 433.52 492.64 433.9 493.56 433.99C494.11 434.18 494.69 434.32 495.29 434.42C495.89 434.52 496.56 434.61 497.3 434.7C497.94 434.51 498.59 434.42 499.24 434.42C499.89 434.42 500.58 434.37 501.32 434.28C502.24 434.19 502.98 433.95 503.54 433.57C503.72 433.57 503.91 433.55 504.09 433.5C504.27 433.45 504.6 433.38 505.06 433.29L505.48 433.01C506.59 432.73 507.65 432.16 508.66 431.31C509.3 430.93 509.88 430.53 510.39 430.1C510.9 429.67 511.38 429.23 511.84 428.75C512.76 427.71 513.62 426.6 514.4 425.42C515.18 424.24 515.94 422.85 516.68 421.24C518.71 416.42 519.73 411.13 519.73 405.37V403.24C519.54 400.69 519.13 398.14 518.48 395.59L518.2 394.6C517.74 393.28 517.14 392.05 516.4 390.91C515.66 389.78 514.92 388.69 514.18 387.65L512.38 385.81C511.92 385.34 511.55 385.05 511.27 384.96L510.44 384.25L508.64 383.4L507.26 383.26C506.98 383.26 506.71 383.28 506.43 383.33C506.15 383.38 505.78 383.45 505.32 383.54C504.49 383.54 503.47 383.68 502.27 383.97L498.95 384.96C498.4 384.96 498.03 384.94 497.84 384.89C497.65 384.84 497.59 384.77 497.63 384.68C497.68 384.59 497.77 384.47 497.91 384.33C498.05 384.19 498.12 384.07 498.12 383.98C498.21 383.89 498.26 383.55 498.26 382.99C498.17 382.71 497.98 382.42 497.71 382.14C497.43 381.67 497.13 381.31 496.81 381.08C496.49 380.84 496.09 380.54 495.63 380.16C494.52 379.78 493.97 379.41 493.97 379.03C493.78 378.65 493.55 378.27 493.28 377.9V377.33C493.28 376.86 493.37 376.53 493.56 376.34C493.74 376.15 494 375.96 494.32 375.77C494.64 375.58 495.03 375.3 495.5 374.92C495.87 374.73 496.21 374.54 496.54 374.35C496.86 374.16 497.03 373.97 497.03 373.78V372.79C496.84 372.32 496.38 371.94 495.65 371.66L492.6 370.1C492.32 370.01 492.18 369.67 492.18 369.11L492.04 367.69C492.04 367.5 491.9 367.31 491.62 367.12C492.45 366.93 493.4 366.74 494.46 366.55C495.52 366.36 496.7 366.08 497.99 365.7L502.56 364.57H508.38C509.3 364.57 510.2 364.67 511.08 364.85C511.96 365.04 512.76 365.23 513.5 365.42C514.51 365.61 515.48 365.96 516.41 366.48C517.33 367 518.16 367.5 518.9 367.97L521.12 369.1L523.06 370.94C523.8 371.51 524.47 372.03 525.07 372.5C525.67 372.97 526.29 373.54 526.94 374.2C529.16 376.75 531 379.49 532.48 382.42C533.03 383.65 533.61 384.9 534.21 386.18C534.81 387.46 535.29 388.71 535.66 389.94L536.08 391.22C536.91 394.25 537.46 397.31 537.74 400.43C537.83 401.28 537.9 402.16 537.95 403.05C538 403.95 538.02 404.82 538.02 405.67L537.88 409.36C537.69 411.91 537.37 414.46 536.91 417.01C536.45 419.56 535.8 422.02 534.97 424.38C534.05 427.03 533.03 429.48 531.92 431.75C530.81 434.02 529.38 436.29 527.63 438.55C526.15 440.73 524.31 442.8 522.09 444.79C521.07 445.74 519.94 446.59 518.7 447.34C517.45 448.1 516.18 448.85 514.89 449.61C514.15 449.99 513.44 450.34 512.74 450.67C512.05 451 511.29 451.26 510.46 451.45L508.94 452.02L507 452.45C504.51 453.21 501.83 453.63 498.97 453.73C498.69 453.82 498.09 453.87 497.17 453.87C495.97 453.87 494.68 453.73 493.29 453.44L492.87 453.3H492.04C490.84 453.2 489.69 452.97 488.58 452.59C487.47 452.21 486.27 451.79 484.98 451.31C483.96 450.84 482.9 450.32 481.8 449.75C480.7 449.18 479.58 448.52 478.48 447.77C477.46 446.92 476.54 446.05 475.71 445.15C474.88 444.25 474.09 443.33 473.36 442.39C472.62 441.54 471.93 440.57 471.28 439.48C470.63 438.39 470.03 437.33 469.48 436.29C468.93 435.25 468.46 434.24 468.1 433.24C467.73 432.25 467.36 431.19 466.99 430.05C465.7 425.89 465 421.69 464.91 417.44L464.77 414.61C464.77 413 464.84 411.42 464.98 409.86C465.12 408.3 465.28 406.72 465.46 405.11C466.29 401.05 467.4 397.08 468.78 393.2C469.52 391.31 470.37 389.44 471.34 387.6C472.31 385.76 473.35 383.89 474.46 382C475.66 380.39 476.97 378.74 478.41 377.04C479.84 375.34 481.39 373.83 483.05 372.5L483.74 372.07C484.85 372.07 485.59 372.4 485.96 373.06H485.94Z" fill="#DB2F2D"/>
<path d="M282.3 228.5C281.99 228.49 281.67 228.48 281.36 228.48C270.23 228.48 261.01 236.57 259.25 247.18C259.18 247.61 259.12 248.05 259.07 248.48C259.02 248.94 258.99 249.4 258.97 249.87C258.96 250.2 258.95 250.53 258.95 250.87C258.95 251.62 258.99 252.37 259.06 253.1C259.12 253.75 259.22 254.4 259.34 255.03C259.5 255.88 259.71 256.7 259.95 257.51C260.92 258.76 261.79 260.09 262.55 261.47C267.93 250.3 274.66 239.33 282.3 228.5Z" fill="#D92D2D"/>
<path d="M295.54 233.53C292.67 231.18 289.21 229.53 285.41 228.84C278.04 239.46 271.26 251.45 265.04 264.71L263.9 264.3C264.07 264.71 264.26 265.12 264.41 265.53C264.48 265.62 264.54 265.7 264.62 265.78C265.11 266.34 265.64 266.86 266.17 267.36C266.65 267.8 267.14 268.22 267.66 268.61C268.51 269.27 269.4 269.87 270.34 270.4C270.74 270.62 271.15 270.83 271.56 271.03C271.96 271.22 272.35 271.4 272.76 271.57C273.84 272.03 274.96 272.39 276.11 272.66C276.5 272.76 276.89 272.85 277.3 272.91C277.69 272.98 278.09 273.05 278.49 273.09C282.64 259.88 288.53 246.7 295.53 233.52L295.54 233.53Z" fill="#D92D2D"/>
<path d="M302.84 244.51C302.64 243.82 302.4 243.14 302.14 242.49C301.92 241.93 301.67 241.39 301.4 240.86C300.41 238.87 299.12 237.06 297.6 235.46C291.74 246.83 286.66 259.46 282.27 273.25C282.43 273.25 282.59 273.25 282.75 273.23C283.28 273.2 283.8 273.15 284.31 273.07C284.32 273.07 284.35 273.07 284.36 273.07C288.4 268.53 293.71 265.33 299.58 263.88C299.9 263.44 300.2 262.98 300.48 262.52C300.74 262.1 300.98 261.68 301.2 261.24C301.63 260.44 301.99 259.62 302.31 258.77C302.31 258.77 302.31 258.767 302.31 258.76C302.46 258.37 302.59 257.98 302.71 257.58C302.84 257.2 302.94 256.81 303.05 256.42C303.5 254.64 303.74 252.79 303.74 250.87C303.74 248.66 303.43 246.53 302.83 244.51H302.84Z" fill="#D92D2D"/>
<path d="M316.34 259.7C321.33 249.17 327.53 238.82 334.58 228.59C323.3 229.76 314.52 239.29 314.52 250.87C314.52 251.18 314.52 251.52 314.54 251.83C314.55 252.01 314.55 252.21 314.58 252.41C314.6 252.87 314.64 253.34 314.71 253.77C314.77 254.23 314.85 254.67 314.93 255.13C315.01 255.59 315.11 256.03 315.23 256.47C315.3 256.74 315.36 257 315.44 257.25C315.56 257.68 315.69 258.09 315.84 258.49C315.84 258.52 315.86 258.54 315.87 258.57C316.01 258.97 316.16 259.34 316.33 259.71L316.34 259.7Z" fill="#D92D2D"/>
<path d="M359.32 250.55C359.32 250.1 359.31 249.65 359.27 249.21C359.25 248.93 359.23 248.65 359.19 248.37C359.19 248.3 359.18 248.21 359.15 248.14C359.11 247.68 359.03 247.25 358.96 246.82C358.96 246.77 358.94 246.72 358.93 246.67C358.86 246.32 358.8 245.98 358.71 245.63C358.71 245.59 358.69 245.55 358.68 245.51C358.67 245.44 358.65 245.35 358.63 245.28C358.56 244.98 358.47 244.68 358.38 244.38C358.32 244.19 358.26 244.01 358.2 243.82C358.04 243.33 357.86 242.86 357.67 242.38C357.55 242.07 357.42 241.75 357.25 241.44C356.97 240.83 356.66 240.26 356.35 239.69C356.17 239.38 356 239.08 355.8 238.8C355.64 238.53 355.45 238.25 355.25 237.98C354.97 237.56 354.68 237.17 354.35 236.79C354.29 236.72 354.23 236.63 354.17 236.57C353.86 236.18 353.52 235.81 353.17 235.43C352.99 235.26 352.81 235.08 352.65 234.92C352.36 234.62 352.06 234.34 351.75 234.07C351.73 234.06 351.71 234.03 351.71 234.03C351.59 233.94 351.48 233.84 351.36 233.74C345.57 245.14 340.54 257.78 336.21 271.58L332.64 270.8C336.66 257.88 342.35 244.98 349.13 232.09C348.99 232 348.86 231.9 348.72 231.82C348.44 231.64 348.14 231.46 347.85 231.3C347.55 231.14 347.26 230.99 346.96 230.83C345.96 230.34 344.93 229.9 343.85 229.57C343.42 229.41 342.97 229.29 342.54 229.17C342.22 229.1 341.91 229.01 341.59 228.95C341.18 228.85 340.76 228.78 340.35 228.72C339.59 228.6 338.81 228.53 338.03 228.5C331.3 238.51 325.08 249.7 319.32 261.96L317.03 261.12C317.1 261.26 317.17 261.41 317.25 261.55C317.47 261.94 317.7 262.32 317.94 262.69C317.99 262.78 318.04 262.87 318.1 262.95C318.11 263 318.16 263.05 318.2 263.11C318.48 263.54 318.79 263.95 319.1 264.36C319.13 264.4 319.16 264.44 319.19 264.48C319.56 264.97 319.96 265.47 320.37 265.92C320.52 266.09 320.68 266.26 320.84 266.42C323.24 267.7 325.49 269.3 327.47 271.17C327.69 271.27 327.91 271.37 328.13 271.46C328.17 271.48 328.19 271.48 328.2 271.5C328.72 271.72 329.27 271.91 329.82 272.09V272.11C329.89 272.13 329.95 272.15 330.01 272.16C330.44 272.3 330.88 272.44 331.33 272.54C331.52 272.59 331.73 272.64 331.93 272.68C332.18 272.74 332.42 272.79 332.67 272.83C333.07 272.91 333.45 272.99 333.87 273.02C334.3 273.09 334.74 273.13 335.19 273.17C335.32 273.18 335.44 273.19 335.56 273.2C335.72 273.2 335.87 273.2 336.01 273.22C336.2 273.22 336.39 273.23 336.58 273.22C336.69 273.22 336.8 273.22 336.92 273.22C337.26 273.22 337.58 273.22 337.91 273.2C338.02 273.2 338.13 273.2 338.25 273.19C339.09 273.14 339.92 273.04 340.73 272.91C341.12 272.84 341.5 272.77 341.87 272.68C342.27 272.6 342.65 272.5 343.03 272.39C343.58 272.24 344.11 272.07 344.64 271.88C344.71 271.84 344.8 271.82 344.85 271.78C345.05 271.71 345.25 271.64 345.44 271.56C345.75 271.44 346.05 271.31 346.35 271.16C346.45 271.12 346.54 271.08 346.63 271.04C346.63 271.04 346.65 271.04 346.66 271.03C347.08 270.84 347.49 270.61 347.89 270.4C348.32 268.05 349.05 265.75 350.05 263.55C351.02 261.35 352.29 259.26 353.82 257.32L353.79 256.7L354.41 256.6C355.85 254.85 357.49 253.28 359.3 251.92C359.3 251.86 359.3 251.8 359.3 251.74C359.32 251.45 359.32 251.14 359.32 250.84C359.32 250.74 359.32 250.62 359.32 250.52V250.55Z" fill="#D92D2D"/>
<path d="M260.66 274.51C260.66 274.95 260.65 275.38 260.62 275.82C260.5 277.88 260.1 279.88 259.45 281.75C259.07 281.44 258.7 281.14 258.33 280.82C256.95 279.67 255.6 278.47 254.3 277.21L254.1 278.62L252.52 277.04C247.4 271.93 243.02 266.14 239.51 259.81L238.25 257.53L239.77 257.92C238.94 256.37 238.17 254.78 237.45 253.17C237.3 252.83 237.16 252.5 237.02 252.16C237.43 252.14 237.85 252.12 238.27 252.12C239.91 252.12 241.51 252.3 243.06 252.64C247 253.49 250.54 255.38 253.4 257.99C257.87 262.08 260.67 267.97 260.67 274.51H260.66Z" fill="#D92D2D"/>
<path d="M376.17 253.17C375.47 254.78 374.7 256.37 373.88 257.9L375.38 257.51L374.13 259.79C373.14 261.58 372.17 263.17 371.19 264.64V264.76L370.95 265.01C368.1 269.33 364.79 273.37 361.11 277.03L359.53 278.6L359.33 277.2C358.03 278.45 356.69 279.66 355.3 280.81C354.93 281.12 354.55 281.42 354.17 281.73C353.53 279.86 353.13 277.86 353.01 275.8C352.99 275.37 352.97 274.93 352.97 274.5C352.97 267.97 355.76 262.07 360.24 257.98C363.09 255.37 366.64 253.48 370.58 252.63C372.13 252.29 373.72 252.11 375.37 252.11C375.79 252.11 376.2 252.12 376.61 252.15C376.47 252.49 376.32 252.82 376.17 253.16V253.17Z" fill="#D92D2D"/>
<path d="M294.31 295.65C297.01 296.63 299.72 297.67 302.42 298.28H302.43C303.89 298.62 305.35 298.82 306.81 298.82C307.3 298.82 307.79 298.79 308.28 298.75C311.38 291.29 314.95 283.83 318.88 276.38C317.35 275.41 315.71 274.61 313.96 274.03C312 273.36 309.92 273 307.77 272.9C303.03 279.91 298.55 287.51 294.3 295.66L294.31 295.65Z" fill="#D92D2D"/>
<path d="M312.16 298.05C317.85 296.57 323.56 293.43 329.23 293.18C329.11 291.98 328.9 290.81 328.6 289.67C328.39 288.88 328.14 288.1 327.86 287.34C327.07 285.29 326 283.38 324.67 281.66C323.63 280.3 322.44 279.08 321.13 277.99C317.91 284.29 314.92 290.98 312.16 298.04V298.05Z" fill="#D92D2D"/>
<path d="M304.35 273C296.74 273.84 290.27 278.46 286.88 284.96C286.46 285.71 286.1 286.53 285.79 287.33C285.51 288.09 285.26 288.87 285.05 289.66C284.75 290.8 284.54 291.97 284.42 293.17C286.6 293.27 288.79 293.79 290.97 294.49C294.94 287.25 299.44 280.09 304.34 272.99L304.35 273Z" fill="#D92D2D"/>
<path d="M306.82 145.28C263.91 145.28 229.01 179.97 229.01 222.62C229.01 228.4 229.65 234.07 230.89 239.5C230.97 239.87 231.07 240.25 231.16 240.62C231.51 242.17 231.93 243.68 232.4 245.18C232.52 245.56 232.63 245.93 232.76 246.31C233.06 247.27 233.39 248.22 233.73 249.15C234.17 250.37 234.66 251.58 235.16 252.77C235.31 253.11 235.45 253.46 235.6 253.8C236.34 255.45 237.13 257.06 237.98 258.65C238.22 259.11 238.47 259.56 238.72 260.02C242.28 266.4 246.72 272.24 251.88 277.35C252.22 277.69 252.55 278.01 252.9 278.33C254.23 279.62 255.61 280.84 257.03 282.02C257.41 282.34 257.79 282.65 258.18 282.96C259.11 283.7 260.06 284.42 261.02 285.11C261.84 285.7 262.67 286.29 263.51 286.85C263.84 287.08 264.17 287.29 264.5 287.51C265.82 288.37 267.18 289.19 268.57 289.96C268.77 290.07 268.96 290.18 269.16 290.29C269.3 290.37 269.44 290.45 269.58 290.53C269.8 290.65 270.03 290.77 270.26 290.89C270.77 291.17 271.28 291.43 271.79 291.68H271.81C271.81 291.68 271.83 291.68 271.83 291.7C272.79 292.18 273.75 292.64 274.73 293.09C283.22 296.93 292.51 299.29 302.29 299.85H302.31C303.8 299.93 305.3 299.98 306.81 299.98C308.32 299.98 309.82 299.93 311.31 299.85H311.33C321.1 299.29 330.39 296.93 338.87 293.09C339.84 292.65 340.82 292.18 341.78 291.7C341.78 291.68 341.8 291.68 341.8 291.68H341.82C342.33 291.43 342.85 291.17 343.35 290.89C343.58 290.78 343.81 290.65 344.03 290.52C344.17 290.45 344.31 290.38 344.44 290.3C344.64 290.19 344.84 290.08 345.04 289.96C346.43 289.19 347.79 288.37 349.11 287.51C349.44 287.3 349.77 287.08 350.1 286.85C350.94 286.3 351.77 285.71 352.59 285.12C352.93 284.88 353.26 284.64 353.6 284.37C354.21 283.91 354.82 283.44 355.42 282.96C355.81 282.65 356.19 282.34 356.58 282.02C358.01 280.84 359.39 279.61 360.72 278.33C361.06 278.01 361.39 277.68 361.73 277.35C365.46 273.65 368.81 269.58 371.72 265.2C371.72 265.18 371.74 265.18 371.74 265.17C372.87 263.5 373.92 261.77 374.9 260.01C375.15 259.56 375.41 259.1 375.65 258.64C376.49 257.07 377.28 255.45 378 253.81C378.15 253.47 378.31 253.12 378.45 252.78C378.96 251.59 379.45 250.38 379.89 249.16C380.24 248.23 380.56 247.28 380.86 246.32C380.99 245.95 381.11 245.57 381.22 245.19C381.69 243.7 382.11 242.18 382.46 240.63C382.55 240.26 382.64 239.88 382.73 239.51C383.97 234.08 384.61 228.42 384.61 222.63C384.61 179.99 349.7 145.29 306.8 145.29L306.82 145.28ZM361.39 267.19C359.37 269.66 357.18 272 354.83 274.18C354.23 274.74 353.63 275.29 353.02 275.81C352.13 276.59 351.23 277.33 350.31 278.06C349.44 278.74 348.57 279.4 347.67 280.04C347.51 278.81 347.42 277.64 347.4 276.51V276.43C347.39 276.27 347.39 276.08 347.39 275.91C347.39 274.47 347.49 273.03 347.7 271.63C347.76 271.23 347.82 270.83 347.89 270.43C348.32 268.08 349.05 265.78 350.05 263.58C351.02 261.38 352.29 259.29 353.82 257.35L354.41 256.63C355.85 254.88 357.49 253.31 359.3 251.95C359.64 251.69 359.98 251.44 360.32 251.2C361.57 250.3 362.99 249.47 364.52 248.73C365.44 248.29 366.34 247.92 367.22 247.6L367.27 247.58L368.15 247.29C368.67 247.12 369.18 246.96 369.7 246.81C370.23 246.67 370.76 246.54 371.31 246.43C371.68 246.36 372.04 246.29 372.42 246.23L373.29 246.08C372.92 247.11 372.54 248.13 372.12 249.14C371.64 250.32 371.13 251.48 370.57 252.64C370.27 253.28 369.96 253.92 369.63 254.56C368.17 257.41 366.54 260.15 364.72 262.77C364.68 262.8 363.02 265.16 361.37 267.2L361.39 267.19ZM306.82 152.12C345.69 152.12 377.32 183.75 377.32 222.62C377.32 228.27 376.65 233.79 375.38 239.08C375.26 239.08 375.14 239.09 375.03 239.1C374.04 239.16 373.04 239.26 372 239.42C371.73 238.58 371.44 237.78 371.11 236.99C370.39 235.21 369.53 233.5 368.56 231.93C361.92 220.85 349.8 213.97 336.92 213.97C326.29 213.97 316.17 218.57 309.13 226.61C302.11 218.57 292 213.97 281.36 213.97C268.71 213.97 257.09 220.34 250.29 231C249.26 232.57 248.34 234.26 247.56 236.03C246.95 237.43 246.42 238.86 245.98 240.33C243.61 239.67 241.13 239.25 238.64 239.1C238.52 239.1 238.39 239.08 238.27 239.08C237 233.79 236.33 228.27 236.33 222.62C236.33 183.75 267.96 152.12 306.83 152.12H306.82ZM273.03 275.7C273.03 274.86 273 274.03 272.93 273.22C272.9 272.79 272.86 272.38 272.81 271.97C272.81 271.84 272.79 271.7 272.77 271.57C272.77 271.48 272.76 271.39 272.74 271.3C272.72 271.1 272.69 270.89 272.66 270.69C272.32 268.18 271.7 265.71 270.83 263.35L270.76 263.15C269.46 259.63 267.63 256.33 265.32 253.36L265.27 253.3C263.54 251.07 261.58 249.07 259.46 247.35C259.39 247.29 259.33 247.24 259.25 247.18C258 246.16 256.64 245.2 255.2 244.33C254.24 243.75 253.28 243.22 252.34 242.77C252.98 240.47 253.91 238.24 255.11 236.12C256.04 234.42 257.16 232.84 258.42 231.39C264.15 224.63 272.51 220.76 281.35 220.76C288.65 220.76 295.68 223.41 301.16 228.24C302.6 229.49 303.89 230.84 305.03 232.31C304.39 233.39 303.8 234.53 303.28 235.69C302.53 237.33 301.89 239.07 301.39 240.86C301.32 241.13 301.24 241.4 301.17 241.67C300.39 244.65 300 247.75 300 250.88C300 252.87 300.16 254.85 300.49 256.77C299.12 257 297.76 257.32 296.45 257.72L296.29 257.76C290.35 259.51 284.88 262.82 280.48 267.3C279.05 268.75 277.75 270.32 276.58 271.99C276.44 272.2 276.3 272.4 276.15 272.61C276.14 272.62 276.13 272.65 276.11 272.66C276.04 272.76 275.97 272.88 275.91 272.98C275.69 273.31 275.48 273.64 275.28 273.97C274.85 274.66 274.47 275.36 274.11 276.05C273.97 276.33 273.83 276.6 273.7 276.86C273.66 276.93 273.63 277 273.6 277.07C273.43 277.41 273.26 277.76 273.11 278.09C273.04 278.23 272.98 278.37 272.93 278.51C272.93 278.35 272.95 278.2 272.96 278.05C272.98 277.67 273 277.28 273.01 276.88C273.01 276.75 273.01 276.63 273.01 276.49V275.91C273.01 275.84 273.01 275.77 273.01 275.7H273.03ZM340.3 277.61C339.64 276.16 338.84 274.7 337.92 273.26C337.88 273.19 337.82 273.11 337.78 273.04C336.23 270.64 334.37 268.4 332.24 266.39C329.72 263.97 326.88 261.94 323.79 260.35C321.5 259.16 319.08 258.21 316.66 257.56C316.32 257.45 316 257.38 315.76 257.33C315.66 257.31 315.56 257.28 315.46 257.26C313.84 256.85 312.2 256.57 310.58 256.41C309.62 256.31 308.65 256.26 307.94 256.24C307.73 256.24 307.51 256.23 307.3 256.23C306.99 254.5 306.82 252.71 306.82 250.89C306.82 247.89 307.27 244.91 308.15 242.04C308.67 240.33 309.35 238.69 310.17 237.14C310.9 235.69 311.79 234.26 312.84 232.86C312.86 232.82 312.89 232.79 312.93 232.76L313.03 232.64C314.2 231.07 315.55 229.63 317.03 228.34C322.53 223.46 329.61 220.77 336.95 220.77C346.17 220.77 354.76 224.92 360.51 232.17C361.68 233.63 362.74 235.23 363.63 236.93C364.36 238.33 364.95 239.69 365.42 241.07C364.43 241.42 363.52 241.78 362.69 242.16C361.25 242.79 359.82 243.53 358.46 244.36C358.44 244.37 358.42 244.39 358.39 244.4C356.61 245.47 354.9 246.72 353.32 248.12C347.62 253.07 343.63 259.52 341.79 266.78C341.26 268.78 340.92 270.87 340.76 272.99V273.02C340.68 273.89 340.63 274.82 340.63 275.94C340.63 276.57 340.64 277.19 340.68 277.81C340.68 278.06 340.7 278.3 340.72 278.56C340.59 278.25 340.45 277.94 340.31 277.64L340.3 277.61ZM248.95 262.8C247.12 260.18 245.46 257.42 244.01 254.56C243.68 253.93 243.37 253.28 243.07 252.64C242.52 251.49 242 250.32 241.52 249.14C241.1 248.13 240.71 247.11 240.35 246.07C241.9 246.29 243.41 246.63 244.84 247.06H244.88L245.51 247.28C246.23 247.52 246.94 247.79 247.65 248.07C248.34 248.36 249.03 248.67 249.7 249.02L249.98 249.16C251.19 249.77 252.33 250.47 253.41 251.26C255.1 252.41 256.66 253.76 258.07 255.29C258.73 255.99 259.36 256.72 259.94 257.49C261.84 259.92 263.34 262.64 264.41 265.51C264.73 266.38 265.01 267.26 265.25 268.15L265.28 268.26C265.8 270.25 266.12 272.29 266.21 274.29V274.35C266.23 274.7 266.25 275.05 266.25 275.41C266.25 275.57 266.25 275.72 266.25 275.89C266.25 276.81 266.21 277.73 266.12 278.63C266.09 278.95 266.07 279.26 266.02 279.6C266 279.73 265.98 279.88 265.96 280.01C265.07 279.38 264.2 278.72 263.33 278.05C262.4 277.33 261.5 276.57 260.62 275.79C260.01 275.27 259.41 274.72 258.82 274.17C256.45 271.97 250.66 264.74 248.94 262.77L248.95 262.8ZM284.37 289.45C282.91 288.96 281.46 288.41 280.05 287.82C279.16 287.46 278.28 287.07 277.41 286.67C277.41 286.63 277.42 286.6 277.43 286.57L277.5 286.41V286.28C277.83 284.88 278.24 283.55 278.72 282.31C279.12 281.26 279.57 280.25 280.09 279.28C280.2 279.06 280.31 278.85 280.43 278.65C281.23 277.17 282.21 275.71 283.33 274.33C283.37 274.27 283.43 274.21 283.48 274.16C283.62 273.97 283.77 273.79 283.92 273.61C284.07 273.43 284.23 273.26 284.38 273.09C288.42 268.55 293.73 265.35 299.6 263.9C300.12 263.77 300.64 263.65 301.17 263.55C301.81 263.42 302.44 263.32 303.1 263.24C304.29 263.08 305.51 263.01 306.83 263.01C307.1 263.01 307.37 263.01 307.66 263.02C308.7 263.05 309.59 263.12 310.4 263.22C310.92 263.28 311.46 263.35 311.97 263.44C314.03 263.8 316.07 264.38 318.02 265.17C318.98 265.55 319.9 265.98 320.81 266.46C323.21 267.74 325.46 269.34 327.44 271.21C328.19 271.92 328.91 272.67 329.59 273.45C330.98 275.05 332.18 276.77 333.17 278.59C333.88 279.85 334.49 281.17 334.99 282.5C335.45 283.72 335.83 285 336.13 286.29V286.44L336.19 286.54L336.21 286.67C335.34 287.08 334.46 287.46 333.58 287.82C332.16 288.41 330.72 288.96 329.26 289.45C329.04 289.52 328.8 289.6 328.58 289.67C327.04 290.17 325.47 290.63 323.87 291.01C318.41 292.38 312.69 293.12 306.81 293.12C300.93 293.12 295.2 292.39 289.75 291.01C288.15 290.63 286.58 290.17 285.04 289.67C284.82 289.6 284.58 289.52 284.36 289.45H284.37Z" fill="#1A1A1A"/>
<path d="M242.28 234.6C242.47 234.63 242.66 234.66 242.85 234.69C242.94 234.49 243.02 234.28 243.11 234.08C243.99 232.06 245.04 230.13 246.22 228.33C253.89 216.31 267.03 209.11 281.35 209.11C291.55 209.11 301.52 212.95 309.13 219.72C316.74 212.94 326.71 209.11 336.92 209.11C351.16 209.11 364.59 216.54 372.2 228.57C372.38 226.59 372.47 224.6 372.47 222.61C372.47 186.41 343.02 156.97 306.83 156.97C270.64 156.97 241.19 186.42 241.19 222.61C241.19 226.63 241.56 230.66 242.29 234.6H242.28Z" fill="#D92D2D"/>
<path d="M309.25 314.13H139.1C137.316 314.13 135.87 315.576 135.87 317.36V318.77C135.87 320.554 137.316 322 139.1 322H309.25C311.034 322 312.48 320.554 312.48 318.77V317.36C312.48 315.576 311.034 314.13 309.25 314.13Z" fill="black"/>
<path d="M305.45 319.19C358.723 319.19 401.91 276.003 401.91 222.73C401.91 169.457 358.723 126.27 305.45 126.27C252.177 126.27 208.99 169.457 208.99 222.73C208.99 276.003 252.177 319.19 305.45 319.19Z" stroke="black" stroke-width="9.56" stroke-miterlimit="10"/>
<path d="M202.13 264.5H122.08C120.379 264.5 119 265.879 119 267.58V268.3C119 270.001 120.379 271.38 122.08 271.38H202.13C203.831 271.38 205.21 270.001 205.21 268.3V267.58C205.21 265.879 203.831 264.5 202.13 264.5Z" fill="black"/>
<path d="M188.83 289.9H108.78C107.079 289.9 105.7 291.279 105.7 292.98V293.7C105.7 295.401 107.079 296.78 108.78 296.78H188.83C190.531 296.78 191.91 295.401 191.91 293.7V292.98C191.91 291.279 190.531 289.9 188.83 289.9Z" fill="black"/>
</svg>
