<svg width="24" height="24" viewBox="0 0 24 24" fill="none" xmlns="http://www.w3.org/2000/svg">
<path d="M20.7501 11.9998C20.7501 12.4138 20.4141 12.7498 20.0001 12.7498H5.81115L8.53112 15.4698C8.82412 15.7628 8.82412 16.2378 8.53112 16.5308C8.38512 16.6768 8.19309 16.7508 8.00109 16.7508C7.80909 16.7508 7.61706 16.6778 7.47106 16.5308L3.47106 12.5308C3.40206 12.4618 3.3472 12.3789 3.3092 12.2869C3.2332 12.1039 3.2332 11.8969 3.3092 11.7139C3.3472 11.6219 3.40206 11.5387 3.47106 11.4697L7.47106 7.46975C7.76406 7.17675 8.2391 7.17675 8.5321 7.46975C8.8251 7.76275 8.8251 8.23779 8.5321 8.53079L5.81213 11.2508H20.0001C20.4141 11.2498 20.7501 11.5858 20.7501 11.9998Z" fill="white"/>
</svg>
