<svg width="30" height="36" viewBox="0 0 30 36" fill="none" xmlns="http://www.w3.org/2000/svg">
<g clip-path="url(#clip0_173_9246)">
<path fill-rule="evenodd" clip-rule="evenodd" d="M6.8241 27.1045L7.89933 28.527L7.89877 28.5076L7.89988 28.4895L7.90375 28.4725L7.90983 28.4561L7.91813 28.4409L7.92864 28.4269L7.94136 28.4134L7.95685 28.4017L7.97399 28.39L7.9939 28.38L8.01548 28.3707L8.03981 28.3625L8.06636 28.3554L8.09512 28.349L8.1261 28.3437L8.15928 28.3396L7.12278 26.889L7.08461 26.8937L7.04921 26.9002L7.01603 26.9072L6.98561 26.9154L6.95795 26.9247L6.93251 26.9353L6.90983 26.947L6.88992 26.9599L6.87278 26.9739L6.85784 26.9891L6.84567 27.0055L6.83627 27.0231L6.82908 27.0418L6.82466 27.0611L6.823 27.0822L6.8241 27.1045Z" fill="#BABABA"/>
<path fill-rule="evenodd" clip-rule="evenodd" d="M7.1228 26.889L8.15931 28.3396L8.18641 28.3373L8.21406 28.3355L8.24172 28.3343L8.26937 28.3337L8.29758 28.3343L8.32579 28.3355L8.354 28.3373L8.38276 28.3396L8.41152 28.3431L8.44028 28.3472L8.46904 28.3519L8.49836 28.3572L8.52767 28.3636L8.55698 28.3706L8.58685 28.3782L8.61672 28.387L8.64659 28.3958L8.67701 28.4057L8.70743 28.4163L8.73785 28.428L8.76827 28.4397L8.79924 28.4526L8.83021 28.4666L8.86119 28.4807L8.89271 28.4959L8.92424 28.5117L8.95577 28.5281L8.98729 28.5451L9.01937 28.5632L9.05145 28.5819L9.08353 28.6013L9.11617 28.6218L8.22236 27.2133L8.1853 27.1899L8.14825 27.1677L8.11119 27.146L8.07468 27.1255L8.03818 27.1056L8.00167 27.0869L7.96572 27.0687L7.92977 27.0512L7.89382 27.0348L7.85842 27.019L7.82302 27.0043L7.78763 26.9903L7.75278 26.9774L7.71794 26.9651L7.68309 26.954L7.6488 26.9429L7.61451 26.9335L7.58021 26.9247L7.54648 26.9165L7.51274 26.9095L7.479 26.9031L7.44581 26.8978L7.41263 26.8931L7.37944 26.889L7.34681 26.8861L7.31417 26.8837L7.2821 26.8826H7.24946H7.21794L7.18586 26.8837L7.15433 26.8861L7.1228 26.889Z" fill="#BABABA"/>
<path fill-rule="evenodd" clip-rule="evenodd" d="M6.85665 22.5115L7.92745 24.5311L7.81573 23.3972L6.72778 21.2079L6.85665 22.5115Z" fill="#BABABA"/>
<path fill-rule="evenodd" clip-rule="evenodd" d="M5.48169 28.2939L6.73169 29.5619L6.75713 29.5871L6.78368 29.6111L6.81078 29.6345L6.83899 29.6573L6.86775 29.6796L6.89762 29.7006L6.92859 29.7217L6.96012 29.7416L5.74441 28.5L5.70846 28.4772L5.67306 28.4538L5.63877 28.4292L5.60503 28.4034L5.57295 28.3777L5.54142 28.3501L5.511 28.3226L5.48169 28.2939Z" fill="#BABABA"/>
<path fill-rule="evenodd" clip-rule="evenodd" d="M5.74438 28.5L6.96009 29.7416L6.97834 29.7521L6.99604 29.7627L7.01485 29.7732L7.0331 29.7832L7.05246 29.7931L7.07127 29.8025L7.09118 29.8119L7.11053 29.8212L7.13045 29.83L7.15091 29.8388L7.17138 29.8476L7.19239 29.8558L7.21341 29.864L7.23498 29.8721L7.25655 29.8798L7.27812 29.8868L6.10998 28.6674L6.08509 28.6592L6.0602 28.6504L6.03531 28.6411L6.01153 28.6317L5.98719 28.6223L5.96396 28.6124L5.94073 28.6024L5.9175 28.5919L5.89483 28.5814L5.8727 28.5702L5.85058 28.5597L5.82846 28.548L5.80688 28.5363L5.78587 28.5246L5.7654 28.5129L5.74438 28.5Z" fill="#BABABA"/>
<path fill-rule="evenodd" clip-rule="evenodd" d="M6.11011 28.6675L7.27825 29.8868L7.31752 29.9003L7.35513 29.9126L7.39274 29.9255L7.42869 29.9378L7.46464 29.9501L7.49893 29.9624L7.53267 29.9741L7.56531 29.9858L7.59739 29.9969L7.62891 30.008L7.65878 30.0191L7.68809 30.0303L7.71686 30.0408L7.74451 30.0513L7.77106 30.0613L7.79705 30.0712L7.82194 30.0812L7.84628 30.0911L7.86951 30.1005L7.89163 30.1099L7.91321 30.1187L7.93367 30.1274L7.95358 30.1362L7.97239 30.1444L7.99064 30.1526L8.00778 30.1608L8.02382 30.169L8.03931 30.1766L8.05424 30.1836L8.06752 30.1912L8.08079 30.1983L8.09241 30.2047L7.04595 29.0328L7.03212 29.0252L7.01774 29.017L7.0017 29.0088L6.98511 29L6.96741 28.9912L6.9486 28.9824L6.92869 28.9731L6.90823 28.9637L6.88666 28.9537L6.86398 28.9438L6.8402 28.9338L6.81531 28.9233L6.78931 28.9128L6.76276 28.9022L6.73511 28.8911L6.70635 28.8794L6.67648 28.8683L6.64606 28.856L6.61398 28.8443L6.58135 28.832L6.54761 28.8197L6.51276 28.8068L6.47736 28.7939L6.44031 28.781L6.4027 28.7676L6.36398 28.7541L6.32416 28.7401L6.28323 28.726L6.24174 28.712L6.1986 28.6973L6.15491 28.6827L6.11011 28.6675Z" fill="#BABABA"/>
<path fill-rule="evenodd" clip-rule="evenodd" d="M7.0459 29.0327L8.09236 30.2047L8.11061 30.2158L8.1272 30.2275L8.14269 30.2398L8.15762 30.2521L8.17145 30.265L8.18417 30.2778L7.15099 29.117L7.13661 29.1018L7.12112 29.0872L7.10397 29.0731L7.08572 29.0591L7.06636 29.0456L7.0459 29.0327Z" fill="#BABABA"/>
<path fill-rule="evenodd" clip-rule="evenodd" d="M5.19092 30.5829L6.47853 31.5529L6.48904 31.5581L6.5001 31.5628L6.51061 31.5675L6.52112 31.5722L6.53218 31.5769L6.54269 31.5816L6.5532 31.5862L6.56371 31.5909L5.28882 30.6262L5.27665 30.6209L5.26448 30.6157L5.25231 30.6104L5.24014 30.6045L5.22798 30.5993L5.21525 30.594L5.20309 30.5882L5.19092 30.5829Z" fill="#BABABA"/>
<path fill-rule="evenodd" clip-rule="evenodd" d="M5.28882 30.6261L6.56371 31.5908L6.61459 31.6125L6.66492 31.6324L6.71526 31.6523L6.76614 31.671L6.81703 31.6886L6.86791 31.7056L6.9188 31.7219L6.97023 31.7372L7.02167 31.7512L7.07256 31.7647L7.124 31.7776L7.17599 31.7893L7.22742 31.8004L7.27942 31.8103L7.33085 31.8197L7.38284 31.8279L7.43484 31.8355L7.48738 31.8419L7.53937 31.8478L7.59192 31.8531L7.64446 31.8572L7.697 31.8601L7.74955 31.8624L7.80209 31.8642L7.85519 31.8648H7.90773L7.96083 31.8636L8.01393 31.8619L8.06703 31.8589L8.12068 31.8554L8.17377 31.8507L8.22742 31.8455L7.20143 30.9188L7.13948 30.9246L7.07809 30.9299L7.01725 30.934L6.95585 30.9375L6.89501 30.9393L6.83362 30.9405L6.77278 30.941L6.71249 30.9399L6.65165 30.9387L6.59136 30.9358L6.53108 30.9323L6.47079 30.927L6.4105 30.9217L6.35021 30.9147L6.29048 30.9071L6.23074 30.8989L6.17101 30.8889L6.11127 30.8784L6.05154 30.8667L5.99236 30.8544L5.93318 30.8403L5.874 30.8263L5.81481 30.8105L5.75619 30.7941L5.697 30.7765L5.63838 30.7578L5.5803 30.7385L5.52167 30.718L5.46304 30.6963L5.40497 30.6741L5.34689 30.6507L5.28882 30.6261Z" fill="#BABABA"/>
<path fill-rule="evenodd" clip-rule="evenodd" d="M8.56738 30.3123L9.41639 31.318L9.44404 31.2882L9.47059 31.2583L9.49659 31.2279L9.52092 31.1974L9.54471 31.1658L9.56738 31.1342L9.58895 31.1014L9.60942 31.0686L9.62933 31.0353L9.64758 31.0019L9.66528 30.9674L9.68187 30.9328L9.69736 30.8971L9.71174 30.8614L9.72502 30.8251L9.73774 30.7888L9.74935 30.7514L9.75931 30.7139L9.76871 30.6753L9.77756 30.6366L9.78475 30.5974L9.79083 30.5582L9.79637 30.5178L9.80079 30.4774L9.80356 30.4358L9.80577 30.3943L9.80743 30.3521V30.3094L9.80632 30.2667L9.80466 30.2228L9.8019 30.1789L9.79802 30.1338L9.00599 28.9513L9.01097 29.0028L9.01429 29.0537L9.01594 29.1035L9.01705 29.1533V29.2024L9.01539 29.251L9.01318 29.2984L9.00931 29.3458L9.00433 29.3927L8.99825 29.4389L8.99106 29.4846L8.98276 29.5297L8.9728 29.5741L8.96229 29.618L8.95013 29.6614L8.93741 29.7041L8.92302 29.7462L8.90754 29.7878L8.89095 29.8288L8.87269 29.8692L8.85389 29.9096L8.83342 29.9488L8.81241 29.9874L8.78973 30.0261L8.76595 30.0635L8.74106 30.101L8.71506 30.1373L8.68796 30.1736L8.65975 30.2093L8.62988 30.2438L8.59946 30.2784L8.56738 30.3123Z" fill="#BABABA"/>
<path fill-rule="evenodd" clip-rule="evenodd" d="M8.8103 30.5817L9.62723 31.5522L12.0797 31.2882L11.6289 30.2784L8.8103 30.5817Z" fill="#BABABA"/>
<path fill-rule="evenodd" clip-rule="evenodd" d="M9.00598 28.9513L9.79801 30.1338L9.79469 30.1069L9.79137 30.0793L9.7875 30.053L9.78363 30.0267L9.77921 30.0003L9.77368 29.9746L9.7687 29.9494L9.76261 29.9242L9.75653 29.8996L9.74989 29.8756L9.7427 29.8516L9.73496 29.8276L9.72721 29.8048L9.71892 29.7814L9.71007 29.7591L9.70067 29.7369L9.69126 29.7146L9.68075 29.693L9.67025 29.6719L9.65974 29.6508L9.64812 29.6303L9.63651 29.6104L9.62434 29.5905L9.61217 29.5706L8.79248 28.3044L8.80686 28.3267L8.82069 28.3495L8.83452 28.3729L8.84724 28.3963L8.85996 28.4203L8.87213 28.4449L8.88319 28.4695L8.8948 28.4947L8.90531 28.5205L8.91527 28.5462L8.92467 28.5725L8.93407 28.5995L8.94292 28.627L8.95067 28.6545L8.95841 28.682L8.9656 28.7107L8.97224 28.7394L8.97887 28.7687L8.98441 28.7979L8.98994 28.8278L8.99436 28.8582L8.99879 28.8892L9.00266 28.9203L9.00598 28.9513Z" fill="#BABABA"/>
<path fill-rule="evenodd" clip-rule="evenodd" d="M6.84966 27.1718L7.92156 28.5855L7.9105 28.5668L7.90331 28.5469L7.89944 28.527L6.82422 27.1045L6.82864 27.1273L6.83694 27.1496L6.84966 27.1718Z" fill="#BABABA"/>
<path fill-rule="evenodd" clip-rule="evenodd" d="M10.1809 26.7234L10.8197 28.1957L11.7639 28.0944L11.2661 26.6069L10.1809 26.7234Z" fill="#BABABA"/>
<path fill-rule="evenodd" clip-rule="evenodd" d="M10.2274 27.194L10.8601 28.6048L10.8197 28.1956L10.1809 26.7234L10.2274 27.194Z" fill="#BABABA"/>
<path fill-rule="evenodd" clip-rule="evenodd" d="M11.4386 28.353L11.9143 29.6134L11.8048 28.5035L11.3125 27.0769L11.4386 28.353Z" fill="#BABABA"/>
<path fill-rule="evenodd" clip-rule="evenodd" d="M8.24121 24.246L9.13225 26.0402L9.21632 26.0308L9.29873 26.0197L9.37949 26.008L9.45913 25.9945L9.53656 25.9805L9.61345 25.9652L9.68811 25.9488L9.76168 25.9307L9.83358 25.912L9.90382 25.8921L9.97296 25.871L10.0404 25.8487L10.1063 25.8259L10.1704 25.8013L10.2335 25.7756L10.2949 25.7486L10.3551 25.7211L10.4132 25.6919L10.4702 25.662L10.5255 25.6304L10.5797 25.5982L10.6323 25.5642L10.6831 25.5297L10.7324 25.494L10.7805 25.4565L10.8269 25.4185L10.8717 25.3793L10.9154 25.3389L10.9575 25.2973L10.9978 25.2546L11.0366 25.2107L11.0742 25.1656L10.4735 23.2408L10.4304 23.2924L10.3856 23.3427L10.3391 23.3919L10.2904 23.4399L10.2407 23.4861L10.1892 23.5312L10.1356 23.5751L10.0808 23.6178L10.0238 23.6594L9.96522 23.6992L9.90493 23.7378L9.84298 23.7747L9.77937 23.811L9.71356 23.8455L9.64663 23.8789L9.57749 23.9111L9.50725 23.9421L9.4348 23.9714L9.36068 23.9995L9.28491 24.0264L9.20747 24.0516L9.12838 24.0762L9.04707 24.099L8.96466 24.1207L8.88004 24.1406L8.79376 24.1599L8.70637 24.1775L8.61676 24.1939L8.5255 24.2085L8.43258 24.2225L8.33745 24.2348L8.24121 24.246Z" fill="#BABABA"/>
<path fill-rule="evenodd" clip-rule="evenodd" d="M4.56689 24.6417L5.93526 26.3844L9.13216 26.0402L8.24112 24.246L4.56689 24.6417Z" fill="#BABABA"/>
<path fill-rule="evenodd" clip-rule="evenodd" d="M8.22241 27.2133L9.11622 28.6218L9.3629 27.3778L8.50615 25.7838L8.22241 27.2133Z" fill="#BABABA"/>
<path fill-rule="evenodd" clip-rule="evenodd" d="M23.1764 29.0356L22.1261 30.2075L21.9773 28.7043L23.0061 27.3081L23.1764 29.0356Z" fill="#BABABA"/>
<path fill-rule="evenodd" clip-rule="evenodd" d="M10.3535 28.4695L10.9702 29.7146L11.9144 29.6134L11.4387 28.353L10.3535 28.4695Z" fill="#BABABA"/>
<path fill-rule="evenodd" clip-rule="evenodd" d="M10.4038 28.9771L11.0139 30.1567L10.9702 29.7147L10.3535 28.4696L10.4038 28.9771Z" fill="#BABABA"/>
<path fill-rule="evenodd" clip-rule="evenodd" d="M11.6289 30.2784L12.0797 31.2882L11.958 30.0548L11.489 28.8606L11.6289 30.2784Z" fill="#BABABA"/>
<path fill-rule="evenodd" clip-rule="evenodd" d="M9.78271 19.0671L10.473 21.5345L10.4901 21.5099L10.5067 21.4859L10.5228 21.4614L10.5382 21.4368L10.5526 21.4116L10.5665 21.3864L10.5797 21.3607L10.5924 21.3355L10.6046 21.3097L10.6157 21.2834L10.6267 21.2571L10.6367 21.2307L10.6461 21.2044L10.6549 21.1774L10.6632 21.1505L10.6704 21.123L10.6776 21.0955L10.6837 21.068L10.6892 21.0399L10.6942 21.0118L10.6986 20.9831L10.702 20.955L10.7053 20.9263L10.7075 20.897L10.7092 20.8678L10.7103 20.8385L10.7108 20.8086V20.7794L10.7097 20.7489L10.7086 20.7191L10.7064 20.6886L10.7036 20.6576L10.0476 18.0591L10.0504 18.0942L10.0532 18.1293L10.0548 18.1645L10.0554 18.199L10.0559 18.2329L10.0554 18.2669L10.0537 18.3008L10.0521 18.3342L10.0493 18.3676L10.0454 18.4009L10.0416 18.4337L10.0366 18.4659L10.0311 18.4987L10.0244 18.5303L10.0172 18.5625L10.0095 18.5941L10.0006 18.6252L9.99123 18.6562L9.98128 18.6872L9.97021 18.7176L9.9586 18.7481L9.94643 18.7785L9.93316 18.8084L9.91933 18.8382L9.90495 18.8675L9.89002 18.8968L9.87398 18.9255L9.85683 18.9541L9.83968 18.9828L9.82143 19.0109L9.80207 19.039L9.78271 19.0671Z" fill="#BABABA"/>
<path fill-rule="evenodd" clip-rule="evenodd" d="M11.9751 30.2409L12.3805 31.256L14.7516 31.0008L14.7002 29.9482L11.9751 30.2409Z" fill="#BABABA"/>
<path fill-rule="evenodd" clip-rule="evenodd" d="M14.6267 22.9629L14.6875 24.9239L14.7689 24.9602L14.8502 24.9954L14.9315 25.0293L15.0133 25.0615L15.0952 25.0919L15.177 25.1212L15.2589 25.1493L15.3413 25.1757L15.4237 25.2008L15.5067 25.2242L15.5891 25.2459L15.6726 25.267L15.7556 25.2857L15.8391 25.3033L15.9226 25.3197L16.0061 25.3343L16.0897 25.3478L16.1737 25.3595L16.2583 25.37L16.3424 25.3788L16.427 25.3864L16.5117 25.3922L16.5963 25.3969L16.6815 25.3999L16.7666 25.4016H16.8518L16.9375 25.4004L17.0233 25.3975L17.109 25.3934L17.1947 25.3876L17.281 25.3805L17.3673 25.3718L17.7069 23.478L17.6079 23.488L17.5089 23.4956L17.4099 23.5026L17.3114 23.5073L17.213 23.5102L17.1145 23.512H17.0166L16.9187 23.5096L16.8208 23.5061L16.7235 23.5009L16.6262 23.4944L16.5288 23.4856L16.432 23.4757L16.3352 23.4634L16.2384 23.4499L16.1422 23.4347L16.046 23.4177L15.9497 23.399L15.854 23.3791L15.7583 23.3569L15.6632 23.3334L15.5681 23.3077L15.4729 23.2808L15.3784 23.2521L15.2832 23.2216L15.1892 23.19L15.0946 23.1561L15.0006 23.1209L14.9071 23.0841L14.8137 23.0448L14.7202 23.0045L14.6267 22.9629Z" fill="#BABABA"/>
<path fill-rule="evenodd" clip-rule="evenodd" d="M17.7068 23.4779L17.3672 25.3717L17.4396 25.3635L17.5104 25.3541L17.5807 25.3436L17.6498 25.3319L17.7184 25.319L17.7853 25.3055L17.8517 25.2903L17.917 25.2745L17.9811 25.2569L18.0447 25.2388L18.1067 25.2195L18.1681 25.1996L18.2284 25.1779L18.2881 25.1551L18.3462 25.1317L18.4037 25.1071L18.4601 25.0813L18.516 25.0544L18.5702 25.0263L18.6238 24.997L18.6764 24.9672L18.7278 24.9355L18.7781 24.9034L18.8279 24.87L18.8766 24.8354L18.9242 24.7997L18.9706 24.7629L19.0165 24.7254L19.0608 24.6862L19.1045 24.6464L19.1476 24.6054L19.1891 24.5632L19.8008 22.5483L19.7527 22.5969L19.704 22.6438L19.6537 22.69L19.6023 22.7345L19.5497 22.7778L19.4961 22.82L19.4413 22.8609L19.3854 22.9007L19.3285 22.9394L19.2704 22.9763L19.2112 23.0126L19.1509 23.0471L19.0895 23.0805L19.027 23.1127L18.9629 23.1437L18.8982 23.1735L18.8323 23.2016L18.7649 23.2291L18.6968 23.2549L18.6271 23.2795L18.5569 23.3029L18.485 23.3252L18.4125 23.3462L18.3384 23.3655L18.2638 23.3843L18.1874 23.4012L18.11 23.4171L18.0315 23.4317L17.9524 23.4452L17.8716 23.4574L17.7898 23.468L17.7068 23.4779Z" fill="#BABABA"/>
<path fill-rule="evenodd" clip-rule="evenodd" d="M21.2245 22.8481L20.4275 24.8238L22.7383 24.575L23.8805 22.5619L21.2245 22.8481Z" fill="#BABABA"/>
<path fill-rule="evenodd" clip-rule="evenodd" d="M17.7765 24.4738L17.4275 26.2381L17.8655 30.666L18.2793 29.5625L17.7765 24.4738Z" fill="#BABABA"/>
<path fill-rule="evenodd" clip-rule="evenodd" d="M18.2794 29.5624L17.8657 30.6659L20.3331 30.4001L21.1157 29.2574L18.2794 29.5624Z" fill="#BABABA"/>
<path fill-rule="evenodd" clip-rule="evenodd" d="M19.8225 27.451L19.208 28.8284L20.1671 28.7254L20.9254 27.3322L19.8225 27.451Z" fill="#BABABA"/>
<path fill-rule="evenodd" clip-rule="evenodd" d="M20.887 29.9675L20.1343 31.0183V31.0177L20.887 29.9675Z" fill="#D92D2D"/>
<path fill-rule="evenodd" clip-rule="evenodd" d="M24.9916 26.5232L23.7051 28.0212L23.7327 27.989L23.7593 27.9556L23.7836 27.9211L23.8068 27.886L23.829 27.8502L23.8489 27.8134L23.8677 27.7753L23.8848 27.7367L23.9003 27.6969L23.9141 27.6565L23.9269 27.6149L23.9379 27.5728L23.9473 27.5295L23.9551 27.485L23.9612 27.4399L23.9661 27.3942L23.9695 27.3474L23.9711 27.2994L23.9717 27.2508L23.9706 27.2016L23.9678 27.1513L23.9634 27.0998L25.288 25.4636L25.293 25.5227L25.2963 25.5807L25.298 25.6375L25.2974 25.6937L25.2958 25.7487L25.2919 25.8026L25.2864 25.8552L25.2792 25.9068L25.2698 25.9577L25.2587 26.0074L25.2466 26.056L25.2322 26.1035L25.2156 26.1503L25.1979 26.1959L25.1785 26.2404L25.157 26.2837L25.1337 26.3265L25.1088 26.3675L25.0823 26.4079L25.0535 26.4477L25.0237 26.4857L24.9916 26.5232Z" fill="#BABABA"/>
<path fill-rule="evenodd" clip-rule="evenodd" d="M25.8657 28.7458L24.4658 29.9553L23.343 28.2963L24.5753 26.8392L25.8657 28.7458Z" fill="#BABABA"/>
<path fill-rule="evenodd" clip-rule="evenodd" d="M25.2881 25.4637L23.9634 27.0998L23.9579 27.0512L23.9518 27.0038L23.9446 26.957L23.9369 26.9107L23.928 26.8657L23.9186 26.8218L23.9081 26.7779L23.8965 26.7357L23.8843 26.6936L23.871 26.6526L23.8572 26.6128L23.8423 26.5736L23.8262 26.5349L23.8096 26.4975L23.7925 26.4612L23.7737 26.4249L23.7549 26.3903L23.7344 26.3558L23.7134 26.323L23.6918 26.2902L23.6692 26.2586L23.6454 26.2282L23.621 26.1983L23.5956 26.1691L23.569 26.141L23.5419 26.1135L23.5143 26.0871L23.485 26.0614L23.4557 26.0368L23.4247 26.0128L23.3937 25.9899L23.3611 25.9677L24.5962 24.1624L24.6332 24.1881L24.6697 24.2145L24.7046 24.242L24.7388 24.2707L24.772 24.2999L24.8041 24.3304L24.8356 24.362L24.8655 24.3942L24.8948 24.4275L24.923 24.4621L24.9501 24.4972L24.9761 24.5335L25.001 24.571L25.0254 24.609L25.0486 24.6482L25.0707 24.6886L25.0917 24.7296L25.1122 24.7717L25.131 24.8151L25.1492 24.859L25.1664 24.904L25.1824 24.9503L25.1974 24.9971L25.2117 25.0451L25.225 25.0943L25.2366 25.144L25.2477 25.195L25.2582 25.2465L25.2671 25.2998L25.2754 25.3536L25.2825 25.4081L25.2881 25.4637Z" fill="#BABABA"/>
<path fill-rule="evenodd" clip-rule="evenodd" d="M24.5885 23.1713L23.3546 25.1054L22.8601 25.1587L24.0205 23.2327L24.5885 23.1713Z" fill="#D92D2D"/>
<path fill-rule="evenodd" clip-rule="evenodd" d="M23.1565 23.8942L22.1083 25.734L20.1963 25.9401L20.9585 24.1312L23.1565 23.8942Z" fill="#BABABA"/>
<path fill-rule="evenodd" clip-rule="evenodd" d="M24.5962 24.1623L23.3612 25.9676L23.3307 25.9483L23.2998 25.9296L23.2682 25.9114L23.2362 25.8944L23.2035 25.878L23.1703 25.8628L23.1366 25.8482L23.1023 25.8341L23.0675 25.8213L23.0321 25.809L22.9961 25.7973L22.9596 25.7861L22.9226 25.7762L22.8844 25.7668L22.8462 25.7586L22.8075 25.751L22.7682 25.744L22.7279 25.7381L22.6875 25.7329L22.6466 25.7282L22.6045 25.7241L22.5625 25.7212L22.5193 25.7188L22.4762 25.7177L22.432 25.7171H22.3877L22.3424 25.7182L22.297 25.7194L22.2505 25.7223L22.2035 25.7253L22.1565 25.7294L22.1084 25.734L23.1565 23.8942L23.2113 23.8889L23.266 23.8842L23.3197 23.8807L23.3728 23.8778L23.4253 23.8754L23.4773 23.8749L23.5288 23.8743L23.5791 23.8754L23.6289 23.8766L23.6781 23.8795L23.7268 23.883L23.7749 23.8871L23.8219 23.8924L23.8684 23.8989L23.9148 23.9059L23.9596 23.9135L24.0044 23.9223L24.0487 23.9322L24.0918 23.9428L24.1344 23.9545L24.1764 23.9668L24.2179 23.9796L24.2588 23.9943L24.2987 24.0095L24.3385 24.0253L24.3772 24.0423L24.4154 24.0598L24.453 24.0786L24.4895 24.0979L24.526 24.1184L24.5614 24.14L24.5962 24.1623Z" fill="#BABABA"/>
<path fill-rule="evenodd" clip-rule="evenodd" d="M22.8042 25.268L21.802 26.9294L21.9718 26.9118L22.9989 25.2476L22.8042 25.268Z" fill="#BABABA"/>
<path fill-rule="evenodd" clip-rule="evenodd" d="M22.9988 25.2476L21.9717 26.9119L21.996 26.9095L22.0198 26.9084L22.0436 26.9078L22.0663 26.9084L22.0889 26.9101L22.1111 26.9125L22.1321 26.916L22.1531 26.9207L22.1736 26.9259L22.1935 26.9324L22.2128 26.94L22.2311 26.9482L22.2493 26.9575L22.267 26.9675L22.2847 26.9786L22.3013 26.9909L23.3777 25.3384L23.3588 25.3249L23.3389 25.312L23.3185 25.3003L23.2975 25.2898L23.2759 25.2804L23.2538 25.2716L23.2311 25.2646L23.2079 25.2582L23.1835 25.2529L23.1592 25.2488L23.1337 25.2459L23.1083 25.2441L23.0817 25.2435H23.0546L23.027 25.2453L22.9988 25.2476Z" fill="#BABABA"/>
<path fill-rule="evenodd" clip-rule="evenodd" d="M23.3778 25.3384L22.3015 26.9909L22.3176 27.0038L22.3325 27.0173L22.3469 27.0313L22.3601 27.0465L22.3723 27.0623L22.3839 27.0787L22.395 27.0957L22.4044 27.1139L22.4138 27.1326L22.4215 27.1519L22.4287 27.1718L22.4348 27.1923L22.4403 27.214L22.4453 27.2356L22.4486 27.2585L22.4514 27.2825L23.551 25.6738L23.5476 25.6463L23.5432 25.6205L23.5382 25.5948L23.5316 25.5702L23.5244 25.5468L23.5161 25.5234L23.5073 25.5011L23.4968 25.48L23.4851 25.4596L23.473 25.4397L23.4597 25.4209L23.4453 25.4028L23.4304 25.3852L23.4138 25.3688L23.3966 25.3536L23.3778 25.3384Z" fill="#BABABA"/>
<path fill-rule="evenodd" clip-rule="evenodd" d="M23.5509 25.6737L22.4514 27.2824L22.4536 27.3081L22.4547 27.3333L22.4553 27.3579L22.4547 27.3819L22.453 27.4047L22.4503 27.4269L22.447 27.4486L22.4425 27.4697L22.437 27.4896L22.4309 27.5089L22.4237 27.5276L22.4154 27.5458L22.406 27.5628L22.3961 27.5797L22.385 27.5955L23.4746 26.0337L23.4868 26.0156L23.4984 25.9963L23.5089 25.9764L23.5183 25.9559L23.5266 25.9342L23.5338 25.912L23.5404 25.8891L23.5454 25.8651L23.5493 25.84L23.552 25.8142L23.5543 25.7879L23.5548 25.7603V25.7322L23.5532 25.7036L23.5509 25.6737Z" fill="#BABABA"/>
<path fill-rule="evenodd" clip-rule="evenodd" d="M23.334 17.0276L22.2627 19.7602L23.625 19.6133L24.8999 16.859L23.334 17.0276Z" fill="#BABABA"/>
<path fill-rule="evenodd" clip-rule="evenodd" d="M18.8928 15.2175L18.3994 18.1854L18.4509 18.7064L18.952 15.8164L18.8928 15.2175Z" fill="#BABABA"/>
<path fill-rule="evenodd" clip-rule="evenodd" d="M18.9518 15.8164L18.4507 18.7065L18.5934 20.1553L19.1161 17.4818L18.9518 15.8164Z" fill="#BABABA"/>
<path fill-rule="evenodd" clip-rule="evenodd" d="M19.1162 17.4818L18.5935 20.1553L19.9519 20.0089L20.6776 17.3132L19.1162 17.4818Z" fill="#BABABA"/>
<path fill-rule="evenodd" clip-rule="evenodd" d="M20.6776 17.3132L19.9519 20.0089L20.4276 24.8238L21.2246 22.8481L20.6776 17.3132Z" fill="#BABABA"/>
<path fill-rule="evenodd" clip-rule="evenodd" d="M19.6499 25.7042L19.0581 27.3093L20.0172 27.2063L20.7528 25.5859L19.6499 25.7042Z" fill="#BABABA"/>
<path fill-rule="evenodd" clip-rule="evenodd" d="M17.1307 17.5673L16.8657 20.2297L16.8718 20.2033L16.8807 20.1782L16.8939 20.1553L16.91 20.1331L16.9293 20.1132L16.9526 20.0944L16.9797 20.0775L17.0095 20.0617L17.0433 20.0476L17.0803 20.0347L17.1207 20.0236L17.1649 20.0142L17.2125 20.0061L17.2634 19.9996L17.587 17.3027L17.5289 17.3103L17.4741 17.3197L17.4232 17.3302L17.3768 17.3431L17.3342 17.3578L17.2955 17.3742L17.2612 17.3917L17.2302 17.4116L17.2037 17.4333L17.181 17.4567L17.1622 17.4813L17.1478 17.5082L17.1373 17.5369L17.1307 17.5673Z" fill="#BABABA"/>
<path fill-rule="evenodd" clip-rule="evenodd" d="M17.5867 17.3027L17.2632 19.9996L17.2886 19.9972L17.3141 19.9949L17.3395 19.9931L17.3655 19.9919L17.3915 19.9914L17.4169 19.9908H17.4435L17.4695 19.9914L17.4955 19.9919L17.522 19.9931L17.548 19.9949L17.5746 19.9966L17.6011 19.9996L17.6282 20.0025L17.6548 20.0054L17.6819 20.0095L17.709 20.0136L17.7361 20.0183L17.7632 20.023L17.7903 20.0282L17.8174 20.0341L17.845 20.0405L17.8727 20.047L17.9004 20.054L17.928 20.0616L17.9557 20.0692L17.9839 20.078L18.0115 20.0868L18.0397 20.0956L18.0679 20.1055L18.0961 20.1155L18.1249 20.1254L18.5773 17.4479L18.5447 17.4356L18.5121 17.4244L18.48 17.4133L18.4474 17.4028L18.4153 17.3928L18.3832 17.3829L18.3511 17.3741L18.3196 17.3653L18.2875 17.3571L18.256 17.3495L18.2245 17.3425L18.1929 17.336L18.1614 17.3296L18.1304 17.3238L18.0995 17.3185L18.0679 17.3138L18.0375 17.3097L18.0065 17.3056L17.9756 17.3027L17.9452 17.2997L17.9147 17.2974L17.8843 17.2957L17.8544 17.2939L17.824 17.2933L17.7942 17.2927H17.7643L17.7344 17.2933L17.7046 17.2939L17.6752 17.2957L17.6454 17.2974L17.6161 17.2997L17.5867 17.3027Z" fill="#BABABA"/>
<path fill-rule="evenodd" clip-rule="evenodd" d="M13.9127 17.9495L14.0665 20.5621L14.0631 20.4924L14.0609 20.4228L14.0604 20.3537L14.0609 20.2852L14.0631 20.2167L14.0676 20.1494L14.0731 20.0821L14.0797 20.0159L14.0886 19.9498L14.0985 19.8842L14.1107 19.8198L14.124 19.7554L14.1389 19.6916L14.1555 19.6284L14.1738 19.5664L14.1937 19.5043L14.2147 19.4428L14.2379 19.3826L14.2628 19.3223L14.2888 19.2631L14.317 19.2046L14.3463 19.1466L14.3779 19.0893L14.4105 19.0325L14.4453 18.9769L14.4813 18.9219L14.5195 18.8674L14.5587 18.8136L14.6002 18.7603L14.6433 18.7082L14.6881 18.6567L14.7346 18.6057L14.6804 15.701L14.6273 15.759L14.5759 15.8181L14.5261 15.8784L14.4791 15.9393L14.4332 16.0014L14.3895 16.0634L14.348 16.1272L14.3082 16.1916L14.2706 16.2566L14.2346 16.3221L14.2003 16.3889L14.1682 16.4562L14.1378 16.5247L14.1096 16.5932L14.0831 16.6628L14.0587 16.7337L14.036 16.8045L14.015 16.8765L13.9962 16.9491L13.9785 17.0223L13.9636 17.096L13.9498 17.1704L13.9382 17.2453L13.9282 17.3214L13.9199 17.3975L13.9138 17.4748L13.9094 17.5526L13.9066 17.6305L13.9055 17.7095L13.9061 17.7891L13.9088 17.8687L13.9127 17.9495Z" fill="#BABABA"/>
<path fill-rule="evenodd" clip-rule="evenodd" d="M14.4541 18.0286L14.5376 20.6312L14.5465 20.7132L14.5581 20.7928L14.5719 20.8712L14.5874 20.9473L14.6057 21.0222L14.6256 21.0948L14.6477 21.1662L14.672 21.2353L14.6991 21.3032L14.7279 21.3688L14.7589 21.4332L14.792 21.4952L14.8274 21.5561L14.8651 21.6146L14.9043 21.672L14.9464 21.727L14.9906 21.7803L15.0365 21.8324L15.0852 21.8822L15.1361 21.9308L15.1886 21.977L15.2434 22.0215L15.3009 22.0642L15.3601 22.1058L15.4215 22.145L15.4851 22.1825L15.5509 22.2182L15.6189 22.2521L15.6892 22.2843L15.7616 22.3148L15.8363 22.3435L15.9132 22.3704L16.0354 20.0282L15.9469 19.9972L15.8612 19.9639L15.7782 19.9293L15.6975 19.8919L15.6189 19.8532L15.5437 19.8117L15.4701 19.7689L15.3993 19.7233L15.3313 19.6764L15.2655 19.6267L15.2024 19.5757L15.1416 19.5219L15.0835 19.4669L15.0282 19.4095L14.9746 19.3498L14.9242 19.2883L14.8761 19.2251L14.8302 19.1595L14.7871 19.0916L14.7467 19.022L14.7085 18.9505L14.6726 18.8768L14.6399 18.8013L14.609 18.7234L14.5808 18.6438L14.5553 18.5619L14.5321 18.4781L14.5116 18.3921L14.4934 18.3043L14.4779 18.2147L14.4646 18.1228L14.4541 18.0286Z" fill="#BABABA"/>
<path fill-rule="evenodd" clip-rule="evenodd" d="M16.0353 20.0283L15.9131 22.3705L15.9728 22.3904L16.0309 22.4103L16.0884 22.4296L16.1437 22.4483L16.1979 22.467L16.251 22.4858L16.303 22.5039L16.3534 22.5215L16.402 22.539L16.4501 22.5566L16.4961 22.573L16.5414 22.59L16.5851 22.6064L16.6271 22.6222L16.6681 22.638L16.7079 22.6532L16.7461 22.6684L16.7831 22.6831L16.8185 22.6977L16.8528 22.7117L16.886 22.7258L16.9175 22.7392L16.9479 22.7527L16.9767 22.7656L17.0043 22.7779L17.0309 22.7902L17.0558 22.8025L17.0796 22.8142L17.1017 22.8253L17.1227 22.8364L17.1426 22.8475L17.1609 22.8581L17.4695 20.588L17.4485 20.5762L17.4258 20.5639L17.4015 20.5511L17.376 20.5376L17.3489 20.5241L17.3202 20.5107L17.2897 20.4966L17.2582 20.482L17.225 20.4668L17.1902 20.4516L17.1537 20.4363L17.1155 20.4199L17.0762 20.4041L17.0353 20.3872L16.9927 20.3702L16.9485 20.3532L16.9031 20.3351L16.8561 20.3169L16.8074 20.2988L16.7571 20.28L16.7057 20.2607L16.652 20.2414L16.5973 20.2215L16.5414 20.2016L16.4833 20.1811L16.4241 20.16L16.3628 20.139L16.3003 20.1179L16.2366 20.0956L16.1708 20.0734L16.1039 20.0511L16.0353 20.0283Z" fill="#BABABA"/>
<path fill-rule="evenodd" clip-rule="evenodd" d="M17.4695 20.5879L17.1609 22.858L17.188 22.875L17.214 22.8926L17.2378 22.9113L17.2604 22.93L17.2815 22.9493L17.3008 22.9698L17.3185 22.9903L17.3351 23.012L17.3495 23.0336L17.3622 23.0565L17.3738 23.0793L17.3838 23.1033L17.3921 23.1273L17.3987 23.1525L17.4037 23.1782L17.407 23.204L17.7521 20.986L17.7483 20.9561L17.7427 20.9268L17.735 20.8981L17.7256 20.87L17.7145 20.8431L17.7013 20.8162L17.6863 20.7904L17.6697 20.7653L17.6509 20.7407L17.6305 20.7167L17.6083 20.6938L17.584 20.671L17.558 20.6494L17.5304 20.6283L17.501 20.6078L17.4695 20.5879Z" fill="#BABABA"/>
<path fill-rule="evenodd" clip-rule="evenodd" d="M17.7522 20.986L17.4071 23.204L17.4082 23.2198L17.4077 23.235L17.406 23.2497L17.7511 21.0381L17.7528 21.0211L17.7534 21.0041L17.7522 20.986Z" fill="#BABABA"/>
<path fill-rule="evenodd" clip-rule="evenodd" d="M14.4519 24.1459L14.5354 25.953L15.5448 25.8441L15.6117 24.0206L14.4519 24.1459Z" fill="#D92D2D"/>
<path fill-rule="evenodd" clip-rule="evenodd" d="M15.0459 29.9108L15.0525 30.9686L17.5642 30.6982L17.9336 29.6L15.0459 29.9108Z" fill="#BABABA"/>
<path fill-rule="evenodd" clip-rule="evenodd" d="M19.8009 22.5483L19.1892 24.5632L19.2252 24.5252L19.2606 24.486L19.2943 24.4467L19.3275 24.4069L19.359 24.3665L19.3894 24.3256L19.4193 24.284L19.4475 24.2419L19.4746 24.1991L19.5006 24.1564L19.5255 24.1125L19.5493 24.0686L19.572 24.0235L19.5935 23.9784L19.614 23.9322L19.6333 23.8859L19.6516 23.8391L19.6687 23.7917L19.6842 23.7437L20.3701 21.6064L20.3518 21.6615L20.3325 21.7159L20.3114 21.7698L20.2893 21.823L20.2655 21.8757L20.2412 21.9278L20.2147 21.9793L20.1875 22.0303L20.1588 22.0806L20.1289 22.1298L20.0974 22.179L20.0653 22.2275L20.031 22.275L19.9962 22.3218L19.9597 22.3686L19.9221 22.4143L19.8828 22.4599L19.8424 22.5044L19.8009 22.5483Z" fill="#BABABA"/>
<path fill-rule="evenodd" clip-rule="evenodd" d="M14.4397 17.812L14.5249 20.4427L14.5276 20.5048L14.5321 20.5674L14.5376 20.6312L14.4541 18.0286L14.4474 17.956L14.443 17.8834L14.4397 17.812Z" fill="#BABABA"/>
<path fill-rule="evenodd" clip-rule="evenodd" d="M14.6802 15.7011L14.7344 18.6058L14.7377 18.6023L14.741 18.5988L14.7443 18.5952L14.7482 18.5917L14.7515 18.5876L14.7548 18.5841L14.7582 18.5806L14.762 18.5771L14.7117 15.6677L14.7078 15.6718L14.704 15.6759L14.7001 15.68L14.6962 15.6841L14.6923 15.6882L14.6879 15.6923L14.684 15.697L14.6802 15.7011Z" fill="#BABABA"/>
<path fill-rule="evenodd" clip-rule="evenodd" d="M9.58398 16.2209L10.3002 19.0589L10.3113 19.0653L10.3224 19.0718L10.3329 19.0788L10.3439 19.0858L10.355 19.0923L10.3655 19.0993L10.376 19.1063L10.3871 19.1139L10.3976 19.121L10.4081 19.1286L10.4186 19.1356L10.4291 19.1432L10.4396 19.1508L10.4496 19.159L10.4601 19.1666L10.47 19.1742L9.77923 16.3544L9.76761 16.345L9.75544 16.3363L9.74383 16.3275L9.73166 16.3187L9.71949 16.3099L9.70732 16.3011L9.69571 16.293L9.68299 16.2848L9.67082 16.2766L9.65865 16.2684L9.64648 16.2602L9.63376 16.252L9.6216 16.2444L9.60887 16.2368L9.59615 16.2286L9.58398 16.2209Z" fill="#BABABA"/>
<path fill-rule="evenodd" clip-rule="evenodd" d="M9.7793 16.3544L10.4701 19.1742L10.5094 19.2058L10.547 19.238L10.5841 19.2719L10.6195 19.3065L10.6543 19.3416L10.6875 19.3785L10.7196 19.4159L10.7505 19.454L10.781 19.4932L10.8097 19.5336L10.8374 19.5746L10.8639 19.6161L10.8899 19.6583L10.9143 19.7016L10.9375 19.7449L10.9596 19.7894L10.9806 19.8345L11.0005 19.8802L11.0193 19.9258L11.037 19.9726L11.0536 20.0195L11.0691 20.0669L11.0841 20.1143L11.0973 20.1623L11.1095 20.2109L11.1206 20.2595L10.5265 17.6012L10.5138 17.5456L10.4994 17.49L10.4845 17.435L10.4679 17.38L10.4497 17.3255L10.4308 17.2717L10.4104 17.2178L10.3888 17.1651L10.3656 17.113L10.3418 17.0615L10.3158 17.0106L10.2893 16.9602L10.261 16.9105L10.2317 16.8619L10.2013 16.8139L10.1692 16.7671L10.136 16.7208L10.1018 16.6757L10.0658 16.6318L10.0287 16.5885L9.99058 16.547L9.95076 16.506L9.90983 16.4662L9.86779 16.4275L9.8241 16.3901L9.7793 16.3544Z" fill="#BABABA"/>
<path fill-rule="evenodd" clip-rule="evenodd" d="M10.0476 18.0591L10.7036 20.6576L10.7003 20.6272L10.697 20.5967L10.6931 20.5669L10.6892 20.5376L10.6848 20.5083L10.6798 20.4797L10.6749 20.451L10.6699 20.4229L10.6643 20.3954L10.6583 20.3678L10.6522 20.3403L10.6455 20.314L9.98071 17.6639L9.9879 17.6944L9.99509 17.726L10.0017 17.757L10.0084 17.7892L10.0145 17.8214L10.02 17.8542L10.0255 17.8876L10.0305 17.9209L10.0355 17.9549L10.0399 17.9894L10.0438 18.024L10.0476 18.0591Z" fill="#BABABA"/>
<path fill-rule="evenodd" clip-rule="evenodd" d="M10.6665 19.8315L11.2423 22.2L11.2799 22.2363L11.3164 22.2738L11.3512 22.3112L11.3855 22.3499L11.4187 22.3891L11.4508 22.4289L11.4818 22.4693L11.5116 22.5109L11.5404 22.5524L11.5681 22.5946L11.5946 22.6373L11.6206 22.6806L11.6455 22.7245L11.6687 22.769L11.6914 22.8141L11.713 22.8598L11.734 22.906L11.7533 22.9528L11.7721 22.9997L11.7898 23.0477L11.8059 23.0957L11.8219 23.1443L11.8363 23.1934L11.8496 23.2432L11.8623 23.2935L11.8739 23.3439L11.3927 21.1469L11.3794 21.089L11.3651 21.031L11.349 20.9742L11.3324 20.9174L11.3147 20.8612L11.2954 20.8062L11.2755 20.7512L11.2539 20.6967L11.2318 20.6435L11.208 20.5902L11.1831 20.5381L11.1571 20.486L11.13 20.4351L11.1012 20.3841L11.0719 20.3344L11.041 20.2852L11.0089 20.2366L10.9757 20.1892L10.9414 20.1418L10.906 20.0956L10.8689 20.0493L10.8313 20.0042L10.7921 19.9603L10.7511 19.9164L10.7096 19.8737L10.6665 19.8315Z" fill="#BABABA"/>
<path fill-rule="evenodd" clip-rule="evenodd" d="M10.1675 19.4581L10.808 21.8752L10.8367 21.8916L10.8655 21.9091L10.8937 21.9267L10.9219 21.9449L10.9501 21.9636L10.9778 21.9829L11.0054 22.0022L11.0325 22.0221L11.0596 22.0426L11.0867 22.0637L11.1133 22.0853L11.1393 22.107L11.1658 22.1298L11.1913 22.1527L11.2173 22.1761L11.2421 22.2001L10.6664 19.8316L10.6376 19.8041L10.6083 19.7772L10.5784 19.7508L10.5486 19.7251L10.5181 19.6999L10.4877 19.6753L10.4568 19.6513L10.4258 19.6279L10.3942 19.6045L10.3627 19.5822L10.3306 19.56L10.2986 19.5389L10.2659 19.5178L10.2333 19.4973L10.2007 19.4774L10.1675 19.4581Z" fill="#BABABA"/>
<path fill-rule="evenodd" clip-rule="evenodd" d="M13.9109 23.6354L14.0646 25.5092L14.1393 25.2031L13.9966 23.2836L13.9109 23.6354Z" fill="#BABABA"/>
<path fill-rule="evenodd" clip-rule="evenodd" d="M12.5259 18.8271L12.86 21.3261L12.7981 20.6991L12.4546 18.1064L12.5259 18.8271Z" fill="#BABABA"/>
<path fill-rule="evenodd" clip-rule="evenodd" d="M12.7959 21.5602L13.0951 23.7033L13.0282 23.0266L12.719 20.7822L12.7959 21.5602Z" fill="#BABABA"/>
<path fill-rule="evenodd" clip-rule="evenodd" d="M12.719 20.7823L13.0282 23.0267L14.7212 22.8446L14.6648 20.5728L12.719 20.7823Z" fill="#BABABA"/>
<path fill-rule="evenodd" clip-rule="evenodd" d="M14.6648 20.5727L14.7212 22.8446L14.8512 22.316L14.8147 19.9651L14.6648 20.5727Z" fill="#BABABA"/>
<path fill-rule="evenodd" clip-rule="evenodd" d="M13.9966 23.2837L14.1393 25.2032L14.5475 23.5471L14.4662 21.38L13.9966 23.2837Z" fill="#BABABA"/>
<path fill-rule="evenodd" clip-rule="evenodd" d="M12.4546 18.1065L12.7981 20.6992L14.0663 20.5622L13.9126 17.9496L12.4546 18.1065Z" fill="#BABABA"/>
<path fill-rule="evenodd" clip-rule="evenodd" d="M10.9186 21.5632L11.4618 23.7063L11.4573 23.663L11.4518 23.6197L11.4452 23.5769L11.4385 23.5348L11.4308 23.4932L11.4219 23.4522L11.4125 23.4118L11.4026 23.3714L10.8506 21.1786L10.8622 21.2248L10.8733 21.2711L10.8832 21.3185L10.8921 21.3665L10.8998 21.4145L10.907 21.4637L10.9136 21.5134L10.9186 21.5632Z" fill="#BABABA"/>
<path fill-rule="evenodd" clip-rule="evenodd" d="M9.01221 19.6549L9.80258 22.0462L9.82913 22.0345L9.85513 22.0228L9.88112 22.0105L9.90657 21.9982L9.93145 21.9859L9.95579 21.9724L9.98013 21.9595L10.0045 21.9461L10.0277 21.932L10.0509 21.918L10.0742 21.9033L10.0968 21.8887L10.119 21.8735L10.1405 21.8583L10.1621 21.843L10.1831 21.8272L10.2041 21.8109L10.2246 21.7945L10.2445 21.7775L10.2644 21.7605L10.2838 21.7435L10.3026 21.726L10.3214 21.7078L10.3396 21.6897L10.3573 21.6715L10.375 21.6528L10.3922 21.6335L10.4093 21.6142L10.4259 21.5948L10.442 21.5749L10.4575 21.555L10.4729 21.5345L9.78267 19.0671L9.76497 19.0906L9.74672 19.1134L9.72792 19.1362L9.70911 19.159L9.68975 19.1807L9.66984 19.2029L9.64938 19.224L9.62891 19.2457L9.60789 19.2662L9.58632 19.2867L9.56475 19.3071L9.54207 19.3271L9.5194 19.3464L9.49672 19.3657L9.47294 19.3844L9.44915 19.4032L9.42482 19.4213L9.40048 19.4394L9.37504 19.457L9.3496 19.474L9.3236 19.491L9.29761 19.5074L9.2705 19.5237L9.2434 19.5395L9.21575 19.5554L9.18809 19.5706L9.15988 19.5858L9.13112 19.5998L9.10181 19.6145L9.07249 19.6285L9.04207 19.642L9.01221 19.6549Z" fill="#BABABA"/>
<path fill-rule="evenodd" clip-rule="evenodd" d="M10.4734 23.241L11.0741 25.1657L11.1034 25.1282L11.131 25.0902L11.1581 25.0521L11.1836 25.0129L11.2085 24.9731L11.2317 24.9333L11.2544 24.8929L11.2759 24.8519L11.2958 24.8104L11.3152 24.7682L11.3335 24.7255L11.3506 24.6822L11.3666 24.6383L11.381 24.5944L11.3948 24.5493L11.4076 24.5042L11.4192 24.458L11.4297 24.4117L11.4391 24.3649L11.4474 24.3175L11.4546 24.2695L11.4607 24.2209L11.4656 24.1717L11.4695 24.1225L11.4728 24.0722L11.4745 24.0213L11.475 23.9703L11.4745 23.9188L11.4728 23.8661L11.4706 23.8135L11.4668 23.7602L11.4618 23.7063L10.9186 21.5632L10.9242 21.6253L10.9286 21.6867L10.9319 21.7476L10.9336 21.8073L10.9341 21.867L10.933 21.9256L10.9314 21.9841L10.928 22.0415L10.9236 22.0983L10.9175 22.1551L10.9109 22.2107L10.9026 22.2657L10.8926 22.3201L10.8821 22.374L10.87 22.4273L10.8567 22.4805L10.8423 22.5326L10.8263 22.5836L10.8091 22.6345L10.7909 22.6848L10.7715 22.7346L10.7505 22.7838L10.7284 22.8324L10.7051 22.8798L10.6802 22.9272L10.6548 22.974L10.6277 23.0197L10.5989 23.0653L10.5696 23.1098L10.5387 23.1543L10.5066 23.1976L10.4734 23.241Z" fill="#BABABA"/>
<path fill-rule="evenodd" clip-rule="evenodd" d="M10.4807 24.0049L11.0808 25.8307L14.0648 25.5093L13.911 23.6355L10.4807 24.0049Z" fill="#BABABA"/>
<path fill-rule="evenodd" clip-rule="evenodd" d="M4.44189 24.6552L5.82685 26.3961L5.93526 26.3844L4.56689 24.6417L4.44189 24.6552Z" fill="#BABABA"/>
<path fill-rule="evenodd" clip-rule="evenodd" d="M8.5127 27.574L9.36834 28.9356L9.39212 28.9502L9.41535 28.9649L9.43803 28.9801L9.4607 28.9953L9.48338 29.0111L9.5055 29.0269L9.52708 29.0427L9.54865 29.0591L9.56966 29.0761L9.59068 29.0931L9.61115 29.11L9.63106 29.1276L9.65097 29.1452L9.67033 29.1627L9.68913 29.1815L9.70739 29.1996L8.90263 27.8778L8.88106 27.8561L8.85949 27.8356L8.83736 27.8146L8.81469 27.7947L8.79146 27.7742L8.76823 27.7549L8.74389 27.7355L8.71955 27.7162L8.69522 27.6975L8.66977 27.6788L8.64433 27.6606L8.61889 27.643L8.59289 27.6255L8.56635 27.6079L8.5398 27.591L8.5127 27.574Z" fill="#BABABA"/>
<path fill-rule="evenodd" clip-rule="evenodd" d="M13.5686 28.637L13.7672 29.8605L13.4514 26.666L13.2058 24.9655L13.5686 28.637Z" fill="#BABABA"/>
<path fill-rule="evenodd" clip-rule="evenodd" d="M11.2659 26.6069L11.7637 28.0944L11.642 26.861L11.126 25.1891L11.2659 26.6069Z" fill="#BABABA"/>
<path fill-rule="evenodd" clip-rule="evenodd" d="M6.58398 19.7525L7.69017 22.1309L7.57458 20.9596L6.45068 18.4061L6.58398 19.7525Z" fill="#BABABA"/>
<path fill-rule="evenodd" clip-rule="evenodd" d="M6.45068 18.4062L7.57458 20.9597L8.04692 20.9087L6.99383 18.3477L6.45068 18.4062Z" fill="#BABABA"/>
<path fill-rule="evenodd" clip-rule="evenodd" d="M6.9939 18.3476L8.04699 20.9087L8.08239 20.9058L8.11668 20.9034L8.14987 20.9028L8.18195 20.9034L8.21348 20.9052L8.2439 20.9081L8.27266 20.9122L8.30087 20.9175L8.32852 20.9245L8.35452 20.9327L8.37996 20.9415L8.40374 20.952L8.42697 20.9637L8.4491 20.9766L8.47011 20.9907L8.49058 21.0065L8.50938 21.0228L8.52764 21.041L8.54478 21.0603L8.56082 21.0802L8.57576 21.1019L8.59014 21.1247L8.60341 21.1493L8.61502 21.1745L8.62609 21.2008L7.65983 18.6836L7.6471 18.6532L7.63328 18.6239L7.61779 18.5964L7.60175 18.5701L7.5846 18.5449L7.5658 18.5215L7.54644 18.4998L7.52542 18.4793L7.5033 18.46L7.48062 18.4425L7.45629 18.4261L7.43084 18.4108L7.40374 18.3974L7.37609 18.3857L7.34733 18.3751L7.31691 18.3658L7.28593 18.3582L7.2533 18.3517L7.21956 18.347L7.18527 18.3435L7.14932 18.3418L7.11171 18.3412L7.07354 18.3418L7.03427 18.3441L6.9939 18.3476Z" fill="#BABABA"/>
<path fill-rule="evenodd" clip-rule="evenodd" d="M7.35742 21.1399L8.36351 23.3381L8.40333 23.3346L8.44149 23.3322L8.4791 23.331L8.51561 23.3316L8.55045 23.3334L8.58419 23.3363L8.61738 23.3404L8.6489 23.3463L8.67932 23.3533L8.70864 23.3615L8.7374 23.3714L8.7645 23.3826L8.7905 23.3948L8.81539 23.4089L8.83862 23.4235L8.86129 23.4399L8.88286 23.4581L8.90333 23.4768L8.92213 23.4973L8.94039 23.5189L8.95698 23.5424L8.97302 23.5664L8.9874 23.5921L9.00067 23.6196L9.0134 23.6477L8.1041 21.4959L8.09028 21.4637L8.07479 21.4326L8.0582 21.4028L8.03994 21.3747L8.02059 21.3483L7.99957 21.3232L7.978 21.2997L7.95421 21.2781L7.92988 21.2576L7.90388 21.2389L7.87678 21.2213L7.84802 21.2055L7.81815 21.1914L7.78718 21.1786L7.75455 21.1674L7.72081 21.1575L7.68541 21.1493L7.64946 21.1429L7.61129 21.1382L7.57258 21.1347L7.5322 21.1323H7.49016L7.44758 21.1329L7.40333 21.1358L7.35742 21.1399Z" fill="#BABABA"/>
<path fill-rule="evenodd" clip-rule="evenodd" d="M8.90259 27.8778L9.70734 29.1996L9.72947 29.2224L9.75049 29.2464L9.77095 29.2699L9.79086 29.2944L9.81022 29.319L9.82903 29.3436L9.84672 29.3694L9.86387 29.3951L9.88046 29.4209L9.10115 28.1319L9.08234 28.102L9.06243 28.0727L9.04197 28.0435L9.0204 28.0148L8.99827 27.9861L8.9756 27.9586L8.95181 27.9311L8.92748 27.9042L8.90259 27.8778Z" fill="#BABABA"/>
<path fill-rule="evenodd" clip-rule="evenodd" d="M6.72778 21.2078L7.81573 23.3971L8.36329 23.338L7.35721 21.1399L6.72778 21.2078Z" fill="#BABABA"/>
<path fill-rule="evenodd" clip-rule="evenodd" d="M20.887 29.9675L20.1343 31.0177L18.1802 31.2279L18.6415 30.2093L20.887 29.9675Z" fill="#D92D2D"/>
<path fill-rule="evenodd" clip-rule="evenodd" d="M7.26597 31.5973L8.28422 32.4356L8.22172 32.4421L8.15977 32.4473L8.09727 32.4514L8.03532 32.4543L7.97393 32.4567L7.91198 32.4579H7.85059L7.78864 32.4573L7.72725 32.4555L7.66641 32.4526L7.60502 32.4491L7.54417 32.4438L7.48333 32.438L7.42249 32.4315L7.36165 32.4239L7.30136 32.4151L7.24108 32.4052L7.18079 32.3946L7.1205 32.3823L7.06077 32.37L7.00048 32.356L6.9413 32.3414L6.88156 32.3256L6.82238 32.3092L6.76265 32.2916L6.70402 32.2729L6.64484 32.2536L6.58621 32.2325L6.52758 32.2114L6.46895 32.1886L6.41088 32.1652L6.3528 32.1406L5.04639 31.2578L5.11331 31.2859L5.18024 31.3134L5.24716 31.3392L5.31464 31.3638L5.38212 31.3878L5.45015 31.41L5.51763 31.4317L5.58566 31.4516L5.65424 31.4709L5.72282 31.489L5.79141 31.5054L5.85999 31.5212L5.92858 31.5359L5.99771 31.5493L6.0674 31.5622L6.13654 31.5733L6.20623 31.5833L6.27592 31.5921L6.34561 31.6003L6.41586 31.6067L6.4861 31.612L6.55634 31.6167L6.62659 31.6196L6.69738 31.6219L6.76763 31.6231L6.83842 31.6225L6.90977 31.6213L6.98057 31.619L7.05192 31.6149L7.12327 31.6102L7.19462 31.6044L7.26597 31.5973Z" fill="#D92D2D"/>
<path fill-rule="evenodd" clip-rule="evenodd" d="M5.04643 31.2578L6.35284 32.1405L6.34067 32.1353L6.32795 32.13L6.31578 32.1247L6.30362 32.1189L6.29145 32.1136L6.27928 32.1083L6.26711 32.1025L6.25494 32.0972L4.93359 31.208L4.94742 31.2144L4.9618 31.2209L4.97563 31.2267L4.99001 31.2332L5.00384 31.2396L5.01822 31.2455L5.03205 31.2519L5.04643 31.2578Z" fill="#D92D2D"/>
<path fill-rule="evenodd" clip-rule="evenodd" d="M4.93375 31.208L6.2551 32.0972L5.81539 31.894L4.42822 30.975L4.93375 31.208Z" fill="#D92D2D"/>
<path fill-rule="evenodd" clip-rule="evenodd" d="M5.49516 25.2272L6.7435 26.8938L5.88343 26.9868L4.50732 25.3337L5.49516 25.2272Z" fill="#D92D2D"/>
<path fill-rule="evenodd" clip-rule="evenodd" d="M4.50706 25.3336L5.88316 26.9868L5.3273 27.0465L3.86768 25.4021L4.50706 25.3336Z" fill="#D92D2D"/>
<path fill-rule="evenodd" clip-rule="evenodd" d="M25.6079 17.4678L24.2412 20.1436L22.8789 20.2899L24.0421 17.6369L25.6079 17.4678Z" fill="#D92D2D"/>
<path fill-rule="evenodd" clip-rule="evenodd" d="M27.037 29.3055L25.4844 30.4418L22.7422 30.7374L23.8849 29.6451L27.037 29.3055Z" fill="#D92D2D"/>
<path fill-rule="evenodd" clip-rule="evenodd" d="M23.8848 29.645L22.7421 30.7374L20.1343 31.0183L20.887 29.9676L23.8848 29.645Z" fill="#D92D2D"/>
<path fill-rule="evenodd" clip-rule="evenodd" d="M22.7424 28.5972L21.7485 29.8259L21.4409 30.1719L21.1185 30.502L20.7811 30.8152L20.4288 31.112L20.0626 31.3912L19.6832 31.6517L19.2905 31.8935L18.8856 32.1153L18.4691 32.3173L18.041 32.4976L17.6024 32.6562L17.1533 32.7926L16.6943 32.9056L16.2263 32.9946L15.7496 33.0596L15.27 33.0988L14.7944 33.1123L14.3231 33.1L13.8574 33.0631L13.3972 33.0022L12.9437 32.9179L12.4968 32.8102L12.0582 32.6797L11.6273 32.528L11.2059 32.3542L10.7938 32.1598L10.3917 31.945L10.0007 31.7103L9.6218 31.4568L9.25454 31.184L8.90001 30.8936L8.5593 30.5857L8.23297 30.2608L7.92102 29.919L6.84912 28.7043L7.20753 29.0971L7.58253 29.4706L7.97467 29.8247L8.38175 30.1584L8.80377 30.4716L9.23961 30.7637L9.68872 31.033L10.1506 31.28L10.6246 31.5036L11.1091 31.7032L11.6041 31.8777L12.1085 32.0275L12.6218 32.1511L13.1434 32.2482L13.6727 32.3185L14.2081 32.3606L14.7496 32.3747L15.296 32.3595L15.8469 32.3144L16.395 32.2394L16.9332 32.137L17.4608 32.007L17.9769 31.8508L18.4813 31.6681L18.973 31.4609L19.452 31.2291L19.9177 30.9738L20.3685 30.6964L20.8049 30.3967L21.2258 30.0759L21.6301 29.7346L22.0184 29.374L22.3895 28.9946L22.7424 28.5972Z" fill="#D92D2D"/>
<path fill-rule="evenodd" clip-rule="evenodd" d="M7.20142 30.9188L8.22741 31.8455L8.27443 31.8402L8.32089 31.8338L8.36679 31.8268L8.41215 31.8192L8.45639 31.811L8.50009 31.8022L8.54378 31.7922L8.58637 31.7817L8.62841 31.7706L8.66934 31.7589L8.71027 31.746L8.75009 31.7331L8.78936 31.7191L8.82808 31.7044L8.86624 31.6886L8.90385 31.6728L8.94091 31.6558L8.97686 31.6383L9.01226 31.6201L9.04766 31.6008L9.08195 31.5815L9.11513 31.561L9.14832 31.5399L9.18095 31.5177L9.21248 31.4954L9.24345 31.472L9.27387 31.448L9.30374 31.4234L9.33305 31.3983L9.36126 31.3719L9.38892 31.3456L9.41657 31.3181L8.56757 30.3124L8.53659 30.344L8.50451 30.3744L8.47188 30.4049L8.43814 30.4335L8.40385 30.4622L8.369 30.4897L8.33305 30.5161L8.2971 30.5424L8.25949 30.5676L8.22188 30.5916L8.18316 30.615L8.14389 30.6379L8.10352 30.6595L8.06259 30.6806L8.02111 30.7005L7.97852 30.7198L7.93593 30.7385L7.89168 30.7561L7.84743 30.7731L7.80208 30.7895L7.75617 30.8047L7.70916 30.8193L7.66159 30.8328L7.61347 30.8457L7.56425 30.8574L7.51502 30.8685L7.46414 30.879L7.41325 30.8884L7.36126 30.8972L7.30872 30.9054L7.25507 30.9124L7.20142 30.9188Z" fill="#BABABA"/>
<path fill-rule="evenodd" clip-rule="evenodd" d="M18.6415 30.2094L18.1802 31.2285L15.3677 31.5312L15.4081 30.5571L18.6415 30.2094Z" fill="#D92D2D"/>
<path fill-rule="evenodd" clip-rule="evenodd" d="M14.5432 24.8214L14.6151 26.5407L15.0526 30.9686L15.046 29.9108L14.5432 24.8214Z" fill="#BABABA"/>
<path fill-rule="evenodd" clip-rule="evenodd" d="M12.3374 30.8878L12.6958 31.8186L12.3374 30.8878Z" fill="#D92D2D"/>
<path fill-rule="evenodd" clip-rule="evenodd" d="M12.3374 30.8878L12.6958 31.8186L9.16756 32.1979L8.28149 31.3239L12.3374 30.8878Z" fill="#D92D2D"/>
<path fill-rule="evenodd" clip-rule="evenodd" d="M8.3479 24.9865L9.22511 26.6841L9.23507 26.6256L8.35952 24.9186L8.3479 24.9865Z" fill="#D92D2D"/>
<path fill-rule="evenodd" clip-rule="evenodd" d="M8.19409 24.9368L9.09122 26.6408L9.10781 26.6461L9.12495 26.6514L9.14155 26.6566L9.15814 26.6619L9.17473 26.6672L9.19188 26.673L9.20847 26.6783L9.22507 26.6841L8.34785 24.9865L8.32849 24.9795L8.30969 24.9731L8.29033 24.9666L8.27097 24.9608L8.25161 24.9543L8.23281 24.9485L8.21345 24.9426L8.19409 24.9368Z" fill="#D92D2D"/>
<path fill-rule="evenodd" clip-rule="evenodd" d="M13.791 24.3339L13.9608 26.117L14.2661 29.2101L14.1422 27.8895L13.791 24.3339Z" fill="#D92D2D"/>
<path fill-rule="evenodd" clip-rule="evenodd" d="M14.1421 27.8894L14.266 29.21L14.3147 29.2048L14.198 27.8835L14.1421 27.8894Z" fill="#D92D2D"/>
<path fill-rule="evenodd" clip-rule="evenodd" d="M16.881 24.1909L16.6487 25.9922L16.938 28.9226L17.2134 27.5592L16.881 24.1909Z" fill="#D92D2D"/>
<path fill-rule="evenodd" clip-rule="evenodd" d="M17.2134 27.5593L16.938 28.9227L17.1271 28.9022L17.4308 27.5359L17.2134 27.5593Z" fill="#D92D2D"/>
<path fill-rule="evenodd" clip-rule="evenodd" d="M15.4082 30.5571L15.3678 31.5312L12.6958 31.8186L12.3374 30.8879L15.4082 30.5571Z" fill="#D92D2D"/>
<path fill-rule="evenodd" clip-rule="evenodd" d="M19.5421 23.598L18.9641 25.4765L19.9188 25.3735L20.6394 23.4797L19.5421 23.598Z" fill="#D92D2D"/>
<path fill-rule="evenodd" clip-rule="evenodd" d="M19.5538 18.1199L18.9741 20.7108L18.9913 20.7202L19.0084 20.7295L19.0256 20.7389L19.0422 20.7483L19.0593 20.7582L19.0759 20.7682L19.093 20.7775L19.1096 20.7875L19.1262 20.7974L19.1434 20.808L19.16 20.8179L19.1766 20.8279L19.1926 20.8384L19.2092 20.8489L19.2258 20.8595L19.2418 20.87L19.2579 20.8806L19.2745 20.8911L19.2905 20.9016L19.3065 20.9128L19.322 20.9239L19.3381 20.9344L19.3535 20.9455L19.3696 20.9572L19.3851 20.9684L19.4006 20.9795L19.4155 20.9912L19.431 21.0023L19.4465 21.014L19.4614 21.0257L19.4763 21.0374L19.4913 21.0497L20.1478 18.5097L20.1306 18.4957L20.1135 18.4822L20.0964 18.4688L20.0787 18.4559L20.0615 18.4424L20.0438 18.429L20.0261 18.4161L20.0079 18.4032L19.9902 18.3903L19.9719 18.3774L19.9537 18.3652L19.9354 18.3523L19.9172 18.34L19.8989 18.3277L19.8801 18.3154L19.8613 18.3031L19.8425 18.2908L19.8237 18.2791L19.8049 18.2668L19.7861 18.2551L19.7673 18.2434L19.7479 18.2317L19.7285 18.22L19.7097 18.2089L19.6904 18.1971L19.671 18.186L19.6517 18.1749L19.6323 18.1638L19.6124 18.1527L19.593 18.1415L19.5731 18.131L19.5538 18.1199Z" fill="#D92D2D"/>
<path fill-rule="evenodd" clip-rule="evenodd" d="M8.2816 31.324L9.16766 32.198L9.14167 32.2103L9.11567 32.222L9.08968 32.2331L9.06313 32.2442L9.03658 32.2553L9.01003 32.2653L8.98348 32.2758L8.95638 32.2852L8.92983 32.2951L8.90273 32.3039L8.87563 32.3133L8.84797 32.3215L8.82087 32.3297L8.79322 32.3379L8.76556 32.3455L8.73791 32.3531L8.71025 32.3601L8.6826 32.3671L8.65439 32.3736L8.62618 32.38L8.59797 32.3865L8.57032 32.3923L8.54156 32.3976L8.51335 32.4028L8.48514 32.4081L8.45638 32.4128L8.42817 32.4169L8.39941 32.4216L8.37065 32.4251L8.34189 32.4292L8.31313 32.4327L8.28437 32.4356L7.26611 31.5973L7.2993 31.5933L7.33249 31.5892L7.36567 31.5851L7.39886 31.5804L7.43149 31.5757L7.46412 31.5704L7.49731 31.5652L7.52994 31.5593L7.56257 31.5534L7.59521 31.547L7.62729 31.5406L7.65992 31.5335L7.692 31.5259L7.72408 31.5183L7.75616 31.5107L7.78824 31.5025L7.81976 31.4937L7.85129 31.485L7.88337 31.4756L7.91434 31.4662L7.94587 31.4563L7.9774 31.4457L8.00837 31.4352L8.03934 31.4241L8.07032 31.413L8.10074 31.4012L8.13116 31.3895L8.16158 31.3772L8.192 31.3644L8.22187 31.3515L8.25229 31.338L8.2816 31.324Z" fill="#D92D2D"/>
<path fill-rule="evenodd" clip-rule="evenodd" d="M13.6533 9.70913C19.5509 9.06813 24.8236 13.6084 25.4293 19.8504C26.0349 26.0924 21.7451 31.6729 15.8474 32.3139C9.94972 32.9549 4.67704 28.4146 4.0714 22.1726C3.46576 15.9306 7.75558 10.3501 13.6533 9.70913Z" fill="#FF0000"/>
<path fill-rule="evenodd" clip-rule="evenodd" d="M8.28154 31.324C7.96461 31.4733 7.62003 31.5587 7.26605 31.5968C6.50222 31.6787 5.75776 31.5634 5.04592 31.2578C5.00831 31.2414 4.9707 31.2251 4.93309 31.2075L4.42756 30.9745L4.98121 28.729C4.66705 28.3853 4.48674 27.9416 4.43696 27.4329C4.36561 26.7105 4.57026 26.0602 5.07302 25.5608C5.18475 25.4502 5.30643 25.3507 5.43585 25.2646C5.45521 25.2518 5.47512 25.2389 5.49503 25.2266L4.50665 25.3331L3.86727 25.4016L2.9624 16.2467L7.29481 15.7802C7.78154 15.7275 8.32911 15.7111 8.84072 15.8159L8.79979 15.618L15.5974 14.8857C16.0686 14.6562 16.5841 14.5286 17.1101 14.4718C17.5559 14.4238 18.0039 14.4332 18.4475 14.5023L18.7367 14.5474L25.25 13.8461L25.3241 14.5948L25.6079 17.4661L24.042 17.6347L24.5891 23.1695L24.0205 23.231C24.3424 23.2843 24.6532 23.3943 24.9375 23.5822C25.5509 23.9879 25.8551 24.6424 25.9292 25.3911C25.9917 26.0256 25.8302 26.5712 25.4663 26.9827L27.0371 29.3038L23.885 29.6433L20.8877 29.9659L18.6416 30.2076L15.4082 30.556L12.3368 30.8861L8.28154 31.3228V31.324ZM8.34791 24.9866L8.35953 24.9193L8.3374 24.9216C8.32745 24.9228 8.31694 24.9239 8.30698 24.9251L8.1947 24.9374C8.24614 24.9526 8.29758 24.9696 8.34846 24.9872L8.34791 24.9866ZM14.198 27.8837L13.8468 24.328L13.7915 24.3339L14.1427 27.8895L14.198 27.8837ZM17.4309 27.5359L17.1007 24.194C17.0271 24.194 16.9541 24.1934 16.8805 24.191L17.2135 27.5594L17.4309 27.5359ZM15.6117 24.0207C15.2583 23.9358 14.9099 23.8205 14.5664 23.6747L14.4513 24.1454L15.6117 24.0201V24.0207ZM20.6394 23.4798L20.5597 22.6749C20.4657 22.8007 20.3623 22.9213 20.2517 23.0361C20.0349 23.2603 19.7965 23.4458 19.542 23.598L20.6394 23.4798ZM19.5537 18.12C19.7638 18.2347 19.9663 18.3635 20.1477 18.5099L20.1034 18.0609L19.5537 18.12Z" fill="#FF0000"/>
<path fill-rule="evenodd" clip-rule="evenodd" d="M10.9187 21.5632C10.8656 21.0252 10.6615 20.5856 10.3081 20.2455C9.97123 19.9247 9.53926 19.7286 9.01161 19.6548C9.33738 19.5155 9.59457 19.3188 9.78207 19.0665C9.99667 18.7715 10.0841 18.436 10.047 18.059C10.0099 17.6821 9.91316 17.373 9.75773 17.1312C9.67588 17.0036 9.57687 16.8947 9.46238 16.8046C9.0282 16.4697 8.32743 16.3556 7.36006 16.4592L3.6709 16.8567L4.44192 24.6552L4.56692 24.6417L8.24114 24.246C9.27931 24.1342 10.0232 23.7999 10.4734 23.2409C10.8363 22.7855 10.9851 22.2276 10.9192 21.5638L10.9187 21.5632ZM6.58406 19.7526L6.45077 18.4062L6.99335 18.3476C7.43251 18.3002 7.67256 18.4975 7.71625 18.9371C7.76161 19.3943 7.38384 19.6665 6.58406 19.7526ZM7.35729 21.1399C7.85066 21.0872 8.12001 21.2968 8.16647 21.7675C8.18473 21.9501 8.11061 22.1099 7.94689 22.2457C7.80585 22.3599 7.65154 22.426 7.48561 22.4436L6.85619 22.5115L6.72731 21.2084L7.35674 21.1405L7.35729 21.1399Z" fill="white"/>
<path fill-rule="evenodd" clip-rule="evenodd" d="M13.9126 17.9496C13.8578 17.0879 14.1001 16.3181 14.6803 15.7011C14.6908 15.69 14.7013 15.6788 14.7118 15.6677L9.5835 16.2203V16.2215C9.65097 16.2619 9.71624 16.3058 9.77929 16.3544C10.2644 16.7314 10.5282 17.3337 10.5763 17.9414C10.6189 18.477 10.4933 19.0161 10.2041 19.4101C10.1919 19.4265 10.1797 19.4429 10.1676 19.4587C10.3446 19.5605 10.5121 19.6841 10.6665 19.8322C11.1311 20.2771 11.3838 20.8525 11.4485 21.507C11.5249 22.2808 11.3606 23.0032 10.8805 23.6027C10.7594 23.7543 10.6244 23.8877 10.4801 24.0054L13.9104 23.636L13.9961 23.2842L14.4651 21.3805L12.7953 21.5602L12.7185 20.7828L14.6642 20.5733L14.8141 19.9656C14.438 19.6302 14.172 19.1947 14.0282 18.6661L12.5249 18.8276L12.4541 18.107L13.912 17.9501L13.9126 17.9496Z" fill="white"/>
<path fill-rule="evenodd" clip-rule="evenodd" d="M20.4895 20.8326L20.4204 20.1354C20.3374 19.7672 20.1775 19.4605 19.9419 19.2187C19.6471 18.9178 19.1532 18.6327 18.4641 18.367C17.8955 18.1492 17.5277 17.9923 17.3584 17.894C17.2146 17.8155 17.1383 17.7277 17.1289 17.6329C17.1106 17.4485 17.2638 17.3379 17.5868 17.3033C17.8982 17.27 18.2284 17.318 18.5774 17.4479L18.3584 15.2287L18.3534 15.179C17.9657 15.1181 17.5736 15.1093 17.1759 15.152C16.3003 15.2463 15.6167 15.5396 15.1217 16.0319C15.104 16.0494 15.0863 16.0676 15.0686 16.0857C14.5813 16.5979 14.3761 17.2448 14.4541 18.0292C14.5542 19.0413 15.0808 19.7093 16.0354 20.0283C16.7754 20.2742 17.2533 20.4621 17.4696 20.5885C17.6422 20.6916 17.7362 20.8244 17.7528 20.9866C17.7716 21.178 17.5382 21.3004 17.0514 21.353C16.5514 21.4069 15.9226 21.2166 15.1643 20.784L14.6272 22.9629C15.6206 23.4206 16.6482 23.5921 17.7074 23.478C18.5979 23.382 19.2959 23.0717 19.8014 22.5484C20.2522 22.0818 20.4823 21.5111 20.4906 20.8326H20.4895Z" fill="white"/>
<path fill-rule="evenodd" clip-rule="evenodd" d="M23.8804 22.5619L23.334 17.0276L24.8998 16.859L24.683 14.6673L24.6758 14.5947L18.8926 15.2176L18.9518 15.8164L19.116 17.4819L20.6774 17.3133L21.2244 22.8481L23.8804 22.5619Z" fill="white"/>
<path fill-rule="evenodd" clip-rule="evenodd" d="M23.1765 29.0357L23.0056 27.3082L23.0609 27.3164L23.8756 28.9607L25.8656 28.7465L24.5753 26.8393C25.1129 26.5577 25.3507 26.0988 25.2882 25.4642C25.229 24.8642 24.9978 24.4298 24.5963 24.1629C24.2274 23.9206 23.7478 23.831 23.156 23.8948L20.958 24.1313L21.4608 29.2206L23.1759 29.0362L23.1765 29.0357ZM22.8999 26.234L22.8048 25.2687L22.9995 25.2476C23.1516 25.2312 23.2777 25.2617 23.3784 25.3384C23.479 25.415 23.5365 25.5269 23.5509 25.6732C23.583 25.9963 23.4309 26.1766 23.0946 26.2129L22.8999 26.2334V26.234Z" fill="white"/>
<path fill-rule="evenodd" clip-rule="evenodd" d="M20.9254 27.3321L20.7993 26.0566L19.6964 26.1748L19.65 25.7041L20.7528 25.5859L20.6123 24.1681L17.7766 24.4737L18.2794 29.5624L21.1157 29.2575L20.9752 27.8396L19.8723 27.9585L19.8225 27.4509L20.9254 27.3321Z" fill="white"/>
<path fill-rule="evenodd" clip-rule="evenodd" d="M16.6395 28.3062L16.2766 24.6346L14.5432 24.8214L15.046 29.9107L17.9337 29.5999L17.7932 28.1821L16.6395 28.3062Z" fill="white"/>
<path fill-rule="evenodd" clip-rule="evenodd" d="M13.5685 28.637L13.2056 24.9655L11.4717 25.1516L11.975 30.241L14.7001 29.9483L14.5602 28.5299L13.5685 28.637Z" fill="white"/>
<path fill-rule="evenodd" clip-rule="evenodd" d="M11.4386 28.3531L11.3125 27.077L10.2273 27.1935L10.1809 26.7234L11.266 26.6069L11.1261 25.1891L8.92809 25.4256L8.9032 25.5743L8.5105 27.5517L8.51271 27.5745C8.65652 27.6629 8.79092 27.7636 8.90209 27.8778C9.17477 28.1576 9.31304 28.5199 9.35176 28.9145C9.41481 29.5502 9.24833 30.121 8.81138 30.5735L8.80917 30.5758V30.5823L11.6289 30.279L11.4889 28.8612L10.4038 28.9777L10.3534 28.4702L11.4386 28.3537V28.3531Z" fill="white"/>
<path fill-rule="evenodd" clip-rule="evenodd" d="M6.82421 27.1044C6.8126 26.9838 6.91216 26.9118 7.12289 26.8896C7.45696 26.8533 7.82477 26.9616 8.22244 27.2133L8.50618 25.7838C7.97134 25.5239 7.42045 25.4243 6.85463 25.4852C6.42598 25.5315 6.06813 25.6503 5.77941 25.8429C5.68317 25.9073 5.59468 25.9793 5.51393 26.0595C5.17101 26.399 5.02554 26.8328 5.07809 27.3631C5.12897 27.8806 5.35132 28.2605 5.74457 28.5006C5.85353 28.5673 5.97521 28.6229 6.11017 28.668C6.59302 28.8284 6.90497 28.9507 7.04601 29.0333C7.15884 29.1006 7.22023 29.1872 7.23074 29.2932C7.24291 29.4167 7.09468 29.4963 6.7855 29.5308C6.78163 29.5308 6.7772 29.532 6.77333 29.532C6.447 29.5671 6.0366 29.443 5.54158 29.1609L5.19092 30.5828C5.22355 30.598 5.25618 30.6126 5.28882 30.6267C5.90663 30.8925 6.54435 30.9896 7.20087 30.9188C7.78218 30.8562 8.23793 30.6536 8.56758 30.3123C8.91382 29.9541 9.06039 29.5016 9.00618 28.9519C8.973 28.6141 8.8574 28.3425 8.65994 28.14C8.46747 27.9433 8.14501 27.7577 7.69534 27.5838C7.32421 27.4422 7.08417 27.3391 6.97355 27.2753C6.87952 27.2238 6.82975 27.1665 6.82366 27.105L6.82421 27.1044Z" fill="white"/>
<path fill-rule="evenodd" clip-rule="evenodd" d="M19.2085 11.3406C20.5022 12.0103 21.6488 12.9644 22.5691 14.134L21.8142 14.2166C21.0055 13.2765 20.0337 12.502 18.953 11.9394C19.073 11.755 19.1637 11.5525 19.2085 11.3406ZM8.80864 13.1026C7.8916 13.8759 7.11616 14.8219 6.52158 15.889L5.7666 15.9716C6.48397 14.5426 7.4989 13.2969 8.73397 12.3357L8.80864 13.1026ZM20.2815 30.0425C18.9729 30.9423 17.448 31.5353 15.7887 31.7156C14.1339 31.8953 12.5315 31.6447 11.0802 31.0488L12.6704 30.875C13.6471 31.1056 14.6748 31.1764 15.7251 31.0623C16.7793 30.9475 17.776 30.6554 18.6908 30.2164L20.2815 30.0425Z" fill="white"/>
<path fill-rule="evenodd" clip-rule="evenodd" d="M11.2938 8.51434C11.3972 8.45638 11.6068 8.27608 11.6837 8.17715C11.7988 7.79665 11.9547 7.33654 12.2208 7.06141C12.4088 6.86706 12.7125 6.48246 12.8497 6.24655C12.9398 6.092 13.0211 5.91229 13.0963 5.74897C13.1705 5.58857 13.2755 5.37373 13.3275 5.20631C13.3519 5.12319 13.3734 5.03714 13.3928 4.95108C13.3026 4.51848 13.2556 3.96119 13.4066 3.57894C13.5925 3.10828 14.0797 2.88232 14.5383 2.88232C15.0521 2.88232 15.5206 3.14399 15.8358 3.56898C16.3159 4.21642 16.4879 5.14777 16.3425 5.95093C16.296 6.20791 16.1931 6.51407 16.0394 6.74237C16.0222 6.80559 16.0145 6.88462 16.0128 6.95369C16.1395 6.94784 16.291 6.94316 16.4094 6.92208C16.9033 6.8331 17.4033 6.72012 17.8994 6.88111C18.4376 7.05614 18.8895 7.54845 18.9514 8.15491C18.9691 8.32877 18.9431 8.51844 18.8928 8.70166C19.0797 8.9686 19.2042 9.29407 19.2418 9.6055C19.2844 9.96083 19.2081 10.3425 19.036 10.6598C19.1328 10.9455 19.1693 11.261 19.1417 11.542C19.0974 11.9904 18.822 12.3943 18.4818 12.6817C18.463 12.9211 18.3961 13.1617 18.3126 13.3602C18.0405 14.0094 17.4028 14.2798 16.7855 14.391C16.1964 14.4976 15.603 14.6053 15.0078 14.6668C14.5062 14.7189 14.0001 14.7388 13.4968 14.7604C13.1223 14.7762 12.6931 14.624 12.3375 14.4203L8.53052 15.8305L8.58859 9.00314L11.2949 8.51492L11.2938 8.51434Z" fill="#FF0000"/>
<path fill-rule="evenodd" clip-rule="evenodd" d="M9.1405 9.55576L11.4403 9.14072C11.6394 9.10501 12.1825 8.63963 12.2461 8.42772C12.3275 8.1561 12.4663 7.70652 12.6449 7.52154C12.8241 7.33656 13.2185 6.83898 13.3673 6.58316C13.5161 6.32735 13.8507 5.58976 13.9076 5.39834C13.9641 5.2075 14.0166 4.94466 14.0166 4.94466C14.0166 4.94466 13.8269 4.18132 13.9674 3.82599C14.1079 3.47124 14.8861 3.33075 15.3568 3.96531C15.8275 4.59987 15.8169 5.42936 15.7445 5.8286C15.672 6.22725 15.5055 6.41808 15.5055 6.41808C15.5055 6.41808 15.3894 6.65282 15.4049 7.05323C15.4198 7.45363 15.4469 7.62047 15.4469 7.62047C15.4469 7.62047 16.2898 7.59588 16.5111 7.55549C16.7323 7.51568 17.3236 7.36641 17.7202 7.4952C18.38 7.70945 18.5122 8.31123 18.0631 8.85564C18.7406 9.10208 18.8125 10.137 18.0985 10.5732C18.6903 11.1808 18.3938 11.9242 17.7379 12.2895C18.2544 13.0476 17.2633 13.6511 16.6825 13.7559C15.1676 14.0293 14.8612 14.0574 13.4718 14.1165C12.989 14.137 12.4049 13.7108 12.4049 13.7108L9.0957 14.8916L9.14106 9.55517L9.1405 9.55576Z" fill="white"/>
<path fill-rule="evenodd" clip-rule="evenodd" d="M11.5669 5.58093L9.35842 5.11555L7.1499 4.64958L7.52048 3.73872L7.8905 2.82727L9.72899 4.2041L11.5669 5.58093Z" fill="#FF0000"/>
<path fill-rule="evenodd" clip-rule="evenodd" d="M17.2339 4.60858L19.1504 1.8877L20.4822 3.12696L17.2339 4.60858Z" fill="#FF0000"/>
<path fill-rule="evenodd" clip-rule="evenodd" d="M17.1306 5.82973L22.6655 3.61462L22.7545 5.92749L17.1306 5.82973Z" fill="#FF0000"/>
<path fill-rule="evenodd" clip-rule="evenodd" d="M11.0984 6.79858L9.88767 7.4191L8.67639 8.04019L8.54254 7.46476L8.40869 6.88932L9.75382 6.84366L11.0984 6.79858Z" fill="#FF0000"/>
<path fill-rule="evenodd" clip-rule="evenodd" d="M18.1162 11.9956C18.2733 11.8252 18.3773 11.6256 18.4077 11.4155C18.447 11.1433 18.3629 10.8541 18.1129 10.5895C18.1079 10.5842 18.103 10.5795 18.098 10.5743C18.812 10.1381 18.7401 9.10318 18.0626 8.85673C18.5084 8.31642 18.3817 7.71933 17.7335 7.50098C17.1942 8.31057 16.5128 9.07099 15.7097 9.76877C15.5134 9.93912 15.3098 10.106 15.0996 10.2693C14.8463 10.4654 14.583 10.6556 14.3098 10.84C12.8303 11.8393 11.0692 12.6623 9.10904 13.2577L9.09521 14.8932L12.4044 13.7125C12.4044 13.7125 12.9885 14.1387 13.4713 14.1182C14.8607 14.0591 15.1677 14.031 16.6821 13.7576C17.2634 13.6528 18.254 13.0487 17.7374 12.2912C17.8834 12.2098 18.0117 12.1097 18.1162 11.9968V11.9956Z" fill="#E5E5E5"/>
<path fill-rule="evenodd" clip-rule="evenodd" d="M10.9302 22.0068C9.93187 22.2293 8.90034 22.4008 7.84116 22.5161C7.01318 22.6063 6.19514 22.659 5.38983 22.6759C5.17413 22.6806 4.95897 22.6824 4.74548 22.6824C4.57844 22.6824 4.41196 22.68 4.24658 22.6765L4.3561 23.7852L4.44183 24.6551L4.56683 24.6417L4.58508 24.6399L5.18021 24.5755L5.83231 24.5053L8.24105 24.2459C9.27921 24.1341 10.0231 23.7999 10.4734 23.2408C10.7521 22.8908 10.9048 22.4798 10.9302 22.0068Z" fill="#E5E5E5"/>
<path fill-rule="evenodd" clip-rule="evenodd" d="M13.9968 23.2837L14.4658 21.38L12.796 21.5597L12.7921 21.5217C12.3579 21.6516 11.916 21.7716 11.4669 21.8811C11.463 22.5127 11.2827 23.1005 10.8812 23.6016C10.76 23.7532 10.6251 23.8866 10.4807 24.0043L13.911 23.6349L13.9968 23.2831V23.2837Z" fill="#E5E5E5"/>
<path fill-rule="evenodd" clip-rule="evenodd" d="M20.4895 20.8326L20.4204 20.1354C20.3374 19.7672 20.1776 19.4604 19.942 19.2187C19.739 19.0115 19.4425 18.8124 19.0526 18.6216C18.2301 19.1759 17.3352 19.6858 16.3778 20.1442C16.9248 20.3338 17.2882 20.4819 17.4691 20.5879C17.6416 20.6909 17.7357 20.8238 17.7523 20.986C17.7711 21.1774 17.5377 21.2997 17.0509 21.3524C16.5509 21.4063 15.9221 21.216 15.1638 20.7834L14.6267 22.9622C15.6201 23.42 16.6477 23.5915 17.7069 23.4774C18.5974 23.3814 19.2954 23.0711 19.8009 22.5478C20.2517 22.0812 20.4818 21.5105 20.4895 20.832V20.8326Z" fill="#E5E5E5"/>
<path fill-rule="evenodd" clip-rule="evenodd" d="M23.8805 22.5618L23.3335 17.027L24.0973 16.9444L24.7594 16.873L24.8987 16.8578L24.7572 15.423L24.6825 14.6661L24.6753 14.5935L24.3103 14.6327L23.651 14.7036L23.0862 14.7644C23.0564 14.8072 23.026 14.8505 22.9955 14.8932C22.3667 15.7725 21.589 16.6078 20.6836 17.3829L21.224 22.8469L23.8799 22.5606L23.8805 22.5618Z" fill="#E5E5E5"/>
<path fill-rule="evenodd" clip-rule="evenodd" d="M8.56149 29.6603C8.26725 29.6714 7.9741 29.6784 7.68317 29.6819C6.91935 29.6901 6.16713 29.6696 5.42764 29.6228L5.19092 30.5828C5.22355 30.5981 5.25618 30.6127 5.28882 30.6267C5.90663 30.8925 6.54435 30.9897 7.20087 30.9194C7.73959 30.8615 8.17045 30.6829 8.49346 30.3856C8.5189 30.3621 8.54379 30.3381 8.56758 30.313C8.68871 30.1877 8.7855 30.0507 8.85795 29.902C8.89833 29.8195 8.93041 29.7334 8.95585 29.6433C8.82421 29.6497 8.69258 29.6556 8.56149 29.6609V29.6603Z" fill="#E5E5E5"/>
<path fill-rule="evenodd" clip-rule="evenodd" d="M11.5432 29.4067C11.3021 29.4383 11.0593 29.4676 10.8153 29.494C10.3967 29.5396 9.98072 29.5765 9.56645 29.6058C9.48404 29.6116 9.40218 29.6169 9.31977 29.6222C9.28327 29.7954 9.22519 29.9605 9.14333 30.1168C9.05871 30.2796 8.94864 30.4318 8.81203 30.5728L8.80981 30.5752V30.5816L9.68592 30.4874L10.812 30.3662L11.6295 30.2784L11.5432 29.4067Z" fill="#E5E5E5"/>
<path fill-rule="evenodd" clip-rule="evenodd" d="M14.5923 28.8553C13.7134 29.0591 12.8107 29.2282 11.8882 29.36L11.975 30.2415L14.7001 29.9483L14.5923 28.8553Z" fill="#E5E5E5"/>
<path fill-rule="evenodd" clip-rule="evenodd" d="M17.9335 29.5999L17.7936 28.1821L16.6398 28.3062V28.3051C16.0823 28.476 15.5137 28.6323 14.9341 28.774L15.0464 29.9108L17.9335 29.5999Z" fill="#E5E5E5"/>
<path fill-rule="evenodd" clip-rule="evenodd" d="M20.9751 27.8397L19.8722 27.9585L19.8225 27.451L20.9253 27.3328L20.8562 26.6344C19.9851 27.067 19.0658 27.4616 18.1062 27.8128L18.2793 29.5631L21.0238 29.2681L21.1156 29.2581L21.1095 29.1978L20.9751 27.8403V27.8397Z" fill="#E5E5E5"/>
<path fill-rule="evenodd" clip-rule="evenodd" d="M25.2847 25.4297C25.2449 25.0708 25.142 24.7723 24.9766 24.5346C24.8992 24.4234 24.8085 24.3256 24.7034 24.2413C24.5696 24.3449 24.4341 24.448 24.2963 24.5492C23.9606 24.7969 23.6121 25.0375 23.2521 25.2716C23.2974 25.2874 23.3395 25.3097 23.3776 25.3389C23.4783 25.4156 23.5358 25.5274 23.5502 25.6738C23.5823 25.9969 23.4302 26.1772 23.0939 26.2135L22.8992 26.234L22.8306 25.5386C22.3057 25.8634 21.7576 26.1731 21.1885 26.4658L21.4307 28.9186L21.4606 29.2201L22.1487 29.1457L23.0751 29.0462L23.1758 29.0357L23.1664 28.9432L23.0839 28.1072L23.0048 27.3082L23.0602 27.3164L23.3074 27.8151L23.6033 28.4128L23.8749 28.9607L25.8649 28.7465L24.6055 26.8855L24.5745 26.8399C24.6022 26.8252 24.6293 26.8106 24.6553 26.7948C25.1359 26.5103 25.3472 26.0666 25.288 25.4642C25.2869 25.4525 25.2858 25.4414 25.2842 25.4297H25.2847Z" fill="#E5E5E5"/>
</g>
<defs>
<clipPath id="clip0_173_9246">
<rect width="30" height="36" fill="white"/>
</clipPath>
</defs>
</svg>
