<svg width="20" height="20" viewBox="0 0 20 20" fill="none" xmlns="http://www.w3.org/2000/svg">
<g clip-path="url(#clip0_270_63599)">
<rect width="20" height="20" rx="8" fill="#E5F4D9"/>
<path d="M19.3953 5.07266C18.8707 3.13984 16.8605 1.12969 14.9277 0.605078C13.743 0.309375 12.1551 0.00507812 10 0C7.84531 0.00546875 6.25742 0.309375 5.07266 0.605078C3.13984 1.13008 1.12969 3.13984 0.605078 5.07266C0.309375 6.25742 0.00546875 7.84531 0 10C0.00546875 12.1551 0.309375 13.743 0.605078 14.9277C1.12969 16.8605 3.13984 18.8703 5.07266 19.3953C6.25742 19.691 7.84609 19.9949 10 20.0004C12.1551 19.9949 13.743 19.691 14.9277 19.3953C16.8605 18.8703 18.8707 16.8605 19.3953 14.9277C19.691 13.743 19.9949 12.1543 20.0004 10C19.9949 7.84531 19.691 6.25742 19.3953 5.07266Z" fill="#E5F4D9"/>
<path d="M16.5405 7.28893C16.4854 6.47604 15.7233 5.5526 14.8999 5.41822C11.6444 4.86393 8.36123 6.35338 5.04834 6.06275C4.23272 5.99947 3.5167 6.47369 3.4585 7.28893C3.33936 9.09425 3.33936 10.9055 3.4585 12.7108C3.51357 13.5241 4.27568 14.4475 5.09912 14.5819C8.35459 15.1362 11.6378 13.6467 14.9507 13.9374C15.7663 14.0006 16.4823 13.5264 16.5405 12.7108C16.6597 10.9055 16.6597 9.09425 16.5405 7.28893Z" fill="url(#paint0_linear_270_63599)"/>
<path d="M8.441 10.6719V10.1655C8.441 9.27703 8.91487 8.72404 9.66875 8.72404C10.1242 8.72404 10.4749 8.92908 10.6011 9.2646H10.6411V8.50036H10.1949C10.0134 8.50036 9.9026 8.40405 9.9026 8.25493C9.9026 8.10581 10.0134 8.0095 10.1949 8.0095H10.6565V7.83242C10.6873 7.61805 10.8257 7.5 11.0442 7.5C11.2657 7.5 11.4042 7.61805 11.4381 7.83242V8.0095H11.5673C11.7519 8.0095 11.8565 8.10581 11.8565 8.25182C11.8565 8.40405 11.7519 8.50036 11.5673 8.50036H11.4534V11.6537C11.4534 11.9426 11.3119 12.1041 11.0534 12.1041C10.8165 12.1041 10.6719 11.9581 10.6565 11.7034V11.5449H10.6165C10.5119 11.8835 10.1272 12.1134 9.65951 12.1134C8.91179 12.1134 8.441 11.5605 8.441 10.6719ZM9.27181 10.5849C9.27181 11.1379 9.52412 11.4673 9.95184 11.4673C10.3734 11.4673 10.6411 11.141 10.6411 10.6191V10.1811C10.6411 9.70265 10.3549 9.37955 9.93953 9.37955C9.52105 9.37955 9.27181 9.70575 9.27181 10.2525V10.5849Z" fill="url(#paint1_linear_270_63599)"/>
<path d="M8.16406 12.3837H11.875V12.5391H8.16406V12.3837Z" fill="url(#paint2_linear_270_63599)"/>
</g>
<defs>
<linearGradient id="paint0_linear_270_63599" x1="14.8519" y1="14.8518" x2="5.14795" y2="5.14791" gradientUnits="userSpaceOnUse">
<stop stop-color="#13B601"/>
<stop offset="0.52" stop-color="#13B601"/>
<stop offset="1" stop-color="#CBF4B4"/>
</linearGradient>
<linearGradient id="paint1_linear_270_63599" x1="12.1179" y1="11.3569" x2="9.69337" y2="7.55271" gradientUnits="userSpaceOnUse">
<stop stop-color="#CBF4B4"/>
<stop offset="0.57" stop-color="white"/>
<stop offset="1" stop-color="white"/>
</linearGradient>
<linearGradient id="paint2_linear_270_63599" x1="12.1179" y1="11.3569" x2="9.69337" y2="7.55271" gradientUnits="userSpaceOnUse">
<stop stop-color="#CBF4B4"/>
<stop offset="0.57" stop-color="white"/>
<stop offset="1" stop-color="white"/>
</linearGradient>
<clipPath id="clip0_270_63599">
<rect width="20" height="20" rx="8" fill="white"/>
</clipPath>
</defs>
</svg>
