<svg width="16" height="16" viewBox="0 0 16 16" fill="none" xmlns="http://www.w3.org/2000/svg">
<path d="M11.3334 2.83333H11.1534C11.0887 1.99733 10.5474 1.5 9.66675 1.5H6.33341C5.45275 1.5 4.91143 1.99733 4.84676 2.83333H4.66675C3.05475 2.83333 2.16675 3.72133 2.16675 5.33333V12C2.16675 13.612 3.05475 14.5 4.66675 14.5H11.3334C12.9454 14.5 13.8334 13.612 13.8334 12V5.33333C13.8334 3.72133 12.9454 2.83333 11.3334 2.83333ZM5.83341 3C5.83341 2.60733 5.94075 2.5 6.33341 2.5H9.66675C10.0594 2.5 10.1667 2.60733 10.1667 3V3.66667C10.1667 4.05933 10.0594 4.16667 9.66675 4.16667H6.33341C5.94075 4.16667 5.83341 4.05933 5.83341 3.66667V3ZM12.8334 12C12.8334 13.0513 12.3847 13.5 11.3334 13.5H4.66675C3.61541 13.5 3.16675 13.0513 3.16675 12V5.33333C3.16675 4.282 3.61541 3.83333 4.66675 3.83333H4.84676C4.91143 4.66933 5.45275 5.16667 6.33341 5.16667H9.66675C10.5474 5.16667 11.0887 4.66933 11.1534 3.83333H11.3334C12.3847 3.83333 12.8334 4.282 12.8334 5.33333V12ZM11.1667 8C11.1667 8.276 10.9427 8.5 10.6667 8.5H7.33341C7.05741 8.5 6.83341 8.276 6.83341 8C6.83341 7.724 7.05741 7.5 7.33341 7.5H10.6667C10.9427 7.5 11.1667 7.724 11.1667 8ZM11.1667 10.6667C11.1667 10.9427 10.9427 11.1667 10.6667 11.1667H7.33341C7.05741 11.1667 6.83341 10.9427 6.83341 10.6667C6.83341 10.3907 7.05741 10.1667 7.33341 10.1667H10.6667C10.9427 10.1667 11.1667 10.3907 11.1667 10.6667ZM5.83341 8C5.83341 8.276 5.60941 8.5 5.33341 8.5C5.05741 8.5 4.83341 8.276 4.83341 8C4.83341 7.724 5.05741 7.5 5.33341 7.5C5.60941 7.5 5.83341 7.724 5.83341 8ZM5.83341 10.6667C5.83341 10.9427 5.60941 11.1667 5.33341 11.1667C5.05741 11.1667 4.83341 10.9427 4.83341 10.6667C4.83341 10.3907 5.05741 10.1667 5.33341 10.1667C5.60941 10.1667 5.83341 10.3907 5.83341 10.6667Z" fill="#7C7D80"/>
</svg>
