<svg width="16" height="16" viewBox="0 0 16 16" fill="none" xmlns="http://www.w3.org/2000/svg">
<path fill-rule="evenodd" clip-rule="evenodd" d="M8.00004 1.33325C4.31804 1.33325 1.33337 4.31792 1.33337 7.99992C1.33337 11.6819 4.31804 14.6666 8.00004 14.6666C11.682 14.6666 14.6667 11.6819 14.6667 7.99992C14.6667 4.31792 11.682 1.33325 8.00004 1.33325ZM10.3534 10.3533C10.2561 10.4506 10.128 10.4999 10 10.4999C9.87204 10.4999 9.74402 10.4513 9.64669 10.3533L7.64669 8.35327C7.55269 8.25927 7.50004 8.13192 7.50004 7.99992V4.66659C7.50004 4.39059 7.72404 4.16659 8.00004 4.16659C8.27604 4.16659 8.50004 4.39059 8.50004 4.66659V7.79256L10.3534 9.64592C10.5487 9.84192 10.5487 10.1579 10.3534 10.3533Z" fill="#7C7D80"/>
</svg>
