<svg width="16" height="16" viewBox="0 0 16 16" fill="none" xmlns="http://www.w3.org/2000/svg">
<path d="M14 6.6665V4.6665C14 3.33317 13.3333 2.6665 12 2.6665H4C2.66667 2.6665 2 3.33317 2 4.6665V6.6665C2.73333 6.6665 3.33333 7.2665 3.33333 7.99984C3.33333 8.73317 2.73333 9.33317 2 9.33317V11.3332C2 12.6665 2.66667 13.3332 4 13.3332H12C13.3333 13.3332 14 12.6665 14 11.3332V9.33317C13.2667 9.33317 12.6667 8.73317 12.6667 7.99984C12.6667 7.2665 13.2667 6.6665 14 6.6665ZM6.34001 5.6665H6.34668C6.71535 5.6665 7.01335 5.96517 7.01335 6.33317C7.01335 6.70117 6.71535 6.99984 6.34668 6.99984C5.97868 6.99984 5.67668 6.70117 5.67668 6.33317C5.67668 5.96517 5.97201 5.6665 6.34001 5.6665ZM6.33333 10.1665C6.20533 10.1665 6.07731 10.1178 5.97998 10.0198C5.78465 9.8245 5.78465 9.50783 5.97998 9.3125L9.31331 5.97917C9.50865 5.78383 9.82534 5.78383 10.0207 5.97917C10.216 6.1745 10.216 6.49117 10.0207 6.6865L6.68734 10.0198C6.58934 10.1178 6.46133 10.1665 6.33333 10.1665ZM9.68001 10.3332C9.31201 10.3332 9.01001 10.0345 9.01001 9.6665C9.01001 9.2985 9.30534 8.99984 9.67334 8.99984H9.68001C10.0487 8.99984 10.3467 9.2985 10.3467 9.6665C10.3467 10.0345 10.048 10.3332 9.68001 10.3332Z" fill="#D92D2D"/>
</svg>
