<svg width="56" height="56" viewBox="0 0 56 56" fill="none" xmlns="http://www.w3.org/2000/svg">
<path d="M54.308 14.2034C52.8391 8.79156 47.2106 3.16422 41.7988 1.69422C38.4803 0.867344 34.0353 0.0153125 28.0011 0C21.9669 0.0153125 17.5219 0.86625 14.2034 1.69422C8.79266 3.16422 3.16422 8.79156 1.69422 14.2034C0.867344 17.5208 0.0153125 21.9669 0 28.0011C0.0153125 34.0353 0.86625 38.4803 1.69422 41.7988C3.16422 47.2106 8.79156 52.838 14.2034 54.308C17.5219 55.1359 21.9669 55.9869 28.0011 56.0022C34.0342 55.9869 38.4803 55.1359 41.7988 54.308C47.2106 52.838 52.838 47.2106 54.308 41.7988C55.1359 38.4814 55.9869 34.0353 56.0022 28.0011C55.9869 21.9669 55.1359 17.5219 54.308 14.2034Z" fill="#FFE5E5"/>
<path d="M28.4681 45.0112C25.6987 45.0801 20.2573 44.6502 18.4778 44.227C17.2659 43.971 16.1262 43.2656 15.2665 42.2845C14.4079 41.3012 13.8654 40.0882 13.7397 38.8621C13.7386 38.849 13.7375 38.837 13.7353 38.8238C13.5822 37.3265 13.65 36.0665 13.65 36.0665C13.65 36.0665 13.5822 35.2538 13.7353 33.7817C13.7364 33.7696 13.7375 33.7565 13.7397 33.7445C13.8654 32.537 14.4101 31.4115 15.272 30.5485C16.135 29.6878 17.279 29.1278 18.492 28.9976C20.2759 28.8084 25.7053 28.7056 28.4648 28.7056C31.2243 28.7056 35.6529 28.8084 37.4368 28.9976C38.6509 29.1278 39.795 29.6878 40.6568 30.5485C41.5198 31.4126 42.0634 32.5381 42.1892 33.7456C42.1903 33.7576 42.1914 33.7707 42.1936 33.7828C42.3478 35.2571 42.327 36.0643 42.327 36.0654C42.327 36.0654 42.3478 37.3298 42.1936 38.8282C42.1925 38.8403 42.1914 38.8534 42.1892 38.8654C42.0634 40.0926 41.5209 41.3056 40.6623 42.2888C39.8037 43.271 38.664 43.9754 37.4511 44.2313C35.6715 44.6349 31.2342 45.0309 28.4648 45.0123L28.4681 45.0112Z" fill="#D92D2D"/>
<path d="M27.803 26.6315C32.5667 26.6315 36.4284 22.7698 36.4284 18.0062C36.4284 13.2425 32.5667 9.38086 27.803 9.38086C23.0394 9.38086 19.1777 13.2425 19.1777 18.0062C19.1777 22.7698 23.0394 26.6315 27.803 26.6315Z" fill="#D92D2D"/>
</svg>
