<svg width="80" height="80" viewBox="0 0 80 80" fill="none" xmlns="http://www.w3.org/2000/svg">
<path d="M37.5704 53.2193C36.9234 53.2193 36.3985 53.7443 36.3985 54.3912V56.3365C36.3985 56.6473 36.522 56.9454 36.7418 57.1651C36.9615 57.3849 37.2596 57.5084 37.5704 57.5084C38.2179 57.5084 38.7423 56.984 38.7423 56.3365V54.3912C38.7423 54.0804 38.6188 53.7823 38.3991 53.5625C38.1793 53.3428 37.8812 53.2193 37.5704 53.2193ZM22.7546 53.2193C22.1078 53.2193 21.5828 53.7443 21.5828 54.3912V56.3365C21.5828 56.6473 21.7062 56.9454 21.926 57.1651C22.1458 57.3849 22.4438 57.5084 22.7546 57.5084C23.4021 57.5084 23.9265 56.984 23.9265 56.3365V54.3912C23.9271 53.7443 23.4021 53.2193 22.7546 53.2193ZM32.586 54.8301C32.3878 54.6995 31.5107 54.362 30.9632 55.1659C30.8755 55.2981 30.7565 55.4067 30.6169 55.482C30.4772 55.5574 30.3211 55.5972 30.1625 55.5979C30.0075 55.5979 29.6181 55.5557 29.3623 55.1659C29.0065 54.6251 28.2801 54.4743 27.7393 54.8301C27.6107 54.9145 27.4999 55.0234 27.4134 55.1507C27.3269 55.2779 27.2662 55.4209 27.235 55.5716C27.2038 55.7223 27.2026 55.8776 27.2314 56.0287C27.2602 56.1799 27.3186 56.3239 27.4031 56.4524C27.7029 56.9105 28.1123 57.2866 28.5941 57.5466C29.0759 57.8066 29.615 57.9424 30.1625 57.9417C31.2781 57.9417 32.3096 57.3851 32.9218 56.4524C33.0064 56.3239 33.0648 56.18 33.0937 56.0288C33.1226 55.8777 33.1214 55.7224 33.0902 55.5717C33.0591 55.421 32.9985 55.278 32.912 55.1507C32.8255 55.0235 32.7147 54.9145 32.586 54.8301ZM24.7735 42.5737C25.0482 42.7193 25.3694 42.7498 25.6665 42.6586C25.9637 42.5674 26.2124 42.3618 26.358 42.0872C26.5036 41.8126 26.5341 41.4914 26.4429 41.1942C26.3517 40.8971 26.1461 40.6484 25.8715 40.5028C25.0062 40.0443 24.4898 39.4718 24.4898 38.972C24.4898 38.4715 25.0062 37.8996 25.8717 37.4407C26.982 36.8517 28.5462 36.5142 30.1625 36.5142C31.7793 36.5142 33.3431 36.8517 34.4539 37.4407C35.3187 37.8996 35.8357 38.4715 35.8357 38.972C35.8357 39.472 35.3187 40.0443 34.4539 40.5028C33.3429 41.0918 31.7793 41.4298 30.1625 41.4298C29.8517 41.4298 29.5536 41.5532 29.3338 41.773C29.114 41.9928 28.9906 42.2909 28.9906 42.6017C28.9906 42.9125 29.114 43.2105 29.3338 43.4303C29.5536 43.6501 29.8517 43.7735 30.1625 43.7735C34.7328 43.7735 38.1795 41.7088 38.1795 38.972C38.1795 36.2345 34.7328 34.1704 30.1625 34.1704C25.5921 34.1704 22.1454 36.2345 22.1454 38.972C22.1454 40.3959 23.0787 41.6746 24.7735 42.5735V42.5737Z" fill="#7C7D80"/>
<path d="M75.3699 24.8919C69.9165 21.1856 63.5487 19.2266 56.9543 19.2266C55.2699 19.2266 53.6005 19.3553 51.9574 19.6073L58.7476 14.3723C59.5814 13.7345 60.1334 12.7964 60.2862 11.7578C60.439 10.7191 60.1804 9.66185 59.5655 8.81093C58.9566 7.95544 58.038 7.37129 57.005 7.18275C55.972 6.99421 54.9063 7.21617 54.0344 7.8014L50.0329 10.4673L52.7954 6.53187C53.4018 5.67482 53.6499 4.61491 53.4866 3.57775C53.3234 2.5406 52.7618 1.6081 51.9215 0.978741C51.0858 0.34301 50.0351 0.0584857 48.9928 0.18572C47.9506 0.312954 46.9992 0.8419 46.341 1.65999L26.4876 26.1509L21.3513 29.572C17.9908 30.5448 15.0227 33.1841 14.1151 34.3925L2.75459 41.9597C1.34772 42.8966 0.405998 44.3284 0.102561 45.9909C-0.20072 47.6542 0.174592 49.3259 1.15975 50.6994C2.1449 52.0733 3.716 53.2194 6.161 53.2762C6.11209 55.2342 6.9985 57.1159 8.61819 58.3415C11.0199 60.1592 13.3666 59.525 13.8765 59.3937C14.7932 60.7322 16.153 61.9487 17.9108 62.9772C21.2018 64.9022 25.553 65.9623 30.1624 65.9623C34.7718 65.9623 39.123 64.9022 42.4146 62.9772C44.6113 61.6923 46.186 60.1134 47.0515 58.3689C47.6912 58.5961 50.2905 59.4811 52.588 57.5664C52.8296 57.3648 53.1702 57.3808 53.4241 57.5664C54.4551 58.3189 55.6757 58.7169 56.9544 58.7169C58.233 58.7169 59.4538 58.3189 60.4841 57.5664C60.7387 57.3808 61.0663 57.3814 61.3208 57.5664C62.3512 58.3189 63.5718 58.7169 64.8512 58.7169C67.2144 58.7169 69.3635 57.3222 70.3272 55.1634C70.439 54.9125 70.6751 54.7501 70.943 54.7405C71.7885 54.7087 72.6177 54.4986 73.3762 54.1238C74.1347 53.749 74.8054 53.218 75.3443 52.5658C75.8781 51.9176 76.27 51.1646 76.4946 50.3554C76.7192 49.5463 76.7715 48.699 76.648 47.8684C76.609 47.6055 76.7194 47.3472 76.9433 47.1781C78.443 46.0442 79.3116 44.3169 79.3251 42.4394C79.3329 41.3066 79.0082 40.2037 78.3979 39.2472C81.391 34.4555 80.0824 28.0944 75.3699 24.8919ZM57.3572 21.5739C58.3918 23.9067 58.8141 26.4781 58.5768 29.0562C58.493 29.9633 57.6874 30.6322 56.7805 30.5498C56.764 30.548 55.163 30.3287 55.2882 28.7376C55.4852 26.2412 54.9274 23.8206 53.7085 21.743C54.7816 21.6289 57.223 21.572 57.3572 21.5739ZM51.1579 22.1245C52.5007 23.9519 53.136 26.2083 52.9516 28.5539C52.7357 31.2908 54.3904 32.9001 56.9349 32.9001C58.974 32.9001 60.7202 31.3408 60.9107 29.2711C61.1488 26.6905 60.8124 24.1136 59.9404 21.7167C61.6545 21.8838 63.3513 22.1968 65.0122 22.6525C65.7673 24.6451 65.8223 26.865 65.1563 28.9647C64.3262 31.5812 66.1274 33.5276 67.6954 34.0001C70.5251 34.8539 72.1907 33.1412 72.746 31.4665C72.8747 31.0791 72.9908 30.6841 73.0915 30.2922C73.1297 30.1431 73.1382 29.9879 73.1165 29.8356C73.0947 29.6832 73.0432 29.5366 72.9649 29.4042C72.8865 29.2717 72.7828 29.156 72.6597 29.0636C72.5366 28.9712 72.3965 28.904 72.2474 28.8658C72.0983 28.8275 71.9432 28.819 71.7908 28.8408C71.6384 28.8625 71.4918 28.914 71.3594 28.9924C71.2269 29.0708 71.1112 29.1745 71.0188 29.2976C70.9265 29.4207 70.8592 29.5608 70.821 29.7098C70.7328 30.0527 70.633 30.3925 70.5219 30.7286C70.2351 31.5928 69.2976 32.063 68.4333 31.7759C68.418 31.7711 66.908 31.1944 67.3908 29.6733C68.0316 27.6525 68.1305 25.537 67.704 23.5289C69.9425 24.376 72.0734 25.4839 74.0527 26.8297C77.8107 29.3841 78.7902 34.5187 76.236 38.2775C74.6973 40.5419 69.5935 43.6131 64.7724 40.4503C59.939 37.28 53.7958 37.2844 49.1212 40.4612C48.7114 40.7397 48.2776 40.9807 47.8247 41.1815V38.972C47.8247 37.625 47.439 36.3244 46.7012 35.1151C48.8087 34.6569 50.1832 32.5933 49.7766 30.4631C49.2994 27.96 48.2868 25.6089 46.8213 23.5667C46.8207 23.5667 49.8969 22.3686 51.1579 22.1245ZM44.4135 24.2723C45.9541 26.1839 47.0082 28.4587 47.4744 30.9025C47.6447 31.7967 47.0557 32.6634 46.1616 32.8344C46.1451 32.8375 44.546 33.0698 44.2262 31.5062C43.7927 29.3864 42.801 27.4278 41.3874 25.855C42.3657 25.2713 43.376 24.743 44.4135 24.2723ZM39.4019 27.163C40.3626 28.1517 41.1041 29.3572 41.5699 30.6803C40.3527 30.0548 39.0162 29.5366 37.5891 29.1373C38.0808 28.3841 38.6933 27.717 39.4019 27.163ZM48.1616 3.13577C48.4385 2.79163 48.8387 2.5691 49.2771 2.51553C49.7155 2.46195 50.1575 2.58156 50.5091 2.8489C50.8627 3.11355 51.0991 3.50578 51.1678 3.94209C51.2365 4.37839 51.1322 4.82429 50.8771 5.18483L44.654 14.0501L33.0463 21.782L48.1616 3.13577ZM55.334 9.75202C55.7007 9.50586 56.149 9.41252 56.5835 9.49187C57.0181 9.57121 57.4045 9.81698 57.6605 10.1769C57.9192 10.5348 58.028 10.9796 57.9637 11.4165C57.8994 11.8534 57.6671 12.248 57.3163 12.5162L46.316 20.9972C43.5621 21.9439 40.9467 23.2535 38.5388 24.8912C37.1302 25.8489 35.9882 27.1134 35.1874 28.5905C32.0563 28.0448 28.3937 28.1956 27.5288 28.2733L55.334 9.75202ZM19.0937 33.1633C22.0319 31.4451 25.9626 30.4992 30.1624 30.4992C34.3622 30.4992 38.2929 31.4451 41.2312 33.1633C43.9716 34.7661 45.4804 36.829 45.4804 38.9714C45.4804 41.1144 43.971 43.1773 41.2312 44.7801C38.2929 46.4983 34.3622 47.4442 30.1624 47.4442C25.9626 47.4442 22.0319 46.4983 19.0937 44.7801C16.3538 43.1773 14.8444 41.1144 14.8444 38.9714C14.8444 36.829 16.3538 34.7661 19.0937 33.1633ZM3.06412 49.3333C1.43397 46.8297 3.18131 44.4914 4.05412 43.9103L12.538 38.2584C12.5143 38.4947 12.5008 47.0653 12.5008 47.0653L8.51881 50.1353C7.68803 50.7756 4.69537 51.8369 3.06412 49.3333ZM8.55615 52.8026C9.0474 52.5969 12.5008 50.0248 12.5008 50.0248V55.1458C12.5008 55.85 12.6071 56.5415 12.8133 57.2142C9.32397 57.4064 8.23569 55.0922 8.55615 52.8026ZM41.2312 60.9537C38.293 62.672 34.3624 63.6186 30.1626 63.6186C25.9627 63.6186 22.0321 62.672 19.0938 60.9537C16.354 59.3511 14.8446 57.2881 14.8446 55.1458V44.4151C15.6655 45.2867 16.6921 46.09 17.911 46.8028C21.2019 48.7278 25.5532 49.7881 30.1626 49.7881C34.7719 49.7881 39.1232 48.7278 42.4147 46.8028C43.633 46.0905 44.6596 45.2872 45.4805 44.4151V55.1458C45.4805 57.288 43.9718 59.3511 41.2313 60.9537H41.2312ZM75.5301 45.3087C74.6633 46.0411 74.1652 47.1056 74.3301 48.2139C74.4051 48.7196 74.3732 49.2354 74.2365 49.7281C74.0999 50.2207 73.8614 50.6792 73.5366 51.0741C73.2085 51.4713 72.7999 51.7946 72.338 52.0228C71.876 52.251 71.3709 52.3788 70.856 52.398C69.6883 52.4417 68.666 53.1351 68.1869 54.2083C67.8991 54.8525 67.431 55.3996 66.8391 55.7838C66.2473 56.1679 65.5569 56.3726 64.8513 56.3731C64.0724 56.3731 63.3297 56.1314 62.7035 55.6736C62.1813 55.2905 61.5506 55.084 60.903 55.084C60.2553 55.084 59.6246 55.2905 59.1024 55.6736C58.4795 56.13 57.7268 56.3751 56.9546 56.3731C56.1757 56.3731 55.433 56.1314 54.8068 55.6736C53.7294 54.8876 52.3085 54.9236 51.2057 55.6736C49.7018 56.6966 48.1666 56.2914 47.7535 56.1333C47.7999 55.8073 47.8243 43.6925 47.8243 43.6925C48.7511 43.3843 49.6308 42.9492 50.4383 42.3997C54.3265 39.7569 59.4485 39.7612 63.4866 42.4101C65.4866 43.7223 67.4422 44.1564 69.1543 44.1564C73.6452 44.1564 75.6813 42.1434 76.7568 41.1791C76.9063 41.5764 77.7205 43.4569 75.5301 45.3087Z" fill="#7C7D80"/>
</svg>
