<svg width="21" height="20" viewBox="0 0 21 20" fill="none" xmlns="http://www.w3.org/2000/svg">
<path d="M19.8953 5.07266C19.3707 3.13984 17.3605 1.12969 15.4277 0.605078C14.243 0.309375 12.6551 0.00507812 10.5 0C8.34531 0.00546875 6.75742 0.309375 5.57266 0.605078C3.63984 1.13008 1.62969 3.13984 1.10508 5.07266C0.809375 6.25742 0.505469 7.84531 0.5 10C0.505469 12.1551 0.809375 13.743 1.10508 14.9277C1.62969 16.8605 3.63984 18.8703 5.57266 19.3953C6.75742 19.691 8.34609 19.9949 10.5 20.0004C12.6551 19.9949 14.243 19.691 15.4277 19.3953C17.3605 18.8703 19.3707 16.8605 19.8953 14.9277C20.191 13.743 20.4949 12.1543 20.5004 10C20.4949 7.84531 20.191 6.25742 19.8953 5.07266Z" fill="#FFEEEE"/>
<path d="M5.63433 8.75332C5.63433 8.41817 5.36264 8.14648 5.02749 8.14648C4.69234 8.14648 4.42065 8.41817 4.42065 8.75332C4.42065 9.08847 4.69234 9.36016 5.02749 9.36016C5.36264 9.36016 5.63433 9.08847 5.63433 8.75332Z" fill="#E64646"/>
<path d="M10.3863 5.15401C10.7199 5.02432 11.0503 4.90362 11.3722 4.7919C11.8075 4.64228 12.2803 4.64228 12.7156 4.7919C13.7921 5.16299 14.9687 5.64815 16.0402 6.21573C16.691 6.55713 17.0796 7.24815 17.0949 7.93448C17.1373 9.31026 17.1373 10.6862 17.0949 12.0622C17.0781 12.7505 16.6894 13.4415 16.0402 13.7829C14.9687 14.3505 13.7921 14.8356 12.7156 15.2067C12.2803 15.3564 11.8075 15.3564 11.3722 15.2067C10.5273 14.9166 9.69855 14.5814 8.88941 14.2028H6.14918C5.98901 14.2028 5.83541 14.1392 5.72215 14.026C5.6089 13.9127 5.54527 13.7591 5.54527 13.5989V13.5939C5.54527 13.4337 5.6089 13.2801 5.72215 13.1668C5.83541 13.0536 5.98901 12.9899 6.14918 12.9899H7.25152C7.41169 12.9899 7.56529 12.9263 7.67855 12.8131C7.7918 12.6998 7.85543 12.5462 7.85543 12.386V12.3829C7.85543 12.2227 7.7918 12.0691 7.67855 11.9559C7.56529 11.8426 7.41169 11.779 7.25152 11.779H4.47574C4.39617 11.779 4.31739 11.7633 4.24391 11.7327C4.17044 11.7022 4.10372 11.6574 4.04761 11.601C3.99149 11.5446 3.94707 11.4777 3.9169 11.404C3.88674 11.3304 3.87142 11.2515 3.87183 11.172V11.1661C3.87183 11.006 3.93546 10.8523 4.04871 10.7391C4.16197 10.6258 4.31557 10.5622 4.47574 10.5622H7.25152C7.41121 10.5622 7.56441 10.499 7.67758 10.3863C7.79076 10.2736 7.85471 10.1207 7.85543 9.96104V9.95479C7.85543 9.87548 7.83981 9.79695 7.80946 9.72368C7.77911 9.65041 7.73463 9.58384 7.67855 9.52776C7.62247 9.47168 7.5559 9.4272 7.48263 9.39685C7.40936 9.3665 7.33083 9.35088 7.25152 9.35088H6.59879C6.43869 9.35088 6.28514 9.28731 6.1719 9.17414C6.05866 9.06097 5.99498 8.90746 5.99488 8.74737V8.74112C5.99488 8.66181 6.0105 8.58328 6.04085 8.51001C6.0712 8.43674 6.11568 8.37017 6.17176 8.31409C6.22784 8.25801 6.29441 8.21353 6.36768 8.18318C6.44095 8.15283 6.51948 8.13721 6.59879 8.13721H7.25152C7.33083 8.13721 7.40936 8.12159 7.48263 8.09124C7.5559 8.06089 7.62247 8.01641 7.67855 7.96033C7.73463 7.90425 7.77911 7.83768 7.80946 7.76441C7.83981 7.69114 7.85543 7.61261 7.85543 7.5333V7.52705C7.85585 7.37448 7.79847 7.22741 7.69483 7.11543C7.59119 7.00346 7.44899 6.9349 7.29683 6.92354H5.33668C5.17658 6.92344 5.02307 6.85976 4.9099 6.74652C4.79673 6.63328 4.73316 6.47973 4.73316 6.31963V6.31338C4.73316 6.15328 4.79673 5.99974 4.9099 5.88649C5.02307 5.77325 5.17658 5.70958 5.33668 5.70948H9.0859L10.3863 5.15401Z" fill="url(#paint0_linear_241_1389)"/>
<path d="M10.3856 5.15381C11.8145 5.62256 13.4891 6.25576 15.0586 7.03115C15.2083 7.10482 15.336 7.21646 15.429 7.35492C15.522 7.49338 15.5771 7.65382 15.5887 7.82021C15.6313 8.60146 15.6516 9.40537 15.6473 10.2081C15.6486 10.227 15.6447 10.2459 15.6361 10.2628C15.6275 10.2796 15.6146 10.2939 15.5986 10.304C15.5826 10.3142 15.5642 10.3199 15.5453 10.3204C15.5264 10.321 15.5076 10.3165 15.4911 10.3073L15.1122 10.0812C15.0943 10.0705 15.0731 10.067 15.0527 10.0712C15.0323 10.0754 15.0143 10.087 15.002 10.1038C14.8372 10.3202 14.6676 10.5401 14.4942 10.7612C14.4803 10.7804 14.4605 10.7947 14.4379 10.8018C14.4153 10.809 14.391 10.8086 14.3685 10.8009C14.3461 10.7931 14.3268 10.7784 14.3134 10.7588C14.3 10.7392 14.2933 10.7158 14.2942 10.6921C14.3047 9.88701 14.2969 9.071 14.2711 8.28193C14.2636 8.11008 14.2081 7.94376 14.1111 7.80172C14.014 7.65968 13.8793 7.54757 13.7219 7.47803C12.0879 6.74639 9.08364 5.70771 9.08364 5.70771H9.07935L10.3856 5.15381Z" fill="url(#paint1_linear_241_1389)"/>
<defs>
<linearGradient id="paint0_linear_241_1389" x1="15.4998" y1="15" x2="3.99976" y2="6.5" gradientUnits="userSpaceOnUse">
<stop stop-color="#C41B1B"/>
<stop offset="0.54" stop-color="#E64646"/>
<stop offset="1" stop-color="#FFCCCC"/>
</linearGradient>
<linearGradient id="paint1_linear_241_1389" x1="15.82" y1="10.0847" x2="10.2606" y2="4.52529" gradientUnits="userSpaceOnUse">
<stop stop-color="#FFDDCE"/>
<stop offset="0.57" stop-color="white"/>
<stop offset="1" stop-color="white"/>
</linearGradient>
</defs>
</svg>
