<svg width="20" height="20" viewBox="0 0 20 20" fill="none" xmlns="http://www.w3.org/2000/svg">
<path d="M17.1585 8.76682C17.6168 9.52516 17.6168 10.4751 17.1585 11.2335C16.1335 12.9418 13.8417 15.8335 10.0001 15.8335C9.37673 15.8335 8.7901 15.7543 8.2451 15.6168C8.05926 15.5701 8.00082 15.3319 8.13666 15.1969L9.71665 13.6169C9.81332 13.5202 9.93339 13.5418 10.0001 13.5418C11.9534 13.5418 13.5417 11.9526 13.5417 10.0001C13.5417 9.93348 13.5318 9.80177 13.6009 9.7326L15.8859 7.44765C15.9917 7.34182 16.17 7.35273 16.2625 7.47023C16.6291 7.93357 16.9276 8.37766 17.1585 8.76682ZM17.9418 2.94183L2.94175 17.9418C2.82008 18.0635 2.66006 18.1251 2.50006 18.1251C2.34006 18.1251 2.18004 18.0643 2.05837 17.9418C1.8142 17.6977 1.8142 17.3018 2.05837 17.0576L5.14593 13.9701C4.0876 13.0692 3.31999 12.0301 2.84165 11.2326C2.38332 10.4743 2.38332 9.52434 2.84165 8.76601C3.86665 7.05768 6.15839 4.16599 10.0001 4.16599C11.5201 4.16599 12.7893 4.62175 13.8443 5.27175L17.0584 2.05764C17.3025 1.81347 17.6984 1.81347 17.9426 2.05764C18.1867 2.3018 18.1859 2.69767 17.9418 2.94183ZM7.10008 12.0159L8.00747 11.1085C7.82247 10.7794 7.70839 10.4051 7.70839 10.0001C7.70839 9.70848 7.76668 9.43348 7.86668 9.17515C8.02501 9.30848 8.22497 9.39182 8.44997 9.39182C8.96664 9.39182 9.39174 8.96672 9.39174 8.45005C9.39174 8.22505 9.3084 8.02509 9.17507 7.86676C9.4334 7.76676 9.70839 7.70847 10.0001 7.70847C10.4051 7.70847 10.7801 7.82255 11.1085 8.00755L12.0158 7.10016C11.4425 6.69849 10.7492 6.45847 10.0001 6.45847C8.05006 6.45847 6.45839 8.05014 6.45839 10.0001C6.45839 10.7501 6.69841 11.4426 7.10008 12.0159Z" fill="#7C7D80"/>
</svg>
