<svg width="16" height="16" viewBox="0 0 16 16" fill="none" xmlns="http://www.w3.org/2000/svg">
<path d="M8.00004 1.66675C4.87537 1.66675 2.33337 4.20875 2.33337 7.33341C2.33337 10.6554 5.41937 12.6941 7.46138 14.0427L7.81471 14.2774C7.87071 14.3148 7.93537 14.3334 7.99937 14.3334C8.06337 14.3334 8.12804 14.3148 8.18404 14.2774L8.53737 14.0427C10.5794 12.6941 13.6654 10.6554 13.6654 7.33341C13.6667 4.20875 11.1247 1.66675 8.00004 1.66675ZM8.00004 9.00008C7.07937 9.00008 6.33337 8.25408 6.33337 7.33341C6.33337 6.41275 7.07937 5.66675 8.00004 5.66675C8.92071 5.66675 9.66671 6.41275 9.66671 7.33341C9.66671 8.25408 8.92071 9.00008 8.00004 9.00008Z" fill="#7C7D80"/>
</svg>
