<svg width="20" height="20" viewBox="0 0 20 20" fill="none" xmlns="http://www.w3.org/2000/svg">
<path d="M19.3957 5.07266C18.8711 3.13984 16.8609 1.13008 14.9281 0.605078C13.7434 0.309375 12.1555 0.00507812 10.0004 0C7.84531 0.00546875 6.25781 0.309375 5.07266 0.605078C3.14023 1.13008 1.13008 3.13984 0.605469 5.07266C0.309766 6.25742 0.00585938 7.84531 0 10C0.00546875 12.1551 0.309375 13.7426 0.605078 14.9277C1.13008 16.8605 3.13984 18.8703 5.07266 19.3953C6.25781 19.691 7.84531 19.9949 10.0004 20.0004C12.1551 19.9949 13.743 19.691 14.9281 19.3953C16.8609 18.8703 18.8707 16.8605 19.3957 14.9277C19.6914 13.743 19.9953 12.1551 20.0008 10C19.9953 7.84492 19.6914 6.25742 19.3957 5.07227V5.07266Z" fill="#FFEEEE"/>
<path d="M6.29966 16.1522C7.29536 16.4733 8.60942 16.6499 10.0004 16.6499C11.3915 16.6499 12.7055 16.473 13.7012 16.1522C15.1993 15.6694 15.5133 15.0081 15.5133 14.5382C15.5133 14.0683 15.2071 13.4214 13.7469 12.9394C13.4883 12.8538 13.209 12.9944 13.1235 13.2534C13.0379 13.5124 13.1786 13.7913 13.4375 13.8769C14.3325 14.1726 14.5262 14.4784 14.5262 14.5382C14.5262 14.598 14.3254 14.9136 13.3981 15.2124C12.4977 15.5026 11.2911 15.6624 10.0004 15.6624C8.70981 15.6624 7.50317 15.5026 6.60278 15.2124C5.67544 14.9136 5.47466 14.5995 5.47466 14.5382C5.47466 14.4769 5.66841 14.1726 6.56333 13.8769C6.82231 13.7913 6.96255 13.5124 6.87739 13.2534C6.79185 12.9944 6.51294 12.8542 6.25396 12.9394C4.79419 13.4214 4.48755 14.0749 4.48755 14.5382C4.48755 15.0015 4.802 15.6694 6.29966 16.1522Z" fill="url(#paint0_linear_241_1398)"/>
<path d="M9.80195 14.9454C9.93008 15.0013 10.0762 15.0013 10.2039 14.9454C11.7176 14.2864 14.823 11.1427 14.823 8.16768C14.823 5.50713 12.666 3.3501 10.0055 3.3501H9.99531C7.33477 3.3501 5.17773 5.50713 5.17773 8.16768C5.17773 11.1427 8.28789 14.2864 9.80195 14.9454Z" fill="url(#paint1_linear_241_1398)"/>
<path d="M7.66725 8.11094C7.361 8.13711 7.18522 7.76406 7.41334 7.55039C8.08717 6.92344 8.80553 6.32031 9.56725 5.7457C9.81842 5.55547 10.1829 5.55547 10.434 5.7457C11.1954 6.32031 11.9137 6.92344 12.588 7.55039C12.8161 7.76445 12.6403 8.13711 12.334 8.11094C12.302 8.1082 12.2696 8.10586 12.2376 8.10313C12.1958 8.54883 11.9262 9.88398 11.859 10.1074C11.7458 10.4797 11.3633 10.816 10.9794 10.882C10.8922 10.8957 10.7938 10.909 10.6825 10.9203C10.7098 10.6801 10.7208 9.59922 10.6837 9.51641C10.6493 9.37344 10.5098 9.23555 10.3665 9.20391C10.279 9.18594 10.161 9.16836 10.0005 9.16797C9.8399 9.16797 9.72194 9.18594 9.63444 9.20391C9.49108 9.23555 9.35162 9.37344 9.31725 9.51641C9.28014 9.59922 9.29108 10.6801 9.31842 10.9203C9.20709 10.909 9.10865 10.8957 9.02154 10.882C8.63795 10.816 8.25553 10.4797 8.14186 10.1074C8.07428 9.88359 7.80514 8.54883 7.76334 8.10313C7.73131 8.10586 7.69889 8.1082 7.66686 8.11094H7.66725Z" fill="url(#paint2_linear_241_1398)"/>
<defs>
<linearGradient id="paint0_linear_241_1398" x1="12.9864" y1="17.5241" x2="7.0145" y2="11.5526" gradientUnits="userSpaceOnUse">
<stop stop-color="#C41B1B"/>
<stop offset="0.26" stop-color="#C41B1B"/>
<stop offset="0.66" stop-color="#D92D2D"/>
<stop offset="1" stop-color="#E97070"/>
</linearGradient>
<linearGradient id="paint1_linear_241_1398" x1="13.5715" y1="12.0595" x2="6.43086" y2="4.91885" gradientUnits="userSpaceOnUse">
<stop stop-color="#C41B1B"/>
<stop offset="0.477919" stop-color="#D92D2D"/>
<stop offset="1" stop-color="#FFCCCC"/>
</linearGradient>
<linearGradient id="paint2_linear_241_1398" x1="11.793" y1="10.3402" x2="8.20787" y2="6.75508" gradientUnits="userSpaceOnUse">
<stop stop-color="#FFD2D2"/>
<stop offset="0.57" stop-color="white"/>
<stop offset="1" stop-color="white"/>
</linearGradient>
</defs>
</svg>
