<svg width="16" height="16" viewBox="0 0 16 16" fill="none" xmlns="http://www.w3.org/2000/svg">
<path d="M7.99996 1.5C4.78329 1.5 2.16663 4.11667 2.16663 7.33333C2.16663 10.7453 5.29795 12.8133 7.36995 14.182L7.72263 14.416C7.80663 14.472 7.90329 14.5 7.99996 14.5C8.09663 14.5 8.19329 14.472 8.27729 14.416L8.62996 14.182C10.702 12.8133 13.8333 10.7453 13.8333 7.33333C13.8333 4.11667 11.2166 1.5 7.99996 1.5ZM8.07929 13.3473L7.99996 13.4001L7.92062 13.3473C5.91396 12.022 3.16663 10.2073 3.16663 7.33333C3.16663 4.668 5.33463 2.5 7.99996 2.5C10.6653 2.5 12.8333 4.668 12.8333 7.33333C12.8333 10.2073 10.0853 12.0227 8.07929 13.3473ZM7.99996 5.16667C6.80529 5.16667 5.83329 6.13867 5.83329 7.33333C5.83329 8.528 6.80529 9.5 7.99996 9.5C9.19463 9.5 10.1666 8.528 10.1666 7.33333C10.1666 6.13867 9.19463 5.16667 7.99996 5.16667ZM7.99996 8.5C7.35663 8.5 6.83329 7.97667 6.83329 7.33333C6.83329 6.69 7.35663 6.16667 7.99996 6.16667C8.64329 6.16667 9.16663 6.69 9.16663 7.33333C9.16663 7.97667 8.64329 8.5 7.99996 8.5Z" fill="#494A4D"/>
</svg>
