<svg width="20" height="20" viewBox="0 0 20 20" fill="none" xmlns="http://www.w3.org/2000/svg">
<path d="M10.0001 2.0835C6.09425 2.0835 2.91675 5.261 2.91675 9.16683C2.91675 13.3193 6.77425 15.8676 9.32675 17.5535L9.76841 17.8468C9.83841 17.8935 9.91924 17.9168 9.99924 17.9168C10.0792 17.9168 10.1601 17.8935 10.2301 17.8468L10.6717 17.5535C13.2242 15.8676 17.0817 13.3193 17.0817 9.16683C17.0834 5.261 13.9059 2.0835 10.0001 2.0835ZM10.0001 11.2502C8.84925 11.2502 7.91675 10.3177 7.91675 9.16683C7.91675 8.016 8.84925 7.0835 10.0001 7.0835C11.1509 7.0835 12.0834 8.016 12.0834 9.16683C12.0834 10.3177 11.1509 11.2502 10.0001 11.2502Z" fill="#D92D2D"/>
</svg>
