<svg width="14" height="14" viewBox="0 0 14 14" fill="none" xmlns="http://www.w3.org/2000/svg">
<path fill-rule="evenodd" clip-rule="evenodd" d="M9.00805 9.27647C10.0928 8.16454 11.0833 6.49905 11.0833 5.1665C11.0833 2.95736 9.25512 1.1665 6.99996 1.1665C4.7448 1.1665 2.91663 2.95736 2.91663 5.1665C2.91663 6.49905 3.9071 8.16454 4.99187 9.27647C5.70547 10.0079 6.45987 10.4998 6.99996 10.4998C7.54005 10.4998 8.29445 10.0079 9.00805 9.27647ZM6.99996 6.4165C7.64429 6.4165 8.16663 5.89417 8.16663 5.24984C8.16663 4.6055 7.64429 4.08317 6.99996 4.08317C6.35563 4.08317 5.83329 4.6055 5.83329 5.24984C5.83329 5.89417 6.35563 6.4165 6.99996 6.4165Z" fill="#E81D2B"/>
<path fill-rule="evenodd" clip-rule="evenodd" d="M4.11566 9.62061C2.69056 9.93353 1.75 10.4717 1.75 11.0831C1.75 12.0496 4.1005 12.8331 7 12.8331C9.8995 12.8331 12.25 12.0496 12.25 11.0831C12.25 10.4717 11.3094 9.93353 9.88434 9.62061C9.8018 9.71227 9.71838 9.80129 9.63441 9.88736C9.24223 10.2894 8.82084 10.6447 8.40054 10.9057C7.99991 11.1544 7.50924 11.3747 7 11.3747C6.49076 11.3747 6.00009 11.1544 5.59945 10.9057C5.17916 10.6447 4.75777 10.2894 4.36559 9.88736C4.28162 9.80129 4.1982 9.71227 4.11566 9.62061Z" fill="#E81D2B"/>
</svg>
