<svg width="20" height="21" viewBox="0 0 20 21" fill="none" xmlns="http://www.w3.org/2000/svg">
<path d="M12.4282 6.64582L5.82402 9.75333C5.41568 9.94499 5.17567 10.3609 5.21234 10.81C5.24817 11.26 5.55235 11.6299 5.98652 11.7541L7.57649 12.2084C7.92482 12.3084 8.19235 12.575 8.29151 12.9233L8.74567 14.5133C8.86983 14.9474 9.24066 15.2509 9.68983 15.2876C9.71983 15.2901 9.74983 15.2908 9.77899 15.2908C10.194 15.2908 10.5665 15.0558 10.7465 14.675L13.854 8.0716C14.049 7.6566 13.9656 7.17993 13.6423 6.8566C13.319 6.53326 12.8423 6.45082 12.4282 6.64582ZM9.81734 13.7149L9.49319 12.5801C9.27403 11.8134 8.68566 11.2249 7.919 11.0058L6.784 10.6817L12.5124 7.98656L9.81734 13.7149ZM9.99984 1.54166C5.05984 1.54166 1.0415 5.55999 1.0415 10.5C1.0415 15.44 5.05984 19.4583 9.99984 19.4583C14.9398 19.4583 18.9582 15.44 18.9582 10.5C18.9582 5.55999 14.9398 1.54166 9.99984 1.54166ZM9.99984 18.2083C5.749 18.2083 2.2915 14.7508 2.2915 10.5C2.2915 6.24916 5.749 2.79166 9.99984 2.79166C14.2507 2.79166 17.7082 6.24916 17.7082 10.5C17.7082 14.7508 14.2507 18.2083 9.99984 18.2083Z" fill="#D92D2D"/>
</svg>
