<svg width="20" height="20" viewBox="0 0 20 20" fill="none" xmlns="http://www.w3.org/2000/svg">
<path d="M10.0001 1.6665C5.39758 1.6665 1.66675 5.39734 1.66675 9.99984C1.66675 14.6023 5.39758 18.3332 10.0001 18.3332C14.6026 18.3332 18.3334 14.6023 18.3334 9.99984C18.3334 5.39734 14.6026 1.6665 10.0001 1.6665ZM13.2893 7.30575L10.1818 13.9097C10.0059 14.2831 9.46092 14.2399 9.34675 13.8424L8.8926 12.2522C8.73427 11.6981 8.30175 11.2658 7.74758 11.1074L6.15756 10.6531C5.76006 10.5398 5.7159 9.99399 6.09007 9.81816L12.6942 6.71065C13.0734 6.53232 13.4676 6.92658 13.2893 7.30575Z" fill="#494A4D"/>
</svg>
