<svg width="28" height="28" viewBox="0 0 28 28" fill="none" xmlns="http://www.w3.org/2000/svg">
<rect width="28" height="28" rx="14" fill="#F8F9FA"/>
<path d="M14.0001 5.66666C9.39758 5.66666 5.66675 9.39749 5.66675 14C5.66675 18.6025 9.39758 22.3333 14.0001 22.3333C18.6026 22.3333 22.3334 18.6025 22.3334 14C22.3334 9.39749 18.6026 5.66666 14.0001 5.66666ZM17.2893 11.3059L14.1818 17.9099C14.0059 18.2832 13.4609 18.2401 13.3468 17.8426L12.8926 16.2524C12.7343 15.6982 12.3017 15.2659 11.7476 15.1076L10.1576 14.6533C9.76006 14.5399 9.7159 13.9941 10.0901 13.8183L16.6942 10.7108C17.0734 10.5325 17.4676 10.9267 17.2893 11.3059Z" fill="#494A4D"/>
</svg>
