<svg width="80" height="80" viewBox="0 0 80 80" fill="none" xmlns="http://www.w3.org/2000/svg">
<path d="M24.1582 25.5274C24.1582 34.2696 31.2707 41.3819 40.0132 41.3819C48.7554 41.3819 55.8679 34.2694 55.8679 25.5274C55.8679 16.7854 48.7554 9.67285 40.0132 9.67285C31.271 9.67285 24.1582 16.7854 24.1582 25.5274ZM53.524 25.5274C53.524 32.9774 47.4632 39.0382 40.0132 39.0382C32.5632 39.0382 26.5026 32.9772 26.5026 25.5274C26.5026 18.0775 32.5634 12.0166 40.0132 12.0166C47.463 12.0166 53.524 18.0775 53.524 25.5274Z" fill="#7C7D80"/>
<path d="M37.5285 16.7127L36.2754 19.2525C36.152 19.5023 35.9698 19.7183 35.7445 19.882C35.5191 20.0457 35.2573 20.1522 34.9816 20.1923L32.1788 20.5995C31.1273 20.752 30.2702 21.4747 29.9418 22.4855C29.6135 23.4956 29.8826 24.5839 30.6432 25.3255L32.6713 27.3023C32.8707 27.4969 33.0199 27.737 33.106 28.002C33.1921 28.2669 33.2126 28.5488 33.1657 28.8234L32.6866 31.6152C32.5071 32.662 32.9294 33.7008 33.7888 34.3252C34.2748 34.6778 35.6052 35.2364 36.7069 34.5356L39.2137 33.218C39.4602 33.0881 39.7346 33.0202 40.0133 33.0202C40.2919 33.0202 40.5664 33.0881 40.8129 33.218L43.3196 34.5356C44.2602 35.03 45.3782 34.9495 46.2376 34.3252C47.0969 33.7008 47.5193 32.6619 47.3399 31.6145L46.8613 28.8234C46.814 28.5489 46.8343 28.2669 46.9203 28.0019C47.0063 27.7369 47.1555 27.4968 47.3551 27.3023L49.3834 25.3255C50.1438 24.5839 50.4124 23.4958 50.0846 22.4855C49.7563 21.4747 48.8993 20.752 47.8477 20.5995L45.0449 20.1923C44.7692 20.1523 44.5074 20.0459 44.282 19.8821C44.0566 19.7184 43.8744 19.5023 43.7512 19.2525L42.4974 16.7128C42.0274 15.76 41.0752 15.168 40.0132 15.168C38.9507 15.168 37.9985 15.76 37.5285 16.7127ZM41.6496 20.2895C41.9409 20.8803 42.3715 21.3912 42.9043 21.7784C43.4372 22.1655 44.0562 22.4172 44.708 22.5117C44.708 22.5117 47.8246 23.1153 47.8549 23.21C47.8862 23.3041 45.7194 25.6245 45.7194 25.6245C45.2476 26.0841 44.8948 26.6516 44.6912 27.2781C44.4877 27.9045 44.4396 28.571 44.5512 29.2202C44.5512 29.2202 44.9401 32.3708 44.8601 32.4288C44.7794 32.4873 41.9035 31.1433 41.9035 31.1433C41.3205 30.8369 40.6718 30.6768 40.0133 30.6768C39.3547 30.6768 38.706 30.8369 38.123 31.1433C38.123 31.1433 35.2465 32.4873 35.1665 32.4288C35.0865 32.3708 35.4752 29.2202 35.4752 29.2202C35.5868 28.571 35.5387 27.9045 35.3352 27.2781C35.1317 26.6517 34.7789 26.0842 34.3071 25.6245C34.3071 25.6245 32.1404 23.3041 32.1709 23.21C32.2021 23.1153 35.3183 22.5117 35.3183 22.5117C35.9702 22.4172 36.5892 22.1654 37.1221 21.7783C37.6549 21.3912 38.0856 20.8802 38.3769 20.2895C38.3769 20.2895 39.9144 17.5117 40.0132 17.5117C40.1127 17.5117 41.6496 20.2895 41.6496 20.2895Z" fill="#7C7D80"/>
<path d="M61.0788 62.2038L51.5445 57.9254C63.3882 39.7296 66.0257 30.5632 66.0257 26.0131C66.0257 20.6646 64.4149 15.5261 61.3674 11.1542C61.2794 11.0279 61.1673 10.9202 61.0377 10.8372C60.908 10.7542 60.7633 10.6976 60.6117 10.6705C60.4602 10.6435 60.3048 10.6466 60.1544 10.6796C60.0041 10.7126 59.8617 10.7749 59.7354 10.8629C59.2044 11.2329 59.0744 11.9634 59.4443 12.4945C62.2165 16.4715 63.6818 21.1461 63.6818 26.0132C63.6818 32.6726 57.1994 45.7519 45.4276 62.8411C44.1818 64.6489 42.2085 65.686 40.0131 65.686C37.8176 65.686 35.8443 64.6489 34.5987 62.8411C22.8269 45.7518 16.3437 32.6726 16.3437 26.0131C16.3437 12.962 26.962 2.34375 40.0131 2.34375C46.1868 2.34375 52.0302 4.70702 56.4663 8.99779C56.6898 9.21385 56.9898 9.33232 57.3006 9.32717C57.6114 9.32201 57.9074 9.19364 58.1235 8.97029C58.3395 8.74687 58.458 8.44681 58.4528 8.13609C58.4477 7.82536 58.3193 7.5294 58.096 7.31327C53.2199 2.59687 46.7984 0 40.0132 0C25.6692 0 14 11.6693 14 26.0131C14 31.0571 17.2391 41.7712 32.6687 64.1703C33.4884 65.3609 34.5851 66.3343 35.8646 67.0067C37.144 67.6792 38.5677 68.0306 40.0131 68.0306C41.4585 68.0306 42.8822 67.6792 44.1616 67.0067C45.441 66.3343 46.5378 65.3609 47.3574 64.1703C48.3304 62.7581 49.2914 61.3376 50.2402 59.9089L60.1193 64.3419C61.1391 64.7997 61.7483 65.7403 61.7483 66.8585C61.7483 67.976 61.1391 68.9164 60.1193 69.3742L43.1637 76.9822C42.1727 77.4267 41.0989 77.6565 40.0128 77.6565C38.9266 77.6565 37.8528 77.4267 36.8618 76.9822L19.907 69.3744C18.887 68.9166 18.278 67.976 18.278 66.8585C18.278 65.7402 18.887 64.7997 19.907 64.3419L26.4126 61.4225C26.5558 61.3614 26.6854 61.2724 26.7938 61.1606C26.9022 61.0488 26.9873 60.9166 27.044 60.7715C27.1007 60.6265 27.1279 60.4717 27.1241 60.316C27.1203 60.1604 27.0855 60.007 27.0217 59.865C26.958 59.7229 26.8666 59.595 26.7528 59.4887C26.6391 59.3823 26.5053 59.2997 26.3593 59.2457C26.2132 59.1917 26.0579 59.1673 25.9024 59.1739C25.7468 59.1806 25.5941 59.2182 25.4533 59.2846L18.9475 62.2038C17.0891 63.0375 15.9342 64.821 15.9342 66.8578C15.9342 68.8952 17.0889 70.6786 18.9475 71.5124L35.9025 79.1209C37.2087 79.7069 38.6112 79.9998 40.0131 79.9998C41.4149 79.9998 42.8178 79.7069 44.1238 79.1209L61.0788 71.5124C62.9372 70.6786 64.0921 68.8952 64.0921 66.8577C64.0921 64.821 62.9374 63.0375 61.0788 62.2038Z" fill="#7C7D80"/>
</svg>
