<svg width="20" height="20" viewBox="0 0 20 20" fill="none" xmlns="http://www.w3.org/2000/svg">
<path d="M10.0001 2.08333C6.09425 2.08333 2.91675 5.26083 2.91675 9.16666C2.91675 13.3192 6.77425 15.8675 9.32675 17.5533L9.76841 17.8467C9.83841 17.8933 9.91924 17.9167 9.99924 17.9167C10.0792 17.9167 10.1601 17.8933 10.2301 17.8467L10.6717 17.5533C13.2242 15.8675 17.0817 13.3192 17.0817 9.16666C17.0834 5.26083 13.9059 2.08333 10.0001 2.08333ZM12.5251 8.49751L9.74759 11.275C9.62592 11.3967 9.46592 11.4583 9.30592 11.4583C9.14592 11.4583 8.98591 11.3975 8.86424 11.275L7.47508 9.88586C7.23092 9.64169 7.23092 9.24583 7.47508 9.00166C7.71925 8.7575 8.11509 8.7575 8.35925 9.00166L9.30592 9.94832L11.6417 7.6125C11.8859 7.36834 12.2818 7.36834 12.5259 7.6125C12.7701 7.85667 12.7692 8.25335 12.5251 8.49751Z" fill="#D92D2D"/>
</svg>
