<svg width="16" height="16" viewBox="0 0 16 16" fill="none" xmlns="http://www.w3.org/2000/svg">
<path d="M10.5 11.3333V12C10.5 13.612 9.612 14.5 8 14.5H4C2.388 14.5 1.5 13.612 1.5 12V4C1.5 2.388 2.388 1.5 4 1.5H8C9.612 1.5 10.5 2.388 10.5 4V4.66667C10.5 4.94267 10.276 5.16667 10 5.16667C9.724 5.16667 9.5 4.94267 9.5 4.66667V4C9.5 2.94867 9.05133 2.5 8 2.5H4C2.94867 2.5 2.5 2.94867 2.5 4V12C2.5 13.0513 2.94867 13.5 4 13.5H8C9.05133 13.5 9.5 13.0513 9.5 12V11.3333C9.5 11.0573 9.724 10.8333 10 10.8333C10.276 10.8333 10.5 11.0573 10.5 11.3333ZM14.4613 8.19133C14.512 8.06933 14.512 7.93133 14.4613 7.80933C14.436 7.74799 14.3994 7.69267 14.3534 7.64667L12.3534 5.64667C12.158 5.45133 11.8413 5.45133 11.646 5.64667C11.4507 5.842 11.4507 6.15867 11.646 6.354L12.7927 7.50067H5.33333C5.05733 7.50067 4.83333 7.72467 4.83333 8.00067C4.83333 8.27667 5.05733 8.50067 5.33333 8.50067H12.7927L11.646 9.64734C11.4507 9.84267 11.4507 10.1593 11.646 10.3547C11.7433 10.452 11.8713 10.5013 11.9993 10.5013C12.1273 10.5013 12.2553 10.4527 12.3527 10.3547L14.3527 8.35468C14.3993 8.30734 14.436 8.25199 14.4613 8.19133Z" fill="white"/>
</svg>
