<svg width="20" height="20" viewBox="0 0 20 20" fill="none" xmlns="http://www.w3.org/2000/svg">
<path d="M6.66667 10.625H12.5V14.1667V15C12.5 16.6667 11.6667 17.5 10 17.5H5C3.33333 17.5 2.5 16.6667 2.5 15V5C2.5 3.33333 3.33333 2.5 5 2.5H10C11.6667 2.5 12.5 3.33333 12.5 5V5.83333V9.375H6.66667C6.32167 9.375 6.04167 9.655 6.04167 10C6.04167 10.345 6.32167 10.625 6.66667 10.625ZM18.0767 9.76084C18.045 9.68418 17.9992 9.615 17.9417 9.5575L15.4417 7.0575C15.1975 6.81333 14.8017 6.81333 14.5575 7.0575C14.3133 7.30166 14.3133 7.6975 14.5575 7.94167L15.9909 9.375H12.5V10.625H15.9909L14.5575 12.0583C14.3133 12.3025 14.3133 12.6983 14.5575 12.9425C14.6792 13.0642 14.8392 13.1258 14.9992 13.1258C15.1592 13.1258 15.3192 13.065 15.4408 12.9425L17.9408 10.4425C17.9983 10.385 18.0442 10.3158 18.0758 10.2392C18.14 10.0858 18.14 9.91418 18.0767 9.76084Z" fill="#494A4D"/>
</svg>
