<svg width="20" height="20" viewBox="0 0 20 20" fill="none" xmlns="http://www.w3.org/2000/svg">
<path d="M10.0001 8.95915C11.1109 8.95915 12.0143 8.05582 12.0143 6.94499C12.0143 5.83415 11.1109 4.93083 10.0001 4.93083C8.88927 4.93083 7.98595 5.83415 7.98595 6.94499C7.98595 8.05582 8.88927 8.95915 10.0001 8.95915ZM10.0001 6.18083C10.4209 6.18083 10.7643 6.52332 10.7643 6.94499C10.7643 7.36665 10.4218 7.70915 10.0001 7.70915C9.57844 7.70915 9.23595 7.36665 9.23595 6.94499C9.23595 6.52332 9.57927 6.18083 10.0001 6.18083ZM17.4701 6.14665C17.0468 5.88331 16.5018 5.86757 16.0118 6.1084L15.0509 6.58915C14.8668 3.95999 12.6743 1.875 9.99927 1.875C7.3951 1.875 5.24593 3.84919 4.96343 6.37919L3.04594 7.34172C2.32344 7.70422 1.87427 8.43176 1.87427 9.24093V16.25C1.87427 16.7608 2.1326 17.2257 2.56427 17.4949C2.9951 17.7632 3.52678 17.7891 3.98845 17.5616L6.82427 16.1351C6.89177 16.1034 6.95343 16.0858 7.03176 16.085C7.11593 16.08 7.17595 16.0883 7.23928 16.1133L12.3151 18.0109C12.5151 18.0884 12.7176 18.1266 12.8851 18.1266C12.9259 18.1266 12.9643 18.1249 13.0001 18.1199C13.2359 18.1199 13.4676 18.0649 13.7226 17.9449L16.9551 16.32C17.6768 15.9567 18.1251 15.2291 18.1251 14.4216V7.40926C18.1251 6.86593 17.8868 6.40581 17.4701 6.14665ZM10.0001 3.125C12.1059 3.125 13.8193 4.83915 13.8193 6.94499C13.8193 7.11082 13.8043 7.27089 13.7818 7.42839V7.4292C13.4976 9.41837 11.5084 10.755 10.0001 11.7525C8.37177 10.6767 6.18093 9.20582 6.18093 6.94499C6.18093 4.83915 7.89427 3.125 10.0001 3.125ZM3.4326 16.4425C3.3401 16.4883 3.2626 16.4575 3.2251 16.4333C3.1876 16.41 3.12511 16.355 3.12511 16.25V9.24093C3.12511 8.90843 3.31012 8.60823 3.60762 8.45907L5.00761 7.75675C5.19011 8.80509 5.7101 9.68585 6.3751 10.4333V14.9766C6.3426 14.9899 6.31093 14.9958 6.2776 15.0116L3.4326 16.4425ZM7.68428 14.9451C7.66511 14.9376 7.64427 14.9359 7.6251 14.9292V11.5999C8.2201 12.0733 8.83094 12.4776 9.3601 12.8276L9.65345 13.0216C9.75845 13.0916 9.87927 13.1266 10.0001 13.1266C10.1209 13.1266 10.2418 13.0916 10.3468 13.0216L10.6401 12.8276C11.1693 12.4784 11.7801 12.0733 12.3751 11.5999V16.6984L7.68428 14.9451ZM16.8751 14.4216C16.8751 14.7541 16.6901 15.0541 16.3934 15.2032L13.6251 16.5951V10.4333C14.2293 9.75502 14.7176 8.96657 14.9393 8.0424L16.5676 7.22758C16.6743 7.17508 16.7659 7.17994 16.8101 7.20744C16.8684 7.2441 16.8751 7.36093 16.8751 7.40926V14.4216Z" fill="#D92D2D"/>
</svg>
