<svg width="28" height="28" viewBox="0 0 28 28" fill="none" xmlns="http://www.w3.org/2000/svg">
<rect width="28" height="28" rx="14" fill="#F8F9FA"/>
<path d="M19.8334 19C19.8334 20.3808 17.2217 21.5 14.0001 21.5C10.7784 21.5 8.16675 20.3808 8.16675 19C8.16675 17.71 10.4476 16.6484 13.3751 16.5151V18.1667C13.3751 18.5083 13.6584 18.7917 14.0001 18.7917C14.3417 18.7917 14.6251 18.5083 14.6251 18.1667V16.5151C17.5526 16.6484 19.8334 17.71 19.8334 19ZM14.6251 16.5151V13.1034C16.1667 12.8101 17.3334 11.46 17.3334 9.83333C17.3334 7.9925 15.8409 6.5 14.0001 6.5C12.1592 6.5 10.6667 7.9925 10.6667 9.83333C10.6667 11.46 11.8334 12.8109 13.3751 13.1034V16.5151C13.5809 16.5059 13.7884 16.5 14.0001 16.5C14.2117 16.5 14.4192 16.5059 14.6251 16.5151Z" fill="#494A4D"/>
</svg>
