<svg width="20" height="21" viewBox="0 0 20 21" fill="none" xmlns="http://www.w3.org/2000/svg">
<path d="M9.99986 9.45915C11.1107 9.45915 12.014 8.55582 12.014 7.44499C12.014 6.33415 11.1107 5.43083 9.99986 5.43083C8.88903 5.43083 7.9857 6.33415 7.9857 7.44499C7.9857 8.55582 8.88903 9.45915 9.99986 9.45915ZM9.99986 6.68083C10.4207 6.68083 10.764 7.02332 10.764 7.44499C10.764 7.86665 10.4215 8.20915 9.99986 8.20915C9.5782 8.20915 9.2357 7.86665 9.2357 7.44499C9.2357 7.02332 9.57903 6.68083 9.99986 6.68083ZM17.4699 6.64665C17.0465 6.38331 16.5015 6.36756 16.0115 6.6084L15.0507 7.08915C14.8665 4.45999 12.674 2.375 9.99902 2.375C7.39486 2.375 5.24569 4.34919 4.96319 6.87919L3.04569 7.84172C2.32319 8.20422 1.87402 8.93176 1.87402 9.74093V16.75C1.87402 17.2608 2.13236 17.7257 2.56403 17.9949C2.99486 18.2632 3.52654 18.2891 3.9882 18.0616L6.82403 16.635C6.89153 16.6034 6.95319 16.5858 7.03152 16.585C7.11569 16.58 7.17571 16.5883 7.23904 16.6133L12.3149 18.5109C12.5149 18.5884 12.7174 18.6266 12.8849 18.6266C12.9257 18.6266 12.964 18.6249 12.9999 18.6199C13.2357 18.6199 13.4674 18.5649 13.7224 18.4449L16.9549 16.82C17.6765 16.4567 18.1249 15.7291 18.1249 14.9216V7.90926C18.1249 7.36593 17.8865 6.90581 17.4699 6.64665ZM9.99986 3.625C12.1057 3.625 13.819 5.33915 13.819 7.44499C13.819 7.61082 13.804 7.77089 13.7815 7.92839V7.9292C13.4974 9.91837 11.5082 11.255 9.99986 12.2525C8.37153 11.1767 6.18069 9.70582 6.18069 7.44499C6.18069 5.33915 7.89403 3.625 9.99986 3.625ZM3.43235 16.9425C3.33985 16.9883 3.26236 16.9575 3.22486 16.9333C3.18736 16.91 3.12486 16.855 3.12486 16.75V9.74093C3.12486 9.40843 3.30987 9.10823 3.60737 8.95907L5.00736 8.25675C5.18986 9.30509 5.70986 10.1858 6.37486 10.9333V15.4766C6.34236 15.4899 6.31069 15.4958 6.27735 15.5116L3.43235 16.9425ZM7.68404 15.4451C7.66487 15.4376 7.64402 15.4359 7.62486 15.4292V12.0999C8.21986 12.5733 8.83069 12.9776 9.35986 13.3276L9.65321 13.5216C9.75821 13.5916 9.87903 13.6266 9.99986 13.6266C10.1207 13.6266 10.2415 13.5916 10.3465 13.5216L10.6399 13.3276C11.169 12.9784 11.7799 12.5733 12.3749 12.0999V17.1984L7.68404 15.4451ZM16.8749 14.9216C16.8749 15.2541 16.6899 15.5541 16.3932 15.7032L13.6249 17.0951V10.9333C14.229 10.255 14.7174 9.46657 14.939 8.5424L16.5674 7.72758C16.674 7.67508 16.7657 7.67994 16.8099 7.70744C16.8682 7.7441 16.8749 7.86093 16.8749 7.90926V14.9216Z" fill="#1F1F20"/>
</svg>
