<svg width="80" height="80" viewBox="0 0 80 80" fill="none" xmlns="http://www.w3.org/2000/svg">
<path d="M8.14859 45.1634C8.14859 43.8419 9.21984 42.7706 10.5414 42.7706M8.14859 45.1634V62.2075C3.7525 55.9142 1.17188 48.2591 1.17188 40C1.17188 34.6259 2.26406 29.5072 4.23781 24.8527C5.43109 26.2072 6.93188 27.2841 8.6325 27.9717M8.14859 45.1634V70.7394C8.14859 74.2208 10.9708 77.043 14.4522 77.043C17.9336 77.043 20.7558 74.2208 20.7558 70.7394M10.5414 42.7706V30.7595C10.5414 29.5255 9.77656 28.4344 8.6325 27.9717M10.5414 42.7706L18.3633 42.7708M8.6325 27.9717C4.34656 26.2389 1.32266 22.04 1.32266 17.1331V4.00437C1.32266 2.50719 2.52234 1.29016 4.01297 1.26219C5.55016 1.23344 6.80812 2.53891 6.80812 4.07625V12.3384C6.80812 13.7313 7.97 14.8527 9.37734 14.7864C10.6955 14.7244 11.7097 13.5889 11.7097 12.2692V4.00437C11.7097 2.50719 12.9094 1.29016 14.4 1.26219C15.9372 1.23344 17.1952 2.53891 17.1952 4.07625L17.1948 12.3384M22.0966 12.2705V5.53922C20.3897 6.42814 18.7513 7.44271 17.1948 8.57453V12.3384M22.0966 12.2705C22.0966 13.5902 21.0825 14.7245 19.7641 14.7864C18.3567 14.8528 17.1948 13.7313 17.1948 12.3384M22.0966 12.2705L22.0967 4.07531C22.0967 2.53797 23.3547 1.23344 24.8917 1.26219C26.3823 1.29016 27.582 2.50719 27.5822 4.00437M18.3633 42.7708V30.7597C18.3633 29.5256 19.128 28.4345 20.2722 27.9719C24.558 26.2391 27.5822 22.04 27.5822 17.1331M18.3633 42.7708C19.6848 42.7708 20.7559 43.8419 20.7558 45.1634M27.5822 17.1331V4.00437M27.5822 17.1331L27.582 16.7598C31.282 14.7786 35.5094 13.6539 40 13.6539C47.0209 13.6539 53.3998 16.4008 58.1223 20.8777C56.9091 25.9319 56.0497 31.9752 55.8294 39.1083M27.5822 4.00437C27.5822 3.73812 27.5425 3.48172 27.4717 3.23844C31.4025 1.89922 35.6161 1.17188 40 1.17188C44.5539 1.17188 48.9236 1.9575 52.9834 3.39812M20.7558 70.7394V45.1634M20.7558 70.7394C20.7566 71.6542 20.5576 72.5585 20.1725 73.3883C25.9764 76.842 32.7558 78.8281 40 78.8281C47.2062 78.8281 53.9525 76.8627 59.7361 73.442C59.3347 72.5976 59.127 71.6743 59.1281 70.7394M20.7558 45.1634L20.7559 57.9919C22.9271 60.3136 25.4992 62.2247 28.3488 63.6334M59.1281 70.7394V42.7609M59.1281 70.7394C59.1281 74.2208 61.9503 77.043 65.4317 77.043C68.9131 77.043 71.7353 74.2208 71.7353 70.7394L71.7355 42.7706M59.1281 42.7609C57.2422 42.63 55.77 41.0275 55.8294 39.1083M59.1281 42.7609V58.1161C54.3264 63.1844 47.5327 66.3463 40 66.3463C37.5182 66.3478 35.0485 65.9987 32.6644 65.3092M59.1281 42.7609C59.2106 42.7667 59.2936 42.7706 59.3775 42.7706H71.7355M55.8294 39.1083C56.2734 24.7294 59.3128 14.7742 62.6178 8.43797C60.9341 7.22978 59.1565 6.15823 57.3019 5.23359M55.8294 39.1083C56.462 18.6234 62.3623 7.11609 66.7934 2.26219C68.5422 0.346406 71.7355 1.59688 71.7355 4.19094V42.7706M71.7355 17.6252V62.3748C76.2027 56.0503 78.8281 48.332 78.8281 40C78.8281 31.668 76.2027 23.9497 71.7355 17.6252Z" stroke="#7C7D80" stroke-width="2.5" stroke-miterlimit="10" stroke-linecap="round" stroke-linejoin="round"/>
</svg>
