<svg width="16" height="16" viewBox="0 0 16 16" fill="none" xmlns="http://www.w3.org/2000/svg">
<path d="M11.7806 2.3335H11.4627V1.3335C11.4627 1.0575 11.2387 0.833496 10.9627 0.833496C10.6867 0.833496 10.4627 1.0575 10.4627 1.3335V2.3335H8.5V1.3335C8.5 1.0575 8.276 0.833496 8 0.833496C7.724 0.833496 7.5 1.0575 7.5 1.3335V2.3335H5.53727V1.3335C5.53727 1.0575 5.31327 0.833496 5.03727 0.833496C4.76127 0.833496 4.53727 1.0575 4.53727 1.3335V2.3335H4.2194C2.74007 2.3335 2 3.07282 2 4.55082V12.4495C2 13.9275 2.7394 14.6668 4.2194 14.6668H11.7814C13.2607 14.6668 14.0007 13.9275 14.0007 12.4495V4.55082C14 3.07282 13.2606 2.3335 11.7806 2.3335ZM8.66667 10.5002H5.33333C5.05733 10.5002 4.83333 10.2762 4.83333 10.0002C4.83333 9.72416 5.05733 9.50016 5.33333 9.50016H8.66667C8.94267 9.50016 9.16667 9.72416 9.16667 10.0002C9.16667 10.2762 8.94267 10.5002 8.66667 10.5002ZM10.6667 7.8335H5.33333C5.05733 7.8335 4.83333 7.6095 4.83333 7.3335C4.83333 7.0575 5.05733 6.8335 5.33333 6.8335H10.6667C10.9427 6.8335 11.1667 7.0575 11.1667 7.3335C11.1667 7.6095 10.9427 7.8335 10.6667 7.8335Z" fill="#7C7D80"/>
</svg>
