<svg width="80" height="80" viewBox="0 0 80 80" fill="none" xmlns="http://www.w3.org/2000/svg">
<path d="M77.5812 20.2891C75.4812 12.5594 67.4422 4.51875 59.7109 2.41875C54.9703 1.2375 48.6203 0.0203125 40 0C31.3797 0.0203125 25.0297 1.2375 20.2891 2.41875C12.5594 4.51875 4.51875 12.5578 2.41875 20.2891C1.2375 25.0297 0.0203125 31.3797 0 40C0.0203125 48.6203 1.2375 54.9703 2.41875 59.7109C4.51875 67.4422 12.5594 75.4812 20.2891 77.5812C25.0297 78.7625 31.3828 79.9797 40 80C48.6188 79.9797 54.9703 78.7625 59.7109 77.5812C67.4422 75.4812 75.4812 67.4422 77.5812 59.7109C78.7625 54.9703 79.9797 48.6172 80 40C79.9797 31.3797 78.7625 25.0297 77.5812 20.2891Z" fill="#FFEEEE"/>
<path d="M40 13.4375C34.7464 13.4375 29.6109 14.9954 25.2427 17.9141C20.8745 20.8328 17.4699 24.9813 15.4595 29.835C13.449 34.6886 12.923 40.0295 13.9479 45.1821C14.9728 50.3347 17.5027 55.0677 21.2175 58.7825C24.9323 62.4974 29.6653 65.0272 34.8179 66.0521C39.9705 67.077 45.3114 66.551 50.165 64.5406C55.0187 62.5301 59.1672 59.1255 62.0859 54.7573C65.0046 50.3892 66.5625 45.2536 66.5625 40C66.5625 32.9552 63.764 26.1989 58.7825 21.2175C53.8011 16.236 47.0448 13.4375 40 13.4375Z" fill="url(#paint0_linear_175_1140)"/>
<path d="M55.1561 35.6016L39.1827 52.3704C38.7476 52.8271 38.2249 53.1914 37.6458 53.4413C37.0667 53.6913 36.4431 53.8218 35.8123 53.8251H35.792C35.1649 53.825 34.5442 53.6991 33.9667 53.4549C33.3891 53.2107 32.8664 52.853 32.4295 52.4032L23.9561 43.6735C23.4953 43.2394 23.1272 42.7164 22.874 42.1361C22.6208 41.5558 22.4878 40.9303 22.483 40.2972C22.4782 39.6641 22.6017 39.0366 22.8461 38.4526C23.0904 37.8685 23.4505 37.34 23.9047 36.8989C24.3589 36.4579 24.8977 36.1134 25.4886 35.8862C26.0796 35.6591 26.7104 35.554 27.3431 35.5773C27.9758 35.6006 28.5971 35.7519 29.1698 36.0219C29.7424 36.2919 30.2544 36.6752 30.6748 37.1485L35.753 42.3813L48.3608 29.1407C48.785 28.6945 49.293 28.3362 49.8557 28.0864C50.4183 27.8365 51.0247 27.6999 51.6402 27.6844C52.2557 27.6688 52.8682 27.7747 53.4428 27.9959C54.0173 28.2171 54.5427 28.5493 54.9889 28.9735C55.4351 29.3977 55.7934 29.9057 56.0432 30.4684C56.2931 31.0311 56.4297 31.6374 56.4452 32.2529C56.4608 32.8684 56.3549 33.4809 56.1337 34.0555C55.9125 34.63 55.5803 35.1554 55.1561 35.6016Z" fill="url(#paint1_linear_175_1140)"/>
<defs>
<linearGradient id="paint0_linear_175_1140" x1="58.7859" y1="58.7859" x2="21.2141" y2="21.2141" gradientUnits="userSpaceOnUse">
<stop stop-color="#C41B1B"/>
<stop offset="0.52" stop-color="#E64646"/>
<stop offset="1" stop-color="#FF9494"/>
</linearGradient>
<linearGradient id="paint1_linear_175_1140" x1="47.2873" y1="44.2688" x2="32.0623" y2="29.0422" gradientUnits="userSpaceOnUse">
<stop stop-color="#FFCCCC"/>
<stop offset="0.57" stop-color="white"/>
<stop offset="1" stop-color="white"/>
</linearGradient>
</defs>
</svg>
