<svg width="16" height="16" viewBox="0 0 16 16" fill="none" xmlns="http://www.w3.org/2000/svg">
<path d="M13.8 7.16667H2.20003C2.08937 7.16667 2 7.25599 2 7.36666V12C2 13.3333 2.66667 14 4 14H12C13.3333 14 14 13.3333 14 12V7.36666C14 7.25599 13.9106 7.16667 13.8 7.16667ZM6.66667 11.8333H4.66667C4.39067 11.8333 4.16667 11.6093 4.16667 11.3333C4.16667 11.0573 4.39067 10.8333 4.66667 10.8333H6.66667C6.94267 10.8333 7.16667 11.0573 7.16667 11.3333C7.16667 11.6093 6.94267 11.8333 6.66667 11.8333ZM8.5 5.96667V2.19999C8.5 2.08933 8.58937 2 8.70003 2H11.16C12.6667 2 12.8333 2.59333 13.08 3.45333L13.7826 5.91201C13.8193 6.04001 13.7233 6.16667 13.5907 6.16667H8.70003C8.58937 6.16667 8.5 6.07734 8.5 5.96667ZM2.21737 5.91201L2.92 3.45333C3.16667 2.59333 3.33334 2 4.84001 2H7.29997C7.41063 2 7.5 2.08933 7.5 2.19999V5.96667C7.5 6.07734 7.41063 6.16667 7.29997 6.16667H2.40934C2.27668 6.16667 2.1807 6.03934 2.21737 5.91201Z" fill="#7C7D80"/>
</svg>
