<svg width="24" height="25" viewBox="0 0 24 25" fill="none" xmlns="http://www.w3.org/2000/svg">
<path d="M17.6249 14.6742L20.268 16.2502C20.814 16.5762 21.0959 17.2102 20.9709 17.8342C20.4599 20.3932 17.89 22.0332 15.373 21.3422C9.43395 19.7122 4.79484 15.0872 3.15884 9.13524C2.46684 6.61724 4.10495 4.04522 6.66495 3.53322L6.68179 3.53023C7.30679 3.40523 7.94395 3.68823 8.26895 4.23723L9.83194 6.87624C10.3879 7.81424 10.1118 9.02422 9.20279 9.62822L7.5419 10.7332C8.7139 13.5402 10.9538 15.7892 13.7528 16.9592L14.8678 15.2942C15.4768 14.3872 16.6869 14.1152 17.6249 14.6742ZM17.7499 10.5002C17.7499 8.43223 16.0669 6.75023 13.9999 6.75023C13.5859 6.75023 13.2499 7.08623 13.2499 7.50023C13.2499 7.91423 13.5859 8.25023 13.9999 8.25023C15.2399 8.25023 16.2499 9.25923 16.2499 10.5002C16.2499 10.9142 16.5859 11.2502 16.9999 11.2502C17.4139 11.2502 17.7499 10.9142 17.7499 10.5002ZM19.9999 11.2502C19.5859 11.2502 19.2499 10.9142 19.2499 10.5002C19.2499 7.60523 16.8949 5.25023 13.9999 5.25023C13.5859 5.25023 13.2499 4.91423 13.2499 4.50023C13.2499 4.08623 13.5859 3.75023 13.9999 3.75023C17.7219 3.75023 20.7499 6.77823 20.7499 10.5002C20.7499 10.9142 20.4139 11.2502 19.9999 11.2502Z" fill="white"/>
</svg>
