<svg width="48" height="48" viewBox="0 0 48 48" fill="none" xmlns="http://www.w3.org/2000/svg">
<path d="M24 48C37.2548 48 48 37.2548 48 24C48 10.7452 37.2548 0 24 0C10.7452 0 0 10.7452 0 24C0 37.2548 10.7452 48 24 48Z" fill="#FFEEEE"/>
<path d="M30.5913 29.6854L27.2965 27.4887C26.5303 26.9786 25.4986 27.0778 24.8462 27.7314L23.9788 28.5981C23.4693 28.5248 22.2606 28.222 21.019 26.9805C19.7774 25.7396 19.4752 24.5297 19.402 24.0208L20.268 23.1541C20.9204 22.5011 21.0228 21.4707 20.5107 20.7033L18.3133 17.4079C17.9896 16.9224 17.4712 16.6102 16.8897 16.5526C16.3131 16.4964 15.7366 16.698 15.3244 17.1121L13.9513 18.4857C13.2952 19.1412 12.9512 20.0357 13.0056 20.9378C13.1093 22.6983 13.8704 26.2408 17.8151 30.1848C21.7573 34.1275 25.3 34.8904 27.0612 34.9942C27.9294 35.0484 28.8385 34.7233 29.514 34.0479L30.8883 32.6743C31.3017 32.2609 31.504 31.6907 31.4471 31.1097C31.4191 30.8237 31.3277 30.5475 31.1797 30.3012C31.0317 30.0548 30.8307 29.8445 30.5913 29.6854ZM29.174 13C25.9614 13 23.348 15.6133 23.348 18.8258C23.3475 19.8223 23.6035 20.8022 24.0915 21.6711L23.3809 23.7995C23.343 23.9136 23.3377 24.036 23.3653 24.153C23.393 24.27 23.4527 24.3769 23.5376 24.462C23.6226 24.5471 23.7296 24.6068 23.8467 24.6344C23.9637 24.662 24.0861 24.6564 24.2001 24.6182L26.3293 23.9089C27.1953 24.3957 28.1726 24.6517 29.174 24.6517C32.3867 24.6517 35 22.0384 35 18.8259C35 15.6134 32.3867 13 29.174 13ZM26.5847 19.4731C26.4996 19.4731 26.4155 19.4564 26.3369 19.4238C26.2584 19.3913 26.187 19.3436 26.1269 19.2835C26.0668 19.2233 26.0191 19.152 25.9866 19.0734C25.9541 18.9949 25.9373 18.9107 25.9373 18.8257C25.9373 18.7406 25.9541 18.6565 25.9866 18.5779C26.0192 18.4994 26.0669 18.428 26.127 18.3679C26.1871 18.3078 26.2585 18.2601 26.3371 18.2276C26.4156 18.1951 26.4998 18.1783 26.5848 18.1783C26.7565 18.1784 26.9212 18.2466 27.0426 18.368C27.164 18.4894 27.2322 18.6541 27.2322 18.8258C27.2321 18.9975 27.1639 19.1622 27.0425 19.2836C26.9211 19.405 26.7564 19.4731 26.5847 19.4731ZM29.174 19.4731C29.089 19.4731 29.0048 19.4564 28.9263 19.4238C28.8478 19.3913 28.7764 19.3436 28.7163 19.2835C28.6562 19.2233 28.6085 19.152 28.576 19.0734C28.5434 18.9949 28.5267 18.9107 28.5267 18.8257C28.5267 18.7406 28.5435 18.6565 28.576 18.5779C28.6086 18.4994 28.6563 18.428 28.7164 18.3679C28.7765 18.3078 28.8479 18.2601 28.9264 18.2276C29.005 18.1951 29.0892 18.1783 29.1742 18.1783C29.3459 18.1784 29.5106 18.2466 29.632 18.368C29.7534 18.4894 29.8216 18.6541 29.8215 18.8258C29.8215 18.9975 29.7533 19.1622 29.6319 19.2836C29.5104 19.405 29.3458 19.4731 29.174 19.4731ZM31.7634 19.4731C31.6783 19.4731 31.5941 19.4564 31.5156 19.4238C31.4371 19.3913 31.3657 19.3436 31.3056 19.2835C31.2455 19.2233 31.1978 19.152 31.1653 19.0734C31.1327 18.9949 31.116 18.9107 31.116 18.8257C31.116 18.7406 31.1328 18.6565 31.1653 18.5779C31.1979 18.4994 31.2456 18.428 31.3057 18.3679C31.3658 18.3078 31.4372 18.2601 31.5157 18.2276C31.5943 18.1951 31.6785 18.1783 31.7635 18.1783C31.9352 18.1784 32.0999 18.2466 32.2213 18.368C32.3427 18.4894 32.4109 18.6541 32.4108 18.8258C32.4108 18.9975 32.3426 19.1622 32.2212 19.2836C32.0997 19.405 31.9351 19.4731 31.7634 19.4731Z" fill="url(#paint0_linear_175_4064)"/>
<defs>
<linearGradient id="paint0_linear_175_4064" x1="24.0001" y1="35" x2="24.0001" y2="13" gradientUnits="userSpaceOnUse">
<stop stop-color="#C41B1B"/>
<stop offset="1" stop-color="#E64646"/>
</linearGradient>
</defs>
</svg>
