<svg width="16" height="16" viewBox="0 0 16 16" fill="none" xmlns="http://www.w3.org/2000/svg">
<path d="M12.6667 7.33329H8.66675V3.33329C8.66675 2.96529 8.36808 2.66663 8.00008 2.66663C7.63208 2.66663 7.33341 2.96529 7.33341 3.33329V7.33329H3.33341C2.96541 7.33329 2.66675 7.63196 2.66675 7.99996C2.66675 8.36796 2.96541 8.66663 3.33341 8.66663H7.33341V12.6666C7.33341 13.0346 7.63208 13.3333 8.00008 13.3333C8.36808 13.3333 8.66675 13.0346 8.66675 12.6666V8.66663H12.6667C13.0347 8.66663 13.3334 8.36796 13.3334 7.99996C13.3334 7.63196 13.0347 7.33329 12.6667 7.33329Z" fill="#1F1F20"/>
</svg>
