<svg width="16" height="16" viewBox="0 0 16 16" fill="none" xmlns="http://www.w3.org/2000/svg">
<path d="M12.7187 8.00005H3.28198C3.16332 8.00005 3.07068 8.10271 3.08268 8.22071L3.49333 12.2C3.59999 13.22 3.99332 14 5.48665 14H10.5267C11.9934 14 12.42 13.22 12.5133 12.2L12.9173 8.22005C12.9293 8.10271 12.8373 8.00005 12.7187 8.00005ZM9.68669 9.89338L7.90869 11.6714C7.81469 11.7654 7.68801 11.818 7.55534 11.818C7.42267 11.818 7.29532 11.7654 7.20199 11.6714L6.31331 10.7827C6.11798 10.5874 6.11798 10.2707 6.31331 10.0754C6.50865 9.88005 6.82534 9.88072 7.02067 10.0754L7.55599 10.6107L8.98063 9.18671C9.17596 8.99138 9.49266 8.99138 9.68799 9.18671C9.88332 9.38205 9.88202 9.69804 9.68669 9.89338ZM14 6.00005C14 6.73605 13.4027 7.33338 12.6667 7.33338H3.33333C2.59733 7.33338 2 6.73605 2 6.00005C2 5.26405 2.59733 4.66671 3.33333 4.66671H4.48535L6.2513 1.74138C6.39397 1.50538 6.70134 1.42871 6.93734 1.57205C7.17334 1.71538 7.25002 2.02205 7.10669 2.25871L5.65267 4.66671H10.3534L8.91602 2.25605C8.77468 2.01938 8.85201 1.71205 9.09001 1.57071C9.32667 1.43005 9.63398 1.50672 9.77531 1.74472L11.518 4.66738H12.6667C13.4027 4.66672 14 5.26405 14 6.00005Z" fill="#7C7D80"/>
</svg>
