<svg width="16" height="16" viewBox="0 0 16 16" fill="none" xmlns="http://www.w3.org/2000/svg">
<path d="M7.17859 9.66647V11.6665C7.17859 11.9425 6.95459 12.1665 6.67859 12.1665C6.40259 12.1665 6.17859 11.9425 6.17859 11.6665V9.66647C6.17859 9.39047 6.40259 9.16647 6.67859 9.16647C6.95459 9.16647 7.17859 9.39047 7.17859 9.66647ZM9.34526 9.16647C9.06926 9.16647 8.84526 9.39047 8.84526 9.66647V11.6665C8.84526 11.9425 9.06926 12.1665 9.34526 12.1665C9.62126 12.1665 9.84526 11.9425 9.84526 11.6665V9.66647C9.84526 9.39047 9.62126 9.16647 9.34526 9.16647ZM13.4847 7.63181L13.0233 12.2485C12.872 13.7631 12.0586 14.4998 10.5359 14.4998H5.4893C3.96663 14.4998 3.15266 13.7638 3.00199 12.2485L2.54195 7.6458C1.92795 7.34914 1.50061 6.72581 1.50061 5.99981C1.50061 4.98847 2.32261 4.16647 3.33394 4.16647H4.77193L6.2393 1.74114C6.38196 1.50514 6.68798 1.42914 6.92598 1.57247C7.16198 1.71514 7.23794 2.02315 7.0946 2.25915L5.94063 4.16715H10.0413L8.90466 2.25647C8.76333 2.01914 8.84132 1.71247 9.07865 1.57114C9.31599 1.42914 9.62262 1.50847 9.76396 1.74514L11.2053 4.16781H12.6666C13.678 4.16781 14.5 4.98981 14.5 6.00114C14.5 6.71514 14.084 7.32981 13.4847 7.63181ZM2.49996 5.99981C2.49996 6.45914 2.87396 6.83314 3.33329 6.83314H12.6666C13.126 6.83314 13.5 6.45914 13.5 5.99981C13.5 5.54047 13.126 5.16647 12.6666 5.16647H3.33329C2.87396 5.16647 2.49996 5.54047 2.49996 5.99981ZM12.4599 7.83314H3.56466L3.99597 12.1491C4.08397 13.0251 4.34731 13.4998 5.48865 13.4998H10.5353C11.6706 13.4998 11.942 13.0045 12.028 12.1491L12.4599 7.83314Z" fill="#494A4D"/>
</svg>
