<svg width="24" height="24" viewBox="0 0 24 24" fill="none" xmlns="http://www.w3.org/2000/svg">
<path fill-rule="evenodd" clip-rule="evenodd" d="M21 8.99995C21 10.1039 20.104 10.9999 19 10.9999H5C3.896 10.9999 3 10.1039 3 8.99995C3 7.89595 3.896 6.99995 5 6.99995H6.72803L9.37695 2.61195C9.59095 2.25795 10.052 2.14295 10.406 2.35795C10.76 2.57295 10.875 3.03295 10.66 3.38795L8.479 6.99995H15.53L13.374 3.38395C13.162 3.02895 13.278 2.56795 13.635 2.35595C13.99 2.14495 14.451 2.25995 14.663 2.61695L17.277 7.00095H19C20.104 6.99995 21 7.89595 21 8.99995ZM19.376 12.3299L18.77 18.2999C18.63 19.83 17.99 20.9999 15.79 20.9999H8.22998C5.98998 20.9999 5.39999 19.83 5.23999 18.2999L4.62402 12.3309C4.60602 12.1539 4.744 11.9999 4.922 11.9999H19.077C19.256 11.9999 19.394 12.1539 19.376 12.3299ZM10.77 14.4999C10.77 14.0899 10.43 13.7499 10.02 13.7499C9.60002 13.7499 9.27002 14.0899 9.27002 14.4999V17.4999C9.27002 17.9099 9.60002 18.2499 10.02 18.2499C10.43 18.2499 10.77 17.9099 10.77 17.4999V14.4999ZM14.77 14.4999C14.77 14.0899 14.43 13.7499 14.02 13.7499C13.6 13.7499 13.27 14.0899 13.27 14.4999V17.4999C13.27 17.9099 13.6 18.2499 14.02 18.2499C14.43 18.2499 14.77 17.9099 14.77 17.4999V14.4999Z" fill="white"/>
</svg>
