<svg width="16" height="16" viewBox="0 0 16 16" fill="none" xmlns="http://www.w3.org/2000/svg">
<path d="M14.5 6.00004C14.5 4.98871 13.678 4.16671 12.6667 4.16671H11.2446L9.80265 1.74404C9.66132 1.50737 9.35535 1.42804 9.11735 1.57004C8.88068 1.71137 8.80203 2.01804 8.94336 2.25537L10.0806 4.16604H5.97998L7.13403 2.25804C7.27737 2.02204 7.20133 1.7147 6.96533 1.57137C6.72733 1.42804 6.42131 1.50404 6.27865 1.74004L4.81136 4.16538H3.33333C2.322 4.16538 1.5 4.98738 1.5 5.99871C1.5 6.72471 1.92734 7.34804 2.54134 7.64471L3.0013 12.2474C3.15264 13.762 3.96602 14.4987 5.48869 14.4987H10.5353C12.058 14.4987 12.872 13.7627 13.0227 12.2474L13.484 7.63071C14.084 7.33004 14.5 6.71538 14.5 6.00004ZM3.33333 5.16671H12.6667C13.126 5.16671 13.5 5.54071 13.5 6.00004C13.5 6.45938 13.126 6.83338 12.6667 6.83338H3.33333C2.874 6.83338 2.5 6.45938 2.5 6.00004C2.5 5.54071 2.874 5.16671 3.33333 5.16671ZM12.0286 12.1494C11.9426 13.0047 11.6713 13.5 10.536 13.5H5.48934C4.34801 13.5 4.08466 13.0254 3.99666 12.1494L3.56535 7.83338H12.4607L12.0286 12.1494ZM9.83333 10.6667C9.83333 10.9427 9.60933 11.1667 9.33333 11.1667H8.5V12C8.5 12.276 8.276 12.5 8 12.5C7.724 12.5 7.5 12.276 7.5 12V11.1667H6.66667C6.39067 11.1667 6.16667 10.9427 6.16667 10.6667C6.16667 10.3907 6.39067 10.1667 6.66667 10.1667H7.5V9.33338C7.5 9.05738 7.724 8.83338 8 8.83338C8.276 8.83338 8.5 9.05738 8.5 9.33338V10.1667H9.33333C9.60933 10.1667 9.83333 10.3907 9.83333 10.6667Z" fill="white"/>
</svg>
