<svg width="16" height="16" viewBox="0 0 16 16" fill="none" xmlns="http://www.w3.org/2000/svg">
<path d="M12.7187 7.9998H3.28198C3.16332 7.9998 3.07068 8.10246 3.08268 8.22046L3.49333 12.1998C3.59999 13.2198 3.99332 13.9998 5.48665 13.9998H10.5267C11.9934 13.9998 12.42 13.2198 12.5133 12.1998L12.9173 8.2198C12.9293 8.10247 12.8373 7.9998 12.7187 7.9998ZM9.68669 9.89313L7.90869 11.6711C7.81469 11.7651 7.68801 11.8178 7.55534 11.8178C7.42267 11.8178 7.29532 11.7651 7.20199 11.6711L6.31331 10.7825C6.11798 10.5871 6.11798 10.2705 6.31331 10.0751C6.50865 9.87981 6.82534 9.88047 7.02067 10.0751L7.55599 10.6105L8.98063 9.18647C9.17596 8.99113 9.49266 8.99113 9.68799 9.18647C9.88332 9.3818 9.88202 9.6978 9.68669 9.89313ZM14 5.9998C14 6.7358 13.4027 7.33314 12.6667 7.33314H3.33333C2.59733 7.33314 2 6.7358 2 5.9998C2 5.2638 2.59733 4.66647 3.33333 4.66647H4.48535L6.2513 1.74113C6.39397 1.50513 6.70134 1.42847 6.93734 1.5718C7.17334 1.71514 7.25002 2.0218 7.10669 2.25847L5.65267 4.66647H10.3534L8.91602 2.2558C8.77468 2.01914 8.85201 1.7118 9.09001 1.57047C9.32667 1.4298 9.63398 1.50647 9.77531 1.74447L11.518 4.66714H12.6667C13.4027 4.66647 14 5.2638 14 5.9998Z" fill="#D92D2D"/>
</svg>
