<svg width="80" height="80" viewBox="0 0 80 80" fill="none" xmlns="http://www.w3.org/2000/svg">
<path d="M77.5812 20.2891C75.4812 12.5594 67.4422 4.51875 59.7109 2.41875C54.9703 1.2375 48.6203 0.0203125 40 0C31.3797 0.0203125 25.0297 1.2375 20.2891 2.41875C12.5594 4.51875 4.51875 12.5578 2.41875 20.2891C1.2375 25.0297 0.0203125 31.3797 0 40C0.0203125 48.6203 1.2375 54.9703 2.41875 59.7109C4.51875 67.4422 12.5594 75.4812 20.2891 77.5812C25.0297 78.7625 31.3828 79.9797 40 80C48.6188 79.9797 54.9703 78.7625 59.7109 77.5812C67.4422 75.4812 75.4812 67.4422 77.5812 59.7109C78.7625 54.9703 79.9797 48.6172 80 40C79.9797 31.3797 78.7625 25.0297 77.5812 20.2891Z" fill="#FFEEEE"/>
<path d="M40 13.4375C34.7464 13.4375 29.6109 14.9954 25.2427 17.9141C20.8745 20.8328 17.4699 24.9813 15.4595 29.835C13.449 34.6886 12.923 40.0295 13.9479 45.1821C14.9728 50.3347 17.5027 55.0677 21.2175 58.7825C24.9323 62.4974 29.6653 65.0272 34.8179 66.0521C39.9705 67.077 45.3114 66.551 50.165 64.5406C55.0187 62.5301 59.1672 59.1255 62.0859 54.7573C65.0046 50.3892 66.5625 45.2536 66.5625 40C66.5625 32.9552 63.764 26.1989 58.7825 21.2175C53.8011 16.236 47.0448 13.4375 40 13.4375Z" fill="url(#paint0_linear_244_4439)"/>
<path d="M55.1563 35.6014L39.1828 52.3701C38.7478 52.8269 38.2251 53.1911 37.646 53.4411C37.0669 53.6911 36.4433 53.8216 35.8125 53.8248H35.7922C35.1651 53.8248 34.5444 53.6989 33.9668 53.4547C33.3893 53.2104 32.8666 52.8528 32.4297 52.4029L23.9563 43.6732C23.4955 43.2391 23.1274 42.7161 22.8742 42.1359C22.621 41.5556 22.488 40.93 22.4832 40.2969C22.4784 39.6639 22.6019 39.0364 22.8462 38.4523C23.0906 37.8683 23.4507 37.3398 23.9049 36.8987C24.359 36.4576 24.8979 36.1131 25.4888 35.886C26.0798 35.6588 26.7106 35.5537 27.3433 35.5771C27.9759 35.6004 28.5973 35.7516 29.1699 36.0217C29.7426 36.2917 30.2546 36.6749 30.675 37.1482L35.7531 42.3811L48.361 29.1404C48.7852 28.6942 49.2932 28.336 49.8558 28.0861C50.4185 27.8362 51.0249 27.6996 51.6404 27.6841C52.2559 27.6686 52.8684 27.7744 53.443 27.9956C54.0175 28.2168 54.5429 28.549 54.9891 28.9732C55.4353 29.3975 55.7935 29.9054 56.0434 30.4681C56.2933 31.0308 56.4299 31.6372 56.4454 32.2527C56.4609 32.8682 56.3551 33.4807 56.1339 34.0552C55.9127 34.6298 55.5805 35.1552 55.1563 35.6014Z" fill="url(#paint1_linear_244_4439)"/>
<defs>
<linearGradient id="paint0_linear_244_4439" x1="58.7859" y1="58.7859" x2="21.2141" y2="21.2141" gradientUnits="userSpaceOnUse">
<stop stop-color="#C41B1B"/>
<stop offset="0.52" stop-color="#E64646"/>
<stop offset="1" stop-color="#FF9494"/>
</linearGradient>
<linearGradient id="paint1_linear_244_4439" x1="47.2875" y1="44.2686" x2="32.0625" y2="29.042" gradientUnits="userSpaceOnUse">
<stop stop-color="#FFCCCC"/>
<stop offset="0.57" stop-color="white"/>
<stop offset="1" stop-color="white"/>
</linearGradient>
</defs>
</svg>
