<svg width="80" height="80" viewBox="0 0 80 80" fill="none" xmlns="http://www.w3.org/2000/svg">
<path d="M77.5828 20.2906C75.4844 12.5594 67.4437 4.52031 59.7125 2.42031C54.9734 1.23906 48.6219 0.021875 40.0016 0C31.3813 0.021875 25.0312 1.2375 20.2906 2.42031C12.5609 4.52031 4.52031 12.5594 2.42188 20.2906C1.23906 25.0297 0.0234375 31.3813 0 40.0016C0.021875 48.6219 1.2375 54.9719 2.42031 59.7125C4.52031 67.4437 12.5594 75.4828 20.2906 77.5828C25.0312 78.7656 31.3813 79.9813 40.0016 80.0031C48.6203 79.9813 54.9719 78.7656 59.7125 77.5828C67.4437 75.4828 75.4828 67.4437 77.5828 59.7125C78.7656 54.9734 79.9813 48.6219 80.0031 40.0016C79.9813 31.3813 78.7656 25.0312 77.5828 20.2906Z" fill="#FFEEEE"/>
<path d="M65.9047 33.2951C65.3266 30.6701 62.7954 28.1607 60.1766 27.5467C58.5829 27.106 42.9469 26.4888 40.0016 26.5951C37.0563 26.4888 21.4204 27.106 19.8266 27.5467C17.2079 28.1607 14.6766 30.6701 14.0985 33.2951C13.7688 34.8935 13.4454 37.0545 13.4407 39.9998C13.4454 42.9451 13.7688 45.106 14.0985 46.7045C14.6766 49.3295 17.2079 51.8388 19.8266 52.4529C21.4219 52.8951 37.0563 53.5107 40.0016 53.4045C42.9485 53.5107 58.5829 52.8935 60.1766 52.4529C62.7954 51.8404 65.3266 49.3295 65.9047 46.7045C66.2344 45.106 66.5579 42.9435 66.5625 39.9998C66.5579 37.0545 66.2344 34.8935 65.9047 33.2951Z" fill="url(#paint0_linear_241_8030)"/>
<path d="M30.5546 40.9857L29.1718 41.4311L30.0327 42.6201C30.6702 43.5014 30.4733 44.7342 29.5921 45.3732C29.2421 45.6264 28.839 45.7482 28.4374 45.7482C27.8265 45.7482 27.2249 45.4654 26.839 44.9326L25.9827 43.7498L25.1265 44.9326C24.9437 45.1855 24.7035 45.3914 24.4256 45.5332C24.1477 45.675 23.84 45.7487 23.528 45.7482C23.128 45.7482 22.7233 45.6264 22.3733 45.3732C21.4921 44.7342 21.2937 43.5029 21.9327 42.6201L22.7937 41.4311L21.4108 40.9857C20.3749 40.6529 19.8046 39.542 20.1374 38.5061C20.4702 37.4701 21.5812 36.8998 22.6171 37.2326L24.0108 37.6811V36.2248C24.0108 35.1357 24.8937 34.2529 25.9827 34.2529C27.0718 34.2529 27.9546 35.1357 27.9546 36.2248V37.6811L29.3483 37.2326C30.3843 36.8998 31.4952 37.4701 31.828 38.5061C32.1608 39.542 31.5905 40.6529 30.5546 40.9857ZM44.5733 40.9857L43.1905 41.4311L44.0515 42.6201C44.689 43.5014 44.4921 44.7342 43.6108 45.3732C43.2608 45.6264 42.8577 45.7482 42.4562 45.7482C41.8452 45.7482 41.2437 45.4654 40.8577 44.9326L40.0015 43.7498L39.1452 44.9326C38.9625 45.1855 38.7223 45.3914 38.4443 45.5332C38.1664 45.675 37.8588 45.7487 37.5468 45.7482C37.1468 45.7482 36.7421 45.6264 36.3921 45.3732C35.5108 44.7342 35.3124 43.5029 35.9515 42.6201L36.8124 41.4311L35.4296 40.9857C34.3937 40.6529 33.8233 39.542 34.1562 38.5061C34.489 37.4701 35.5999 36.8998 36.6358 37.2326L38.0296 37.6811V36.2248C38.0296 35.1357 38.9124 34.2529 40.0015 34.2529C41.0905 34.2529 41.9733 35.1357 41.9733 36.2248V37.6811L43.3671 37.2326C44.403 36.8998 45.514 37.4701 45.8468 38.5061C46.1796 39.542 45.6093 40.6529 44.5733 40.9857ZM58.5921 40.9857L57.2093 41.4311L58.0702 42.6201C58.7077 43.5014 58.5108 44.7342 57.6296 45.3732C57.2796 45.6264 56.8765 45.7482 56.4749 45.7482C55.864 45.7482 55.2624 45.4654 54.8765 44.9326L54.0202 43.7498L53.164 44.9326C52.9812 45.1855 52.741 45.3914 52.4631 45.5332C52.1852 45.675 51.8775 45.7487 51.5655 45.7482C51.1655 45.7482 50.7608 45.6264 50.4108 45.3732C49.5296 44.7342 49.3312 43.5029 49.9702 42.6201L50.8312 41.4311L49.4483 40.9857C48.4124 40.6529 47.8421 39.542 48.1749 38.5061C48.5077 37.4701 49.6187 36.8998 50.6546 37.2326L52.0483 37.6811V36.2248C52.0483 35.1357 52.9312 34.2529 54.0202 34.2529C55.1093 34.2529 55.9921 35.1357 55.9921 36.2248V37.6811L57.3858 37.2326C58.4218 36.8998 59.5327 37.4701 59.8655 38.5061C60.1983 39.542 59.628 40.6529 58.5921 40.9857Z" fill="url(#paint1_linear_241_8030)"/>
<defs>
<linearGradient id="paint0_linear_241_8030" x1="57.1711" y1="54.5668" x2="26.8269" y2="20.4139" gradientUnits="userSpaceOnUse">
<stop stop-color="#EF3739"/>
<stop offset="0.54" stop-color="#EF3739"/>
<stop offset="1" stop-color="#FF8C8B"/>
</linearGradient>
<linearGradient id="paint1_linear_241_8030" x1="51.1765" y1="51.8592" x2="28.8249" y2="29.5076" gradientUnits="userSpaceOnUse">
<stop stop-color="#EDBCBC"/>
<stop offset="0.57" stop-color="white"/>
<stop offset="1" stop-color="white"/>
</linearGradient>
</defs>
</svg>
