<svg width="16" height="16" viewBox="0 0 16 16" fill="none" xmlns="http://www.w3.org/2000/svg">
<path d="M8.94275 7.99994L12.4714 4.47126C12.7321 4.21126 12.7321 3.78863 12.4714 3.52863C12.2108 3.26796 11.7894 3.26796 11.5288 3.52863L8.00009 7.05728L4.47142 3.52863C4.21075 3.26796 3.78942 3.26796 3.52875 3.52863C3.26809 3.78863 3.26809 4.21126 3.52875 4.47126L7.05742 7.99994L3.52875 11.5286C3.26809 11.7886 3.26809 12.2113 3.52875 12.4713C3.65875 12.6013 3.82942 12.6666 4.00009 12.6666C4.17075 12.6666 4.34142 12.6013 4.47142 12.4713L8.00009 8.94261L11.5288 12.4713C11.6588 12.6013 11.8294 12.6666 12.0001 12.6666C12.1708 12.6666 12.3414 12.6013 12.4714 12.4713C12.7321 12.2113 12.7321 11.7886 12.4714 11.5286L8.94275 7.99994Z" fill="white"/>
</svg>
