<svg width="20" height="20" viewBox="0 0 20 20" fill="none" xmlns="http://www.w3.org/2000/svg">
<path d="M10.8332 6.6665V9.65479L12.2557 11.0773C12.5815 11.4031 12.5815 11.9299 12.2557 12.2557C12.0932 12.4182 11.8798 12.4998 11.6665 12.4998C11.4532 12.4998 11.2398 12.4182 11.0773 12.2557L9.41063 10.589C9.25396 10.4324 9.16649 10.2207 9.16649 9.99984V6.6665C9.16649 6.2065 9.53899 5.83317 9.99982 5.83317C10.4607 5.83317 10.8332 6.2065 10.8332 6.6665ZM10.0214 1.6665C7.79639 1.6665 5.70732 2.56478 4.16649 4.10811V2.49984C4.16649 2.03984 3.79399 1.6665 3.33316 1.6665C2.87232 1.6665 2.49982 2.03984 2.49982 2.49984V5.83317C2.49982 6.29317 2.87232 6.6665 3.33316 6.6665H6.66649C7.12732 6.6665 7.49982 6.29317 7.49982 5.83317C7.49982 5.37317 7.12732 4.99984 6.66649 4.99984H5.63398C6.83231 3.939 8.38306 3.33317 10.0214 3.33317C13.6847 3.33317 16.6665 6.324 16.6665 9.99984C16.6665 13.6757 13.6856 16.6665 10.0214 16.6665C7.47556 16.6665 5.1998 15.2491 4.08063 12.9666C3.87897 12.5532 3.37989 12.3815 2.96573 12.5849C2.55239 12.7874 2.38237 13.2865 2.58487 13.6998C3.9857 16.5581 6.83556 18.3332 10.0214 18.3332C14.6039 18.3332 18.3332 14.5948 18.3332 9.99984C18.3332 5.40484 14.6039 1.6665 10.0214 1.6665Z" fill="#494A4D"/>
</svg>
