<svg width="24" height="24" viewBox="0 0 24 24" fill="none" xmlns="http://www.w3.org/2000/svg">
<path d="M23.2744 6.08719C22.6448 3.76781 20.2327 1.35563 17.9133 0.726094C16.4916 0.37125 14.5861 0.00609375 12 0C9.41438 0.0065625 7.50891 0.37125 6.08719 0.726094C3.76781 1.35609 1.35563 3.76781 0.726094 6.08719C0.37125 7.50891 0.0065625 9.41438 0 12C0.0065625 14.5861 0.37125 16.4916 0.726094 17.9133C1.35563 20.2327 3.76781 22.6444 6.08719 23.2744C7.50891 23.6292 9.41531 23.9939 12 24.0005C14.5861 23.9939 16.4916 23.6292 17.9133 23.2744C20.2327 22.6444 22.6448 20.2327 23.2744 17.9133C23.6292 16.4916 23.9939 14.5852 24.0005 12C23.9939 9.41438 23.6292 7.50891 23.2744 6.08719Z" fill="#F8F9FA"/>
<g clip-path="url(#clip0_270_7254)">
<path d="M13.0912 9.56509L11.754 10.8999L11.6871 10.9667L11.2624 11.3906L10.9483 11.7076L10.5236 12.1315L10.4567 12.1949L10.2729 12.3818L10.206 12.4451L9.58083 13.0692L9.5139 13.1325C9.33128 13.3146 9.12415 13.4706 8.89884 13.5965C8.79123 13.6567 8.67959 13.7091 8.56448 13.7534C8.30542 13.8536 8.03251 13.9133 7.75556 13.9302C7.58766 13.9452 7.4186 13.9452 7.2507 13.9302C6.88403 13.8905 6.52919 13.777 6.20752 13.5965C6.06184 13.5213 5.92711 13.4269 5.80624 13.3163L5.72921 13.2394L3.29234 10.7832L3.24214 10.7331C3.19887 10.6862 3.1605 10.6349 3.12848 10.5796C3.04482 10.4382 3.00097 10.2767 3.00154 10.1125C2.99981 10.0869 2.99981 10.0613 3.00154 10.0356V9.87553C3.03414 9.75429 3.09097 9.64083 3.16858 9.54176C3.18906 9.51585 3.21156 9.49108 3.23551 9.46833L3.27907 9.42484L5.90346 6.83852L7.47486 5.27337C7.82191 4.92636 8.37869 4.90735 8.74854 5.22988L13.0915 9.56509H13.0912Z" fill="#005BAA"/>
<path d="M8.36704 15.3853C8.15557 15.3845 7.94671 15.3378 7.75515 15.2485L7.25693 14.7547L7.13317 14.6346L7.11298 14.6112L6.88218 14.3809L5.72217 13.2094L5.79919 13.2863C5.92065 13.3986 6.05682 13.4939 6.20366 13.5699C6.52532 13.7502 6.88016 13.8639 7.24683 13.9037C7.41473 13.9187 7.58379 13.9187 7.75169 13.9037C8.02893 13.8867 8.30184 13.8271 8.56061 13.7269C8.67572 13.6825 8.78737 13.6301 8.89497 13.5699C9.12028 13.4444 9.32742 13.2883 9.51003 13.106L9.57696 13.0426L10.2021 12.4186L10.269 12.3552L10.4528 12.1683L10.5197 12.105L10.9444 11.6811L11.2586 11.364L11.6933 10.9634L11.7602 10.8966L14.4516 8.2268L15.5547 7.00203L15.615 6.9453C15.9543 6.60808 16.5027 6.60808 16.842 6.9453L17.4504 7.55264H17.4706C17.1945 7.54112 16.9262 7.64364 16.7283 7.8363L14.6723 9.8386L14.6521 9.86193L11.0814 13.4127L9.76073 14.7043L9.68053 14.7878C9.5008 14.962 9.29424 15.1063 9.06864 15.2148C8.94315 15.2756 8.81073 15.3205 8.67428 15.3485C8.5961 15.3649 8.51676 15.375 8.43685 15.3784L8.36675 15.385L8.36704 15.3853Z" fill="#ED1C24"/>
<path d="M20.7471 12.0646L20.6802 12.1314L17.7682 15.0814L14.7024 18.1818C14.6072 18.2777 14.5042 18.3658 14.3948 18.4455L14.3513 18.4755C13.2519 19.2597 11.7497 19.1545 10.7706 18.2252L10.6904 18.1786L10.1656 17.6548L8.68449 16.1763L8.18973 15.679L8.1228 15.609C8.20243 15.6222 8.28291 15.6288 8.3634 15.6291H8.43351C8.52813 15.6251 8.62189 15.6127 8.71421 15.5926C8.87086 15.5615 9.0226 15.5099 9.1654 15.4391C9.41177 15.317 9.63737 15.1571 9.83412 14.9651L9.92442 14.8683L11.0611 13.7535L14.9692 9.91567L14.9894 9.88889L16.9085 8.03345C17.1652 7.78781 17.5587 7.75296 17.8547 7.94994L18.3027 8.40034L20.7433 10.8398C20.7653 10.8605 20.7852 10.8827 20.8036 10.9066C21.0852 11.2499 21.0607 11.7504 20.7468 12.0646H20.7471Z" fill="#ED1C24"/>
<path d="M11.3124 8.83411C11.2406 8.90035 11.1301 8.90035 11.0583 8.83411C9.90345 7.67385 8.02481 7.6678 6.86249 8.82086C5.70016 9.97364 5.6941 11.8489 6.84921 13.0092L7.73978 13.9045C7.74065 13.9111 7.38811 13.916 7.22454 13.9008L6.59188 13.2692C5.29945 11.9699 5.30695 9.87054 6.60861 8.5804C7.91028 7.29027 10.0134 7.29775 11.3058 8.59711C11.3687 8.66277 11.3716 8.765 11.3124 8.83411Z" fill="#009EDB"/>
<path d="M12.6966 9.96875L12.4459 10.2158L12.008 9.77523C11.9387 9.70612 11.9387 9.59409 12.008 9.52498C12.0772 9.45587 12.1894 9.45587 12.2587 9.52498L12.6966 9.96875Z" fill="#009EDB"/>
<path d="M8.89539 13.5698C8.89539 13.5698 8.67614 13.6839 8.56103 13.7268L7.34736 12.5153C6.57767 11.7415 6.46833 10.5308 7.08656 9.63177C7.14282 9.552 7.25244 9.53126 7.33409 9.58511C7.41429 9.64098 7.4339 9.75128 7.37794 9.83133C7.37794 9.83133 7.37765 9.83191 7.37736 9.83191C6.85606 10.5904 6.94895 11.6119 7.59806 12.2647L8.8951 13.5696L8.89539 13.5698Z" fill="#009EDB"/>
<path d="M11.9478 10.7063L11.764 10.8897L11.7037 10.9499L10.323 9.55841C9.80746 9.04149 9.04297 8.86179 8.35059 9.09448C8.26174 9.13537 8.15644 9.09678 8.11547 9.00837C8.07451 8.91968 8.11317 8.81457 8.20173 8.77367C8.21414 8.76791 8.22683 8.76359 8.2401 8.761C9.05653 8.49376 9.95373 8.71089 10.557 9.32169L11.9478 10.7066V10.7063Z" fill="#009EDB"/>
<path d="M11.1925 11.4308L10.943 11.6825L9.57062 10.3025C9.19934 9.99866 8.65179 10.0528 8.34743 10.4234C8.08375 10.7445 8.0849 11.2073 8.35032 11.5272L9.2429 12.4249C9.31214 12.494 9.31214 12.606 9.2429 12.6751C9.17366 12.7442 9.06144 12.7442 8.9922 12.6751L8.08289 11.7775C7.62794 11.2761 7.66602 10.5018 8.16828 10.0476C8.63909 9.6217 9.35801 9.62516 9.82478 10.0557L11.1925 11.4311V11.4308Z" fill="#009EDB"/>
<path d="M10.4533 12.1679L10.2078 12.4132L8.82854 11.0399C8.7593 10.9708 8.7593 10.8587 8.82854 10.7896C8.89778 10.7205 9.01 10.7205 9.07924 10.7896L10.4533 12.1679Z" fill="#009EDB"/>
</g>
<defs>
<clipPath id="clip0_270_7254">
<rect width="18" height="14" fill="white" transform="translate(3 5)"/>
</clipPath>
</defs>
</svg>
