<svg width="80" height="80" viewBox="0 0 80 80" fill="none" xmlns="http://www.w3.org/2000/svg">
<g clip-path="url(#clip0_250_1992)">
<mask id="mask0_250_1992" style="mask-type:luminance" maskUnits="userSpaceOnUse" x="0" y="0" width="80" height="80">
<path d="M0 0.000236511H79.9998V80H0V0.000236511Z" fill="white"/>
</mask>
<g mask="url(#mask0_250_1992)">
<path d="M29.6991 27.5579C29.6991 26.0629 28.4872 24.8509 26.9921 24.8509C25.4969 24.8509 24.285 26.0629 24.285 27.5579M48.4831 27.5579C48.4831 26.0629 49.6951 24.8509 51.1901 24.8509C52.6853 24.8509 53.8971 26.0629 53.8971 27.5579M64.4991 52.5678L57.152 70.0748M26.7644 16.709C26.2132 17.8259 25.3986 18.7921 24.391 19.5242C23.3833 20.2563 22.2128 20.7324 20.9802 20.9115L8.55992 22.7162C2.259 23.6318 -0.257084 31.3752 4.30243 35.8196L13.2898 44.58C14.1817 45.4494 14.8488 46.5227 15.2337 47.7073C15.6186 48.8918 15.7097 50.1522 15.4991 51.3799L13.3776 63.7498C12.3012 70.0256 18.888 74.8112 24.5239 71.8482L35.633 66.0079C36.7354 65.4284 37.9623 65.1255 39.2078 65.1255C40.4533 65.1255 41.6802 65.4284 42.7826 66.0079L44.1964 66.7512C43.6592 65.0558 43.3865 63.2878 43.3879 61.5094M43.3879 61.5094C43.3879 51.9444 51.1418 44.1905 60.7068 44.1905M43.3879 61.5094C43.3879 71.0742 51.1418 78.8281 60.7068 78.8281C64.4585 78.8281 67.9315 77.6348 70.7674 75.6073M60.7068 44.1905C62.1841 44.1905 63.6179 44.376 64.9869 44.7239C65.0335 44.6763 65.0779 44.6268 65.1257 44.58L74.113 35.8196C78.6725 31.3752 76.1566 23.6318 69.8555 22.7162L57.4352 20.9115C56.2027 20.7324 55.0321 20.2563 54.0245 19.5242C53.0168 18.7921 52.2023 17.8259 51.651 16.709L46.0967 5.45437C43.2787 -0.255299 35.1367 -0.255299 32.3189 5.45437L28.8738 12.435M60.7068 44.1905C70.2716 44.1905 78.0255 51.9444 78.0255 61.5094C78.0255 65.6369 76.5807 69.4265 74.1703 72.402M42.4373 29.7204C42.4373 27.7245 40.9914 26.1063 39.2076 26.1063C37.4239 26.1063 35.978 27.7245 35.978 29.7204C35.978 31.7163 37.4239 33.3344 39.2076 33.3344C40.9914 33.3344 42.4373 31.7163 42.4373 29.7204ZM58.9918 55.5244C58.9918 57.6078 57.5384 59.2969 55.7454 59.2969C53.9524 59.2969 52.4989 57.6078 52.4989 55.5244C52.4989 53.4409 53.9524 51.7519 55.7454 51.7519C57.5384 51.7519 58.9918 53.4409 58.9918 55.5244ZM68.9146 67.494C68.9146 69.5775 67.4612 71.2665 65.6682 71.2665C63.8752 71.2665 62.4216 69.5775 62.4216 67.494C62.4216 65.4106 63.8752 63.7215 65.6682 63.7215C67.4612 63.7215 68.9146 65.4106 68.9146 67.494Z" stroke="#7C7D80" stroke-width="2.5" stroke-miterlimit="10" stroke-linecap="round" stroke-linejoin="round"/>
</g>
</g>
<defs>
<clipPath id="clip0_250_1992">
<rect width="80" height="80" fill="white"/>
</clipPath>
</defs>
</svg>
