<svg width="36" height="36" viewBox="0 0 36 36" fill="none" xmlns="http://www.w3.org/2000/svg">
<path d="M34.9116 9.13078C33.9673 5.65172 30.349 2.03344 26.8699 1.08914C24.7373 0.556875 21.8791 0.00914062 18 0C14.1216 0.00984375 11.2634 0.556875 9.13078 1.08914C5.65172 2.03414 2.03344 5.65172 1.08914 9.13078C0.556875 11.2634 0.00984375 14.1216 0 18C0.00984375 21.8791 0.556875 24.7373 1.08914 26.8699C2.03344 30.349 5.65172 33.9666 9.13078 34.9116C11.2634 35.4438 14.123 35.9909 18 36.0007C21.8791 35.9909 24.7373 35.4438 26.8699 34.9116C30.349 33.9666 33.9673 30.349 34.9116 26.8699C35.4438 24.7373 35.9909 21.8777 36.0007 18C35.9909 14.1216 35.4438 11.2634 34.9116 9.13078Z" fill="#FFE5E5"/>
<path d="M29.1403 16.1718C28.7653 15.8146 28.3903 15.4542 28.0153 15.0904C27.5002 14.5968 27.1952 13.9237 27.1638 13.211C27.1446 12.7071 27.1225 12.2027 27.0977 11.6979C27.0218 10.2501 25.7561 8.98449 24.3084 8.90855C23.804 8.88324 23.2996 8.86121 22.7953 8.84246C22.0826 8.81101 21.4094 8.50604 20.9158 7.99098C20.5521 7.61598 20.1916 7.24098 19.8344 6.86598C18.8036 5.78035 17.2026 5.78035 16.1718 6.86598C15.8146 7.24098 15.4542 7.61598 15.0904 7.99098C14.5968 8.50604 13.9237 8.81101 13.211 8.84246C12.7071 8.86168 12.2027 8.88371 11.6979 8.90855C10.2501 8.98449 8.98449 10.2501 8.90855 11.6979C8.88324 12.2018 8.86121 12.7061 8.84246 13.211C8.81101 13.9237 8.50604 14.5968 7.99098 15.0904C7.61598 15.4537 7.24098 15.8142 6.86598 16.1718C5.78035 17.2026 5.78035 18.8036 6.86598 19.8344C7.24098 20.1916 7.61598 20.5521 7.99098 20.9158C8.50604 21.4094 8.81101 22.0826 8.84246 22.7953C8.86168 23.2992 8.88371 23.8036 8.90855 24.3084C8.98449 25.7561 10.2501 27.0218 11.6979 27.0977C12.2018 27.123 12.7061 27.145 13.211 27.1638C13.9237 27.1952 14.5968 27.5002 15.0904 28.0153C15.4537 28.3903 15.8142 28.7653 16.1718 29.1403C17.2026 30.2259 18.8036 30.2259 19.8344 29.1403C20.1916 28.7653 20.5521 28.3903 20.9158 28.0153C21.4093 27.5001 22.0825 27.1951 22.7953 27.1638C23.2992 27.1446 23.8036 27.1225 24.3084 27.0977C25.7561 27.0218 27.0218 25.7561 27.0977 24.3084C27.123 23.804 27.145 23.2996 27.1638 22.7953C27.1949 22.0825 27.4999 21.4092 28.0153 20.9158C28.3903 20.5521 28.7653 20.1916 29.1403 19.8344C30.2259 18.8008 30.2259 17.1998 29.1403 16.1718Z" fill="url(#paint0_linear_217_9109)"/>
<path d="M23.2615 18.8291C22.7588 18.2989 22.1527 18.0345 21.4566 18.0345C20.7605 18.0345 20.1586 18.3031 19.6516 18.8305C19.4039 19.0839 19.2098 19.3847 19.0809 19.7149C18.952 20.0451 18.8909 20.3978 18.9014 20.7521C18.907 21.515 19.1616 22.1619 19.6552 22.6885C20.1488 23.2152 20.7422 23.4845 21.432 23.4795C22.1217 23.4746 22.7348 23.213 23.2355 22.6892C23.7361 22.1654 23.9977 21.5192 24.0089 20.7458C24.0196 20.3925 23.959 20.0406 23.8305 19.7113C23.7021 19.3819 23.5086 19.0819 23.2615 18.8291ZM22.1013 21.5361C22.0235 21.6333 21.9245 21.7114 21.812 21.7645C21.6994 21.8177 21.5761 21.8444 21.4516 21.8427C21.3261 21.8458 21.2014 21.8208 21.0866 21.7696C20.9719 21.7184 20.8701 21.6422 20.7886 21.5466C20.617 21.347 20.5306 21.0868 20.5298 20.7577C20.5186 20.4812 20.6134 20.2108 20.7949 20.0019C20.8771 19.9088 20.9782 19.8342 21.0914 19.7831C21.2046 19.7321 21.3274 19.7057 21.4516 19.7057C21.5759 19.7057 21.6986 19.7321 21.8119 19.7831C21.9251 19.8342 22.0262 19.9088 22.1084 20.0019C22.2844 20.2128 22.3754 20.4818 22.3636 20.7563C22.3734 21.0394 22.2802 21.3165 22.1013 21.5361ZM16.3891 13.2652C15.9075 12.747 15.3302 12.5016 14.644 12.5227C13.9577 12.5438 13.3594 12.8279 12.8306 13.3595C12.3019 13.891 12.0234 14.5147 11.996 15.2445C11.9686 15.9744 12.207 16.6023 12.6991 17.1085C12.9357 17.351 13.2185 17.5435 13.5308 17.6746C13.8431 17.8058 14.1785 17.8729 14.5172 17.872C14.856 17.8712 15.1911 17.8024 15.5027 17.6696C15.8143 17.5369 16.0962 17.343 16.3315 17.0994C16.8349 16.5838 17.0927 15.9397 17.1049 15.1672C17.112 14.4198 16.875 13.7813 16.3891 13.2652ZM15.1875 15.961C15.1059 16.0553 15.0054 16.1314 14.8924 16.1842C14.7795 16.237 14.6566 16.2654 14.5319 16.2676C14.4073 16.2697 14.2835 16.2455 14.1688 16.1965C14.0541 16.1476 13.9511 16.075 13.8663 15.9835C13.6976 15.7909 13.6174 15.5377 13.6259 15.2164C13.6249 14.9408 13.7279 14.6749 13.9141 14.4718C13.9975 14.377 14.0998 14.3009 14.2146 14.2483C14.3293 14.1957 14.4538 14.1679 14.58 14.1666C14.7012 14.1606 14.8221 14.1829 14.9331 14.2317C15.0442 14.2805 15.1424 14.3545 15.2198 14.4479C15.3897 14.6556 15.4749 14.9198 15.4582 15.1876C15.4636 15.4695 15.3675 15.744 15.1875 15.961ZM21.5431 13.9789C19.7149 16.8371 17.7919 19.7206 16.0467 22.5177C15.8098 22.8988 15.3267 22.9789 14.9604 22.7019C14.5941 22.4248 14.4844 21.8926 14.7234 21.5157C16.4756 18.7363 18.405 15.857 20.2416 12.9896C20.309 12.8789 20.4035 12.7872 20.5162 12.7231C20.6289 12.659 20.756 12.6247 20.8856 12.6233H20.8969C21.5269 12.6219 21.9066 13.408 21.5409 13.9754L21.5431 13.9789Z" fill="url(#paint1_linear_217_9109)"/>
<defs>
<linearGradient id="paint0_linear_217_9109" x1="26.2146" y1="26.2146" x2="9.78605" y2="9.78605" gradientUnits="userSpaceOnUse">
<stop stop-color="#EF3739"/>
<stop offset="0.54" stop-color="#EF3739"/>
<stop offset="1" stop-color="#FF8C8B"/>
</linearGradient>
<linearGradient id="paint1_linear_217_9109" x1="23.1694" y1="22.756" x2="13.301" y2="12.8877" gradientUnits="userSpaceOnUse">
<stop stop-color="#FFD2D2"/>
<stop offset="0.57" stop-color="white"/>
<stop offset="1" stop-color="white"/>
</linearGradient>
</defs>
</svg>
