<svg width="20" height="20" viewBox="0 0 20 20" fill="none" xmlns="http://www.w3.org/2000/svg">
<path d="M11.0417 11.6667C11.0417 13.1583 12.2583 14.375 13.75 14.375H17.5V15C17.5 16.6667 16.6667 17.5 15 17.5H5C3.33333 17.5 2.5 16.6667 2.5 15V4.16667C2.5 5.08333 3.25 5.83333 4.16667 5.83333H15C16.6667 5.83333 17.5 6.66667 17.5 8.33333V8.95833H13.75C12.2583 8.95833 11.0417 10.175 11.0417 11.6667ZM13.75 10.2083C12.95 10.2083 12.2917 10.8667 12.2917 11.6667C12.2917 12.4667 12.95 13.125 13.75 13.125H17.5V10.2083H13.75ZM14.1833 12.5C13.725 12.5 13.3417 12.125 13.3417 11.6667C13.3417 11.2083 13.7167 10.8333 14.175 10.8333H14.1833C14.6417 10.8333 15.0167 11.2083 15.0167 11.6667C15.0167 12.125 14.6417 12.5 14.1833 12.5ZM12.5 2.5H4.79167C4.21667 2.5 3.75 2.96667 3.75 3.54167C3.75 4.11667 4.21667 4.58333 4.79167 4.58333H14.975C14.85 3.19167 14.025 2.5 12.5 2.5Z" fill="#7C7D80"/>
</svg>
